<svg xmlns="http://www.w3.org/2000/svg" width="23.011" height="23.053" viewBox="0 0 23.011 23.053">
  <path id="Icon_feather-phone" data-name="Icon feather-phone" d="M24.177,18.761V21.93a2.113,2.113,0,0,1-2.3,2.113A20.905,20.905,0,0,1,12.757,20.8a20.6,20.6,0,0,1-6.338-6.338A20.905,20.905,0,0,1,3.176,5.3,2.113,2.113,0,0,1,5.279,3H8.448A2.113,2.113,0,0,1,10.56,4.817,13.563,13.563,0,0,0,11.3,7.785a2.113,2.113,0,0,1-.475,2.229L9.483,11.356a16.9,16.9,0,0,0,6.338,6.338l1.342-1.342a2.113,2.113,0,0,1,2.229-.475,13.563,13.563,0,0,0,2.968.739A2.113,2.113,0,0,1,24.177,18.761Z" transform="translate(-2.167 -2)" fill="none" stroke="#ff9248" stroke-linecap="round" stroke-linejoin="round" stroke-width="2"/>
</svg>
