<svg xmlns="http://www.w3.org/2000/svg" xmlns:xlink="http://www.w3.org/1999/xlink" width="36" height="91.215" viewBox="0 0 36 91.215">
  <defs>
    <clipPath id="clip-path">
      <rect id="Rectangle_55" data-name="Rectangle 55" width="36" height="91.215" fill="none"/>
    </clipPath>
  </defs>
  <g id="Groupe_46" data-name="Groupe 46" transform="translate(0 0)">
    <g id="Groupe_45" data-name="Groupe 45" transform="translate(0 0)" clip-path="url(#clip-path)">
      <path id="Tracé_955" data-name="Tracé 955" d="M16.717.022c-.186-.048-.607-.022-.525.117l.715.1Z" transform="translate(18.758 0)" fill="#f72"/>
      <path id="Tracé_956" data-name="Tracé 956" d="M15.813.758a2.95,2.95,0,0,0,1.606.268c-.684-.171-.4-.205-1.211-.386-.08-.136.233-.233.5-.207-.184-.05.16-.209-.289-.287-.555.173-.579.391-.127.63a1.237,1.237,0,0,1-.475-.017" transform="translate(18.33 0.169)" fill="#f72"/>
      <path id="Tracé_957" data-name="Tracé 957" d="M14.972,6.5l.091-.078a.158.158,0,0,0-.091.078" transform="translate(17.355 7.44)" fill="#f72"/>
      <path id="Tracé_958" data-name="Tracé 958" d="M14.486,10.217a.157.157,0,0,0-.14-.108c.039.063.078.114.14.108" transform="translate(16.63 11.719)" fill="#f72"/>
      <path id="Tracé_959" data-name="Tracé 959" d="M13.985,10.786l.058-.073c-.069.022-.11.048-.058.073" transform="translate(16.184 12.419)" fill="#f72"/>
      <path id="Tracé_960" data-name="Tracé 960" d="M15.1,6.454l-.242.2c.231.035.181-.1.242-.2" transform="translate(17.225 7.482)" fill="#f72"/>
      <path id="Tracé_961" data-name="Tracé 961" d="M16.691,1.358a.462.462,0,0,0-.186-.125.566.566,0,0,1,.073.114Z" transform="translate(19.132 1.43)" fill="#f72"/>
      <path id="Tracé_962" data-name="Tracé 962" d="M14.984,4.864l0-.065c-.082-.022-.175-.048-.285-.076Z" transform="translate(17.041 5.476)" fill="#f72"/>
      <path id="Tracé_963" data-name="Tracé 963" d="M14.86,3.529c-.03.06.574.114.838.153a.733.733,0,0,1-.408-.158,3.657,3.657,0,0,0-.43,0" transform="translate(17.224 4.081)" fill="#f72"/>
      <path id="Tracé_964" data-name="Tracé 964" d="M15.487,1.584,15.4,1.5Z" transform="translate(17.857 1.744)" fill="#f72"/>
      <path id="Tracé_965" data-name="Tracé 965" d="M14.822,5.686a1.5,1.5,0,0,0-.218.009,1.036,1.036,0,0,0,.218-.009" transform="translate(16.929 6.591)" fill="#f72"/>
      <path id="Tracé_966" data-name="Tracé 966" d="M5.349,39.874c-.03-.03-.05-.05-.078-.076.032.054.058.089.078.076" transform="translate(6.11 46.133)" fill="#f72"/>
      <path id="Tracé_967" data-name="Tracé 967" d="M3.357,40.031l.011-.054-.216-.263Z" transform="translate(3.654 46.035)" fill="#f72"/>
      <path id="Tracé_968" data-name="Tracé 968" d="M13.477,11.88l.013-.009c-.058-.076-.052-.037-.013.009" transform="translate(15.588 13.711)" fill="#f72"/>
      <path id="Tracé_969" data-name="Tracé 969" d="M11.577,22.337c.6-.108.555.592,1.244.374-.238-.028-.814-.592-1.244-.374" transform="translate(13.42 25.835)" fill="#f72"/>
      <path id="Tracé_970" data-name="Tracé 970" d="M16.553,1.323a.339.339,0,0,1,0,.114.106.106,0,0,0,0-.114" transform="translate(19.188 1.534)" fill="#f72"/>
      <path id="Tracé_971" data-name="Tracé 971" d="M12.153,22.495l0,0,.067-.024c-.028.009-.048.013-.071.022" transform="translate(14.088 26.051)" fill="#f72"/>
      <path id="Tracé_972" data-name="Tracé 972" d="M13.226,14.53a1.312,1.312,0,0,0,.272-.015.992.992,0,0,0-.272.015" transform="translate(15.331 16.822)" fill="#f72"/>
      <path id="Tracé_973" data-name="Tracé 973" d="M13.982,12.609l-.1.1a.194.194,0,0,0,.1-.1" transform="translate(16.098 14.617)" fill="#f72"/>
      <path id="Tracé_974" data-name="Tracé 974" d="M13.494,15.609c-.056.05-.14.054-.076.147l.078-.011c-.078-.043-.108-.089,0-.136" transform="translate(15.527 18.094)" fill="#f72"/>
      <path id="Tracé_975" data-name="Tracé 975" d="M13.244,16.724l.127-.019-.017-.078Z" transform="translate(15.352 19.274)" fill="#f72"/>
      <path id="Tracé_976" data-name="Tracé 976" d="M7.741,37.21a3.275,3.275,0,0,1-.5-.231c.369.225.276.607.5.231" transform="translate(8.39 42.866)" fill="#f72"/>
      <path id="Tracé_977" data-name="Tracé 977" d="M16.433,1.292c.153.019.229.041.259.078a.4.4,0,0,0-.03-.08.719.719,0,0,0-.229,0" transform="translate(19.049 1.487)" fill="#f72"/>
      <path id="Tracé_978" data-name="Tracé 978" d="M15.7,16.044l-.155.358a.772.772,0,0,0,.155-.358" transform="translate(18.019 18.598)" fill="#f72"/>
      <path id="Tracé_979" data-name="Tracé 979" d="M11.366,30.007l.032.11c.026-.026.022-.063-.032-.11" transform="translate(13.175 34.784)" fill="#f72"/>
      <path id="Tracé_980" data-name="Tracé 980" d="M15.731,16.731a1.162,1.162,0,0,0-.453.132.772.772,0,0,0,.147.073Z" transform="translate(17.71 19.395)" fill="#f72"/>
      <path id="Tracé_981" data-name="Tracé 981" d="M7.235,36.977l.006,0Z" transform="translate(8.387 42.863)" fill="#f72"/>
      <path id="Tracé_982" data-name="Tracé 982" d="M11.867,82.02c.25-.287-.494-.633-.8-.982.1-.49.585.207,1,.341.011-.354-.434-.974-.281-1.114.112.067.177.065.276.2-.32-.618.52-.706.093-1.449a.777.777,0,0,1,.186.082,6.506,6.506,0,0,1-.911-.611c.086-.14-.233-.544.222-.287-.069.073.1.205.2.339l-.086-.274c.693.317.076.345.523.676,0-.423-.285-1.105.035-1.19.626.38-.145.637.583.734l-.456.164c1.11.43-.207.155.957.652.477-.317.037-.71.516-1.023-.266-.33-.516-.313-.782-.643-.181-1.026,1.857.557,1.367-.449-.324-.391-1.067-.948-.436-1l.618.566c.363-.38-.831-.892-.082-1.041.225.257.022.49.145.479.732.058-.268-.464-.13-.689l.648.348c.19-.529.052-1.319.25-1.9.168.14.311.348.579.343.093-.831.918-1.339,1.639-1.781l-.419-.553c.037-.054.309.032.382.153.348-.136-.345-.207-.5-.447.039-.164.423-.013.54.168-.227-.7-.339-1.8.516-1.948l.119.177c.423-.248-.95-1.006-.255-1.075l.067.114c.635-.676.54-1.805,1.7-2.006-.769-.5.754-.626-.391-1.211.777-.2.926.026,1.6-.46.132-.153-.613-.583-.641-.851l.613.261-.514-.572.8.16-.067-.272a.631.631,0,0,1-.52-.032c-.14-.434.762-.589,1.082-.469l-.207-.969c.242.117.276.281.4.445-.469-.663.678.192.248-.417-.16-.006-.356-.177-.477-.235a.691.691,0,0,0,.579-.831l.4.229c.33-.525.263-1.276.518-1.907-.289.151-1.013-.181-1.01-.393l.687.173c-.361-.272-.324.1-.728-.33.168-.207.812.119.974.337l-.121-.376a4.044,4.044,0,0,1,.527.274c-.367-.27.842-.261.19-.7l.2.056a13.014,13.014,0,0,0,.259-1.55c-.57-.209-.371-.369-.782-.684.315-.317.926-.587,1.028-1.069-.184-.423-.458-.259-.754-.518.531.151.63-.33.931.035a2.974,2.974,0,0,0-.082-1.589c-.24.006-.361.063-.527-.039-.045-.153.313-.218.561-.121l.043.052c-.535-1.028,2.122-1.36,1.192-2.332l.043.052-.386-.827c.179-.276.348.3.741.166-.684-.963.451-1.088.026-1.837,1.706-.028.313-1.647,1.483-2l-.382-.06c-.324-.255.263-.138.378-.235-.294-.056-.378.089-.555-.063-.086-1.455,1.233-2.651,1.9-3.973.22-.49-1.872-.73-.827-1.166l.654.337c-.609-1.213.477-2.1-.019-3.258.149.093.358.138.335.235.553-.11.192-.784-.222-.87.08-.147.384.039.613-.015.341-.155-.546-.667-.019-.68.086,0,.153.093.186.14-.22-.19.188-.639-.425-.62.352-.326-.123-.775.283-1.01-.62-.322.438-.592-.477-.827.952.205.9-.523.49-.842.276.132.337-.155.723.011.035-.279-.1-.561-.6-.6,1.237-.3-.754-1.175.771-1.2a10.518,10.518,0,0,1-.715-2.481c.957.179-.03.825.985.957-.287-.762-1.052-1.291-.715-1.943.16-.158.4.164.557.25-.291-.756.3-1.332-.138-2.027a.482.482,0,0,1,.242.168c-.015-.125.181-.263-.259-.311l.1.136c-.663.1-1.263-.676-1.6-.743,1.229.384.4-.566,1.941-.013a.8.8,0,0,0-.561-.246c.1-.106.279-.121.6.048-.177-.471-.665-.38-.6-.773a3.314,3.314,0,0,1,.529.2c-.386-.257-.773-.514-.548-.825.125.039.3.022.281.121.017-.583-.969-1.121-.494-1.7.9.3.33-.175,1.136-.108l-.2-.369-.406.086c.05-.294-.5-.628-.207-.851l.3.261-.084-.574-.341.276c-.376-.348-1.017-.089-.745-.456.071.091.045-.294.535-.393l0,0c-.235-.177-.486-.358-.263-.553.261-.028.881.147,1.054.13-.654-.222-.11-.717-.8-.98a2.01,2.01,0,0,0,.669.119l-.531-.181c.19-.119.276-.13.609-.069.145-.4-1.03.019-.54-.423.041.043.123.035.2.123.281-.469-.242-.989.073-1.412.823-.052.155.417.853.333-.078-.672-.836-1.451-.583-2.064l-.1.108c-1.131-.194.609-.417.1-.788a1.25,1.25,0,0,0,.5.13c.227-.417-.2-.913-.5-1.6l.287.106c.283-.233.207-.661.363-.926-.285-.106-.225-.259-.659-.2,1.745-.721-.775-1.688.676-2.341,0,.091.242.233.246.162l-.222-.665c-.5.017-.307.065-.7.173-.289-.1-.505-.3-.494-.458.309.311.8.052,1.086-.054-.155.011-.32-.043-.475-.043.9-.279-1-.123-.374-.542l.259.041c-.123-.179-.458-.358-.371-.54.581-.039.257.2.73.242-.017-.263-1.06-.579-.471-.779.153.119.147.279.3.4.693-.216.523-.257.643-.44l-.017.017.335-.423-.192.1c-1.481-.412-.238-.68-1.2-1.17.909.475.535.1,1.185.164.188-.1.4-.261.581-.205-.516-.233.434-.326-.322-.659.209,0,.032-.222.559-.149-.153-.281-.369.045-.633.011-.7-.449.913-.944-.045-1.587-.382-.533-1.095-.654-1.429-1.142a.9.9,0,0,1,.762.158c.32-.25.268-.449.035-.7a.981.981,0,0,0,.579-.06c-.05-.2-.762-.153-.445-.406a5.032,5.032,0,0,1,.84.222c-.188-.24-.574-.481-.758-.725.369-.056.553.158.79.25-.158-.276-.315-.715-.894-.81l-.212.171c-.026-.1.5-.041.6.035.449.242-.209.33-.421.339l-.132-.175c-1.239.147.181.691.1,1.036l-.9-.168.734.374c-.235.069-.738.1-.866-.069-.453.231.311.227-.19.423a.181.181,0,0,1-.158-.015l.261.248c-.188-.052-.637.019-.5-.123-.533.41.65.717-.037.853l-.054-.037c.276.609.656.082,1.41.564L29.5,4.326l.656.086c-.026.06-.08.181-.343.147.44.248.289-.026.708.125-.611.27.244.833-.81.849.494.132.4-.263.732.069-1.134.035.175.376-.356.622-.579-.114-.257-.354-.79-.11.976.214-.244.514-.067.751.784.054.3.514.535.911-.261-.039-.475.7-.779,1.032l-.132-.019c.786.121.618.477.76.756a1.41,1.41,0,0,1-.857-.261l-.013.25a.635.635,0,0,1,.456.333l-.587-.1c.009.335.648.721.22,1.121.551.067,1.561-.229,1.9.255-.3,0-.81-.026-.924-.153.037.041.238.158.106.227l-.488-.22c-.235.179.41.134.352.287-.423-.035-.311.093-.648.045-.037-.043.186-.123.024-.2a.948.948,0,0,1-.682.41c.242,0,.572.045.618.177,0,.337-.52.076-.756.253.289.1-.035.291.6.348-.011.1-.309.093-.484.117.266.194.013.812.7.674l.048-.041.026.03v0c.583.622-.453,1.147-.238,1.732l-.212-.019c.209.356.071.758.505,1.041-.011.1-.41.2-.659.13.134.272.369.324-.015.659-.345-.294-.337.058-.246-.289-.216.315-.564.354-.017.771-.531-.177-.708.179-.564.352l.415-.192a.673.673,0,0,1-.069.488l-.706-.16c-.941.583,1.345,1.384-.164,1.738.479.235.391-.328.957-.1-.13.3-1.19.512-1.2.609-.44.38,1,.518.674.933.261-.026.946,0,1.144.363-.132.3-1.114.255-1.293.035-.013-.078.073-.1.158-.091a.348.348,0,0,0-.462-.166l.248.071c-.279.123-.3.555-.708.4.214.263.4.151.557-.006-.417.354-.086.622-.384,1,.147-.048.453-.071.443-.006-.389.564.449.326.512.751-.417.184-.913-.2-.641.25-.3.216-.682-.035-.877-.162.438.438-.417.654-.535.855l-.179-.225a.354.354,0,0,1,.073.326l.525-.043c-.106.1-.121.2-.33.171.315.164.857.024,1.278.322-.279.119.212.507-.469.469.3-.453-.684-.041-.736-.464.069.089.054.186-.052.287a.2.2,0,0,1-.171-.071c-.667.378.732.317.65.795-.371-.114-.734.011-.665.1.035-.192.646,0,.911.216-.337.268.175.367.119.525l.164-.164c.369.117.3.263.386.5-.3-.024-.175-.225-.315-.166.628.337-.773.436-.376.833-.281.117-.715-.093-.909.017.434.445-.581.322-.235.773.527-.035.406-.073.859.279l-.259-.7.676.527c.037-.194-.257-.46-.151-.561.384.259.261.22.7.192-.805.149.365.6-.2.825l-1.259-.207c-.635.371.525.922.106,1.468l.253-.155c.486.162.006.38.175.607a1.893,1.893,0,0,0-.866.045c.313.043-.1.432.728.628l-.6.173c-.309.44,1.1.756.879,1.2-.432-.22-.764-.063-1.039-.43-.03.153-.132.279.16.333-.279.043.492.529.069.6.173.1.609.2.542.367a.658.658,0,0,1-.207-.039c.207.039.231.324.723.257-1.4.235-.16,1.352-1.36,1.555a4.123,4.123,0,0,1,.106,1.108c-.121-.043-.207-.041-.153-.091-.471.343,1.153.5.622.894-.728.108-.311-.328-.6-.227-1.388-.212.067.613-.8.771l-.065-.093c-.518.147.393.706.209,1.086a.786.786,0,0,0-.205-.045,2.109,2.109,0,0,1,.874,1.425c-.512-.238-.246-.238-.808-.283.041.19.885.14.965.52a2.781,2.781,0,0,1-1.218.145l.041-.333c-.786,0-.067.428-.24.568l-.322-.1c-.011.518.816.715.63,1.237l.261,0c.749.484-.518.138.022.572l-.849-.106a4.844,4.844,0,0,1,.717,1.25,4.61,4.61,0,0,1-1.095-1.162.744.744,0,0,0,.3.862c-.063-.1-.242-.244-.1-.289.6.391.844.779.741,1.157-1.585-.462-.661.89-1.976.846.419.818-.594,1.254-.7,2.051,1.313.06-.024.235,1.263.535.032.2-.011.266-.1.259l-.915.335c-.408.026-.231-.248-.523-.311-.209.365-.585.015-1,.177.471.076.613.32.376.492l.676-.149c.518.741-1.2.168-.691.911l-.35-.289c.155.35-.3,1.034.633,1.615-.162.006-.525-.032-.581-.184-.345.626.609,1.825-.177,2.153l-.291-.149c.05.153.51.4.151.46-.125-.05-.291-.149-.328-.1.086.1.434.505.2.613l-.3-.253c-.613.516.533,1.28.544,1.9a1.465,1.465,0,0,0-1.6.3l-.125-.054c-.374.706.3,1.531.4,2.36-1.112.08-.965,1.3-1.764,1.771a1,1,0,0,1,.723.443c-.242.091.438.691-.363.341l.039-.052c-.842-.194-.758.216-.881.464l1.041.473c-1.794.039-.192,1.982-1.708,1.762.192.272.1.469.294.743l-.555-.257a1.973,1.973,0,0,0-.609,1.166l-.345-.291c-.179.279,1.416,1.121,1.311,1.419l-.866-.307c-.246.535-1.22.71-.732,1.6-.114-.067-.343-.2-.335-.3-.143.238-1.013.672.145,1.153-.721-.361-.356.49-.188.939l-.51-.324c.553.594.734.7.741,1.131-.112.041-.46-.16-.27-.19-.417.108.391.475-.063.637l-.272-.3c-.188.246,0,.324.317.689.117.287-.412.436-.907.207.27.2.574.566.352.646a.62.62,0,0,1-.307-.261c-.592.244.216,1-.473,1.006a.969.969,0,0,0-.339-.134c.222-.335.421-.594.443-.546-.479-.276-.732-.054-1.259-.656.229.425.777,1.267.386,1.4a1.247,1.247,0,0,1-.186-.063l-.037-.06c-.084.032-.073.114-.026.216-.132.037-.222.056-.279.134-.41-.207-.4.184-.505.309.52.311.328.438.855.535-.05,0-.043-.065-.009-.171a.155.155,0,0,0-.017-.091l.039.037c.041-.1.1-.225.177-.365.194.27.345.523-.035.5.281.283.572.574.71.713-.836-.257-1.444-.138-1.913-.371.043.613-.453,1.073.317,1.976.041.2-.363-.05-.54-.108-.048-.132.022-.2-.091-.328.082.393-.378.745.235,1.259-.5.086-.486-.587-.659-.11l-.162-.194c-1.552.032.741,2.49-1.239,2.334a.5.5,0,0,1,.3.073c-1.3.5-1.043,2.418-2.731,2.522-.4.093-.045.464.1.883l-.525-.391.307.777c.054.771-1.727-.473-1.457.682l.367.257c-.225.1-.352.687-.672.294.039.076.259.384.037.279l-.24-.244-.011.814c-.484.119-.866-1.043-1.365-.667a2.045,2.045,0,0,0,.386,1.315c.082-.054.317-.009.551.244l-.045.285c.633.784,1.17,1.691,2.053,1.825l-.117-.734.421.274-.227.255c.445.212.266-.177.177-.475a1.079,1.079,0,0,0,.484.283l-.365-.976c.3.255.4.693.745.669-.171-.451-.73-.525-.71-.944.451.2.667.51.561.073a.683.683,0,0,1,.294.462c-.067-.363.3-.462,0-.913.54.266.384-.564,1.045.121a1.641,1.641,0,0,1-.192-.937c.594,1.039.51-.456,1.337.449-.577-.887.279-.98.153-1.684.043.071.134.216.069.212.229-.127.507.026.762.035-.613-.583-.5-1-.76-1.486.823.311.63.782,1.287,1.226-.529-.438-.162-.838-.669-1.131a1.992,1.992,0,0,1,.922.361c-.788-.71,0-.285-.384-.849.609.071.818.561.8.071.363.065.447.561.447.561m3.478-8.168.011.006c-.026.069-.048.13-.063.168l.052-.175m.367-.615a1.213,1.213,0,0,0-.184.253c-.192-.086-.363-.218-.317-.274.1.1.294.024.5.022m-4.37-.92c-.017-.136.1-.1.216-.052a.689.689,0,0,0-.035.2l.056.05a2.051,2.051,0,0,1-.238-.2" transform="translate(3.284 0.74)" fill="#f72"/>
      <path id="Tracé_983" data-name="Tracé 983" d="M7.04,34.135c0,.019.019.041.015.06l.149.017-.143-.132Z" transform="translate(8.161 39.506)" fill="#f72"/>
      <path id="Tracé_984" data-name="Tracé 984" d="M15.03,6.418l-.015.013a.344.344,0,0,1,.089-.024c-.03,0-.05.009-.073.011" transform="translate(17.405 7.427)" fill="#f72"/>
      <path id="Tracé_985" data-name="Tracé 985" d="M11.42,30.434l-.14-.06.1.112Z" transform="translate(13.075 35.209)" fill="#f72"/>
      <path id="Tracé_986" data-name="Tracé 986" d="M16.119,4.725a.4.4,0,0,0,.158-.041.586.586,0,0,0-.158.041" transform="translate(18.685 5.43)" fill="#f72"/>
      <path id="Tracé_987" data-name="Tracé 987" d="M16.23,4.054l.231-.225a.9.9,0,0,0-.231.225" transform="translate(18.813 4.439)" fill="#f72"/>
      <path id="Tracé_988" data-name="Tracé 988" d="M16.544,3.366l-.259-.039,0,0Z" transform="translate(18.873 3.857)" fill="#f72"/>
      <path id="Tracé_989" data-name="Tracé 989" d="M15.8,12.839a.092.092,0,0,0,.019.054c.1.132.067.048-.019-.054" transform="translate(18.313 14.883)" fill="#f72"/>
      <path id="Tracé_990" data-name="Tracé 990" d="M15.513,9.951a1.684,1.684,0,0,1,.261.227c.058-.1.082-.184-.261-.227" transform="translate(17.982 11.535)" fill="#f72"/>
      <path id="Tracé_991" data-name="Tracé 991" d="M15.634,16.027l-.011,0-.006.041Z" transform="translate(18.103 18.577)" fill="#f72"/>
      <path id="Tracé_992" data-name="Tracé 992" d="M15.632,10.337a.169.169,0,0,0,.045-.281c-.052.084-.125.181-.045.281" transform="translate(18.079 11.657)" fill="#f72"/>
      <path id="Tracé_993" data-name="Tracé 993" d="M16.669.794,16.7.732a.578.578,0,0,1-.1-.009Z" transform="translate(19.24 0.839)" fill="#f72"/>
      <path id="Tracé_994" data-name="Tracé 994" d="M16.636.761,16.565.69c0,.032,0,.06.071.071" transform="translate(19.202 0.8)" fill="#f72"/>
      <path id="Tracé_995" data-name="Tracé 995" d="M16.5.621l.151.149c0-.05.022-.112-.151-.149" transform="translate(19.122 0.72)" fill="#f72"/>
      <path id="Tracé_996" data-name="Tracé 996" d="M16.479,1.546l.22.026a1.423,1.423,0,0,0-.22-.026" transform="translate(19.102 1.793)" fill="#f72"/>
      <path id="Tracé_997" data-name="Tracé 997" d="M16.55,2.053c.054-.123.479-.3.348-.473l-.175-.022c.326.093-.54.365-.173.494" transform="translate(19.077 1.808)" fill="#f72"/>
      <path id="Tracé_998" data-name="Tracé 998" d="M15.541,2.985l.194-.421c-.238.065-.557.149-.6-.05-.721.507.529-.086.41.471" transform="translate(17.278 2.915)" fill="#f72"/>
      <path id="Tracé_999" data-name="Tracé 999" d="M15.265,3.4c-.1-.235-.341-.015-.473-.035.207.158.259.194.473.035" transform="translate(17.147 3.812)" fill="#f72"/>
      <path id="Tracé_1000" data-name="Tracé 1000" d="M14.967,7.818l-.548-.076c.063.184.214.022.548.076" transform="translate(16.714 8.975)" fill="#f72"/>
      <path id="Tracé_1001" data-name="Tracé 1001" d="M15.975,8.91l.361-.138-.494-.136Z" transform="translate(18.362 10.01)" fill="#f72"/>
      <path id="Tracé_1002" data-name="Tracé 1002" d="M14.075,9.116,14,9.029l.168.315Z" transform="translate(16.233 10.467)" fill="#f72"/>
      <path id="Tracé_1003" data-name="Tracé 1003" d="M13.048,16.5l.678.073c-.1-.14-.844-.307-.678-.073" transform="translate(15.097 18.991)" fill="#f72"/>
      <path id="Tracé_1004" data-name="Tracé 1004" d="M12.926,19.646c-.348,0-.607.136-.309.33.082-.14.376-.233.309-.33" transform="translate(14.474 22.774)" fill="#f72"/>
      <path id="Tracé_1005" data-name="Tracé 1005" d="M9.448,28.74l-.16-.214.078.311Z" transform="translate(10.767 33.068)" fill="#f72"/>
      <path id="Tracé_1006" data-name="Tracé 1006" d="M14.543,37.278c.024-.015.009-.009-.052.037l-.039.039Z" transform="translate(16.752 43.204)" fill="#f72"/>
      <path id="Tracé_1007" data-name="Tracé 1007" d="M14.346,37.49c-.069.058-.132.151-.067.151.052-.086.076-.089.134-.173.063-.045.114-.067.108-.054l.125-.1a1.461,1.461,0,0,0-.294.194c-.026.011-.006-.022-.006-.022" transform="translate(16.52 43.258)" fill="#f72"/>
      <path id="Tracé_1008" data-name="Tracé 1008" d="M11.131,38.608l.063.028a.1.1,0,0,0-.063-.028" transform="translate(12.903 44.754)" fill="#f72"/>
      <path id="Tracé_1009" data-name="Tracé 1009" d="M9.1,39.134c.028-.022.028-.076.015-.123a.127.127,0,0,0-.015.123" transform="translate(10.536 45.221)" fill="#f72"/>
      <path id="Tracé_1010" data-name="Tracé 1010" d="M8.67,38.887l.054.028c-.03-.048-.056-.071-.054-.028" transform="translate(10.05 45.051)" fill="#f72"/>
      <path id="Tracé_1011" data-name="Tracé 1011" d="M11.218,38.652l-.162-.082c.041.125.1.076.162.082" transform="translate(12.816 44.71)" fill="#f72"/>
      <path id="Tracé_1012" data-name="Tracé 1012" d="M13.945,37.765a.253.253,0,0,0,.041-.065l-.045.048Z" transform="translate(16.16 43.701)" fill="#f72"/>
      <path id="Tracé_1013" data-name="Tracé 1013" d="M11.953,38.269l.035-.011-.024-.13Z" transform="translate(13.856 44.199)" fill="#f72"/>
      <path id="Tracé_1014" data-name="Tracé 1014" d="M12.622,37.954c-.037,0,.043.2.071.291-.019-.086-.013-.134.006-.16a.707.707,0,0,0-.078-.132" transform="translate(14.62 43.996)" fill="#f72"/>
      <path id="Tracé_1015" data-name="Tracé 1015" d="M13.721,37.672l.032-.03Z" transform="translate(15.905 43.634)" fill="#f72"/>
      <path id="Tracé_1016" data-name="Tracé 1016" d="M11.488,38.367l-.056-.1a.493.493,0,0,0,.056.1" transform="translate(13.252 44.36)" fill="#f72"/>
      <path id="Tracé_1017" data-name="Tracé 1017" d="M.061,30.234l.017-.006c-.011,0-.017-.006-.017.006" transform="translate(0.071 35.036)" fill="#f72"/>
      <path id="Tracé_1018" data-name="Tracé 1018" d="M0,29.379l.009.024,0,0Z" transform="translate(0.001 34.056)" fill="#f72"/>
      <path id="Tracé_1019" data-name="Tracé 1019" d="M7.965,38.726l.009.009c.022-.06,0-.05-.009-.009" transform="translate(9.233 44.852)" fill="#f72"/>
      <path id="Tracé_1020" data-name="Tracé 1020" d="M4.386,39.3c-.475.484-.63.41-1.155.976A11.824,11.824,0,0,0,4.386,39.3" transform="translate(3.745 45.559)" fill="#f72"/>
      <path id="Tracé_1021" data-name="Tracé 1021" d="M13.952,37.737l-.05.039a.208.208,0,0,0,.05-.039" transform="translate(16.115 43.744)" fill="#f72"/>
      <path id="Tracé_1022" data-name="Tracé 1022" d="M3.26,39.755l0,0-.05.058.054-.063" transform="translate(3.716 46.084)" fill="#f72"/>
      <path id="Tracé_1023" data-name="Tracé 1023" d="M6.562,39.083a2.461,2.461,0,0,0,.08.235,1.188,1.188,0,0,0-.08-.235" transform="translate(7.607 45.305)" fill="#f72"/>
      <path id="Tracé_1024" data-name="Tracé 1024" d="M7.759,39.276l-.076-.056c.035.041.058.054.076.056" transform="translate(8.906 45.463)" fill="#f72"/>
      <path id="Tracé_1025" data-name="Tracé 1025" d="M6.124,39.57c-.039-.039-.065-.114-.093-.035l.024.069c0-.08.017-.119.069-.035" transform="translate(6.991 45.789)" fill="#f72"/>
      <path id="Tracé_1026" data-name="Tracé 1026" d="M5.487,39.616l.041.112.037-.037Z" transform="translate(6.36 45.922)" fill="#f72"/>
      <path id="Tracé_1027" data-name="Tracé 1027" d="M.333,32.154a1.435,1.435,0,0,1,.222-.132c-.181.076-.27-.1-.222.132" transform="translate(0.371 37.12)" fill="#f72"/>
      <path id="Tracé_1028" data-name="Tracé 1028" d="M13.939,37.711a.062.062,0,0,1-.013.056l.032-.03c0-.015-.009-.026-.019-.026" transform="translate(16.143 43.714)" fill="#f72"/>
      <path id="Tracé_1029" data-name="Tracé 1029" d="M6.547,41.619l-.231-.037a.322.322,0,0,0,.231.037" transform="translate(7.321 48.201)" fill="#f72"/>
      <path id="Tracé_1030" data-name="Tracé 1030" d="M1.077,36.393l-.067-.032c-.009.022.006.035.067.032" transform="translate(1.168 42.149)" fill="#f72"/>
      <path id="Tracé_1031" data-name="Tracé 1031" d="M6.128,41.884a1.326,1.326,0,0,0-.186-.371c0,.045,0,.084,0,.153Z" transform="translate(6.886 48.121)" fill="#f72"/>
      <path id="Tracé_1032" data-name="Tracé 1032" d="M.431,32.021h0Z" transform="translate(0.497 37.119)" fill="#f72"/>
      <path id="Tracé_1033" data-name="Tracé 1033" d="M.2,33.879c.011.2.276.009.44,0,.119.212-.19.175-.324.3.089.125.376.155.384.268-.05.024-.065.052-.13.045.268.08.076.462.434.542a.358.358,0,0,1-.078.05,2.376,2.376,0,0,1,.453-.171c.026.086.257.1.041.2-.006-.054-.1-.032-.173-.035l.117.06c-.307.184-.138-.091-.374-.017.132.149.456.272.391.438-.33.13-.173-.289-.434-.015l.089-.253c-.481.32.017-.143-.5.175-.067.317.205.27.14.583.2.006.283-.106.486-.1.443.287-.851.585-.322.734.259,0,.747-.11.531.173l-.445.058c-.006.285.659-.032.41.341-.188,0-.186-.171-.231-.114-.326.289.274.056.3.2l-.4.149c.1.274.466.5.613.8a.649.649,0,0,0-.4.117c.289.341.093.879-.147,1.349l.443.032c0,.037-.179.117-.268.1-.134.2.27-.065.449-.039.045.078-.225.181-.361.162.4.168.937.54.505.95L1.7,40.937c-.151.27.974,0,.589.313L2.2,41.233c-.121.529.44.933-.24,1.483.723-.112-.242.548.767.326-.449.4-.643.363-.928.827-.032.112.669-.006.8.091l-.546.136.607.03-.641.25.16.082a.785.785,0,0,1,.393-.19c.285.123-.313.54-.6.611l.544.322a1.038,1.038,0,0,1-.473-.035c.613.1-.594.181-.028.268a2.1,2.1,0,0,1,.458-.084c-.326.186-.294.425-.117.568l-.406.056c-.054.343.3.63.341.991a1.418,1.418,0,0,1,.974-.2l-.622.177c.4-.015.218-.162.719-.123-.05.151-.7.242-.92.209l.244.117c-.19.05-.294.032-.538.073.406-.015-.6.412.1.365l-.188.05c.041.356.291.473.369.756.561-.1.458.032.926.032-.149.248-.566.57-.481.816.311.127.494-.037.846-.015-.52.108-.434.354-.829.289.127.291.16.371.65.689a1.413,1.413,0,0,1,.481-.147c.1.056-.2.2-.453.231l-.058-.011c.436.192.058.386-.238.849-.3.479-.529,1.047.037,1.172l-.056-.015a4.682,4.682,0,0,0,.626.386c-.065.335-.41.022-.715.408.931.214.013,1.216.648,1.369-.715.838-.626,1.278-.477,1.617a3.333,3.333,0,0,1,.268,1.1l.272-.4c.464-.412.022.218.084.3.207-.315.089-.352.35-.581a2.736,2.736,0,0,1,1.98.006,11.743,11.743,0,0,0,2.049.607c.585.052.4-2.008.974-1.162l-.149.732c.583-.5.8-.525,1.118-.546a.905.905,0,0,0,.866-.421c-.013.166.013.374-.045.38.192.486.466-.045.41-.453.1.035.073.367.158.566.171.276.22-.7.358-.212a.341.341,0,0,1-.028.212c.045-.257.386-.015.222-.572.261.229.376-.337.6-.035.009-.654.425.227.309-.672.14.924.512.659.57.2,0,.285.171.259.186.652.158-.048.27-.246.155-.7.5,1.017.406-1,.838.326a5.338,5.338,0,0,1,1.086-1.332c.175.862-.434.205-.22,1.108.317-.469.374-1.257.805-1.149.127.086.028.378.028.533.307-.456.764-.164,1-.717a.547.547,0,0,1-.015.244c.06-.048.186.069.084-.3l-.039.119c-.242-.505-.017-1.2-.08-1.475.158,1.08.4.166.566,1.535a.96.96,0,0,0-.037-.512c.084.052.14.186.147.481.188-.276,0-.628.22-.689a4.219,4.219,0,0,1,.052.464c.019-.376.039-.741.261-.654.017.106.076.233.019.248.3-.164.285-1.054.715-.855.106.745.184.194.38.8l.13-.248-.16-.268c.164-.048.173-.533.369-.384l-.043.287.263-.22-.238-.164c.069-.358-.246-.743.017-.646-.026.071.162-.043.352.27l0,0c.022-.212.043-.425.2-.328.089.171.177.639.235.751-.076-.5.326-.279.261-.81a1.93,1.93,0,0,0,.13.475l-.058-.4c.112.091.143.145.205.378.242-.017-.3-.667.06-.466-.011.037.017.089-.006.16.313.052.428-.419.728-.337.25.492-.166.214.069.622.311-.246.494-.913.864-.937l-.08-.028c-.2-.7.367.231.417-.162a.892.892,0,0,0,.067.313c.263,0,.4-.374.663-.713l.019.177c.188.082.376-.086.544-.086-.019-.171.071-.186-.065-.378.764.6.659-.8,1.306-.354-.045.026-.06.171-.024.151l.27-.294c-.117-.192-.1-.1-.235-.229a.319.319,0,0,1,.121-.317c-.089.2.143.326.255.4-.039-.056-.045-.134-.08-.194.324.266-.145-.41.19-.283l.032.106c.065-.1.086-.261.194-.274.134.192-.05.143.026.322.123-.084.08-.52.291-.374-.03.084-.11.123-.14.207.24.177.225.106.337.093h-.011l.263-.024-.084-.028c-.069-.583.283-.276.358-.691-.08.389.043.181.119.382.08.024.192.032.194.1.028-.212.218,0,.257-.3.032.052.108-.063.153.089.106-.127-.076-.073-.1-.151.114-.291.559-.11.732-.512.205-.238.188-.384.393-.566.106.006,0,.155,0,.155a.559.559,0,0,0,.337-.2c-.011.039.024.045.076.052.086-.071.011-.134.153-.177a.63.63,0,0,1-.037.16,3.757,3.757,0,0,1,.276-.309c.048.009-.039.1-.063.149a2.264,2.264,0,0,0,.315-.333l-.089.041c.045-.032.043.017.013.048-.084.112-.16.1-.177.08l.073-.065c-.143-.052-.32.216-.481.324l.011-.149-.121.192c-.052-.011-.117-.069-.041-.13-.158,0-.084.1-.229.082-.017-.006-.017-.015-.009-.026l-.1.1c.006-.043-.076-.093.011-.106-.266.011-.294.279-.44.192l.013-.019c-.274.194.035.136-.108.41l-.33-.276.045.16c-.035.009-.1.026-.121-.041-.065.158.052.058.035.188-.222-.071-.376.276-.548.011.013.16.2.039.08.205-.2-.289-.16.138-.369.056-.039-.192.138-.153-.076-.248.054.326-.307.043-.4.143.112.25-.207.212-.367.376-.028-.1-.447-.009-.682-.054l-.017-.054c.1.317-.119.335-.229.453a.492.492,0,0,1-.05-.393l-.132.045a.273.273,0,0,1-.073.255L25.7,48.4c-.173.067-.227.421-.531.315.093.263.473.628.307.9-.065-.134-.173-.369-.134-.447-.013.024-.026.143-.091.1l0-.27c-.147-.065.026.214-.065.225-.08-.2-.119-.121-.175-.283.015-.028.108.056.106-.032a.525.525,0,0,1-.371-.229c.056.114.112.274.056.324-.171.076-.162-.227-.311-.3.017.158-.158.041-.032.361-.052.015-.123-.132-.177-.212-.035.171-.412.175-.168.5l.032.015-.009.019c-.168.449-.7.011-.944.255l-.045-.123c-.127.2-.367.209-.393.527-.054.019-.209-.192-.244-.354-.1.138-.063.3-.337.138.054-.272-.121-.19.08-.212-.218-.058-.337-.272-.4.149-.054-.363-.287-.406-.337-.281l.214.22a.308.308,0,0,1-.268.06l-.114-.481c-.564-.5-.326,1.168-.933.242.017.371.279.194.324.62-.19-.015-.6-.7-.65-.687-.317-.231.022.795-.283.659.089.179.272.663.145.89-.19-.019-.449-.736-.389-.913.035-.024.073.032.091.1a.314.314,0,0,0-.048-.365l.035.192c-.143-.173-.367-.1-.408-.425a.312.312,0,0,0,.164.4c-.3-.229-.341.069-.618-.071.067.1.166.322.13.328-.4-.166-.035.4-.233.548-.212-.272-.16-.734-.311-.428a.927.927,0,0,1-.171-.7c-.093.43-.447-.177-.583-.235l.063-.181c-.039.108-.091.112-.145.119l.173.4c-.082-.06-.136-.054-.181-.225a6.6,6.6,0,0,1,.205,1.067c-.14-.194-.2.279-.371-.27.313.138-.177-.551.024-.676-.026.071-.08.078-.162.015a.24.24,0,0,1-.013-.151c-.382-.458.05.646-.214.682-.05-.322-.216-.589-.24-.514.106-.011.186.518.151.782-.231-.216-.136.22-.231.209l.13.1c.048.328-.048.3-.14.432-.071-.25.063-.2-.006-.3.011.6-.438-.529-.525-.108-.136-.205-.155-.613-.263-.749-.1.466-.324-.415-.453-.03a1.01,1.01,0,0,1,.1.788l.279-.371-.076.687c.11-.013.16-.32.242-.259a.877.877,0,0,0,.1.63c-.3-.637-.2.447-.475.026l-.246-1.116c-.363-.462-.32.646-.71.419l.149.181c.052.46-.19.1-.257.3a2.864,2.864,0,0,0-.259-.745c.063.285-.244.011-.119.79l-.248-.486c-.3-.171-.082,1.17-.367,1.077,0-.44-.173-.7-.058-1.03-.086.006-.177-.056-.127.216-.1-.24-.138.566-.285.2,0,.179.058.6-.045.579a1.256,1.256,0,0,1-.035-.2c.037.2-.1.289.06.719-.484-1.209-.732.207-1.138-.842a1.669,1.669,0,0,1-.535.384c-.006-.125-.028-.205.009-.168-.287-.348.028,1.2-.3.81-.231-.652.091-.376-.03-.62-.227-1.354-.3.218-.583-.557l.032-.084c-.2-.451-.266.551-.5.477a1.353,1.353,0,0,0-.024-.207,1.788,1.788,0,0,1-.531,1.2,2.169,2.169,0,0,0-.035-.842c-.086.089.123.879-.05,1.054a3.551,3.551,0,0,1-.246-1.123l.106-.048c-.106-.756-.125.045-.194-.08l.006-.337c-.106.119-.188.976-.393.928l-.019.257c-.287.859-.006-.473-.263.171l.184-.866a3.785,3.785,0,0,1-.738,1.034c.369-.656.618-1,.788-1.386-.045,0-.177.076-.389.512.063-.086.171-.3.143-.171-.317.693-.626,1.045-.8,1.041.92-1.717-.175-.4.663-1.747-.68.708.069-.4-.019-.382-1.125,1.134-.037-.013-1.2,1.058-.08,0-.065-.05.011-.119a9.085,9.085,0,0,1,.687-.734c.341-.283.266-.158.529-.367A6.147,6.147,0,0,1,9,50.062c-.425.3-.613.4-.451.276-.184.123-.367.255-.548.4-.65.268,1-.672.352-.369l.386-.175a8.89,8.89,0,0,1-1.013.192,3.793,3.793,0,0,1,.579-.151c.179.052-1.19-.52-.618-.866l.315-.019c-.106-.063-.609-.035-.317-.181.13-.017.315-.022.326-.06-.117-.022-.583-.108-.423-.24l.363.026c.313-.469-.967-.458-1.242-.745.892-.166,1.112-.533,1.216-.717l.127-.017c-.011-.479-.926-.63-1.367-.976.864-.456.173-.965.551-1.49a1.306,1.306,0,0,1-.754.08c.138-.134-.648-.136.112-.294l0,.039c.719-.242.46-.4.434-.557l-.982.2c1.283-.734-.81-.939.348-1.453-.268-.041-.3-.16-.566-.2l.494-.114a.815.815,0,0,0-.184-.749l.367-.019c-.039-.194-1.457.112-1.535-.052l.687-.233c-.114-.322.363-.805-.369-.961.1-.022.3-.063.345-.017-.039-.158.214-.7-.659-.408.581-.16-.069-.345-.376-.453l.428-.086c-.587,0-.73.035-.946-.132.039-.063.313-.132.231-.039.158-.22-.428-.019-.279-.274h.283c-.028-.173-.162-.123-.488-.132-.192-.06,0-.343.335-.464-.222.037-.538.026-.471-.1a.475.475,0,0,1,.266-.032c.153-.348-.581-.287-.283-.581a.621.621,0,0,0,.205-.1c.073.222.119.4.084.4.35-.1.335-.291.87-.287-.328-.065-.972-.149-.881-.367l.106-.054.043.006c.017-.05-.028-.076-.1-.093.032-.069.056-.117.039-.171.259-.1.058-.242.032-.333-.343.108-.333-.022-.574.168.019-.022.048,0,.084.058a.119.119,0,0,0,.052.028l-.035,0c.03.056.067.13.108.212-.207-.017-.382-.048-.225-.2-.24.015-.486.032-.6.039.443-.261.6-.566.868-.68-.3-.212-.4-.587-1.032-.585-.1-.054.13-.136.207-.192.073.028.086.082.179.082-.209-.108-.242-.432-.635-.354.1-.242.391,0,.222-.24h.127c.309-.674-1.2-.572-.758-1.349-.022.052-.032.078-.078.1-.028-.725-.715-1.283-.693-2.015-.03-.194-.155-.177-.283-.261l.121-.082L.9,31.51c-.19-.24.071-.551-.257-.827l-.037.06c-.045-.123-.192-.374-.134-.369-.015-.011-.06-.026-.06-.08l.028-.015L.261,30c-.091-.233.1.009-.084-.317A2.64,2.64,0,0,1,0,29.388c.022.05.052.134.052.134l-.045-.117c-.019-.017-.011-.121.013.194l.045.209-.011.076L.037,29.7a.565.565,0,0,0,.037.238.271.271,0,0,0-.019.1,1.371,1.371,0,0,0,.089.19c-.028.035-.065-.078-.071.071.048.089.056-.117.106.037-.022.114-.067.1-.011.205-.026.026-.045.006-.06-.039.041.1.039.283.114.315-.063.134.073.354-.073.391a.58.58,0,0,1,.171.242c-.227-.11.045.369-.2.4.222.065.14.453.309.643C.4,32.493.356,32.48.365,32.456c0,.138-.078.2-.123.3.225-.054.309.134.484.194-.214.235-.307-.006-.52.117.192-.071.229.218.4.108-.132.171-.056.127-.266.261.337-.084.071.1.3.132-.143.231-.324.151-.188.313-.1.127-.246-.006-.246-.006m1.542,4.37-.009,0-.039-.089c.009.017.022.043.048.086m.082.382a.483.483,0,0,0-.019-.171c.125-.05.259-.073.261-.032-.089,0-.145.114-.242.2m2.263-1.514c.076.043.013.082-.056.112a.5.5,0,0,0-.084-.091l-.045.006a1.447,1.447,0,0,1,.186-.028" transform="translate(0 34.051)" fill="#f72"/>
      <path id="Tracé_1034" data-name="Tracé 1034" d="M1.714,32.983c-.011-.006-.028-.006-.035-.017l-.065.058.117-.011Z" transform="translate(1.872 38.214)" fill="#f72"/>
      <path id="Tracé_1035" data-name="Tracé 1035" d="M11.171,38.626l-.011,0a.332.332,0,0,1,.035.039Z" transform="translate(12.936 44.77)" fill="#f72"/>
      <path id="Tracé_1036" data-name="Tracé 1036" d="M.892,36.228l.125-.03L.9,36.191Z" transform="translate(1.034 41.952)" fill="#f72"/>
      <path id="Tracé_1037" data-name="Tracé 1037" d="M12.269,38.677a.137.137,0,0,0,.052.048.162.162,0,0,0-.052-.048" transform="translate(14.222 44.834)" fill="#f72"/>
      <path id="Tracé_1038" data-name="Tracé 1038" d="M12.663,38.493l.149.006a.529.529,0,0,0-.149-.006" transform="translate(14.679 44.618)" fill="#f72"/>
      <path id="Tracé_1039" data-name="Tracé 1039" d="M12.988,38.411c-.011-.035-.017-.06-.026-.084v0Z" transform="translate(15.025 44.426)" fill="#f72"/>
      <path id="Tracé_1040" data-name="Tracé 1040" d="M8.156,40.815a.077.077,0,0,0-.022.032c-.039.119-.006.065.022-.032" transform="translate(9.409 47.312)" fill="#f72"/>
      <path id="Tracé_1041" data-name="Tracé 1041" d="M9.537,39.792a1.145,1.145,0,0,1-.041.242c.069.013.117.006.041-.242" transform="translate(11.008 46.127)" fill="#f72"/>
      <path id="Tracé_1042" data-name="Tracé 1042" d="M6.449,41.607l0-.011-.024.006Z" transform="translate(7.446 48.218)" fill="#f72"/>
      <path id="Tracé_1043" data-name="Tracé 1043" d="M9.425,39.958c.084.067.127.032.153-.045-.056-.013-.125-.039-.153.045" transform="translate(10.925 46.25)" fill="#f72"/>
      <path id="Tracé_1044" data-name="Tracé 1044" d="M14.179,37.559l.028-.022v-.009Z" transform="translate(16.436 43.503)" fill="#f72"/>
      <path id="Tracé_1045" data-name="Tracé 1045" d="M14.192,37.545l.028-.03a.219.219,0,0,0-.028.03" transform="translate(16.451 43.487)" fill="#f72"/>
      <path id="Tracé_1046" data-name="Tracé 1046" d="M14.263,37.488l-.058.06a.193.193,0,0,0,.058-.06" transform="translate(16.466 43.456)" fill="#f72"/>
      <path id="Tracé_1047" data-name="Tracé 1047" d="M13.818,37.8l.009.039a.158.158,0,0,0-.009-.039" transform="translate(16.018 43.821)" fill="#f72"/>
      <path id="Tracé_1048" data-name="Tracé 1048" d="M13.71,37.961c.063-.03.181-.028.248-.11l-.006-.03c-.009.078-.218.043-.242.14" transform="translate(15.892 43.842)" fill="#f72"/>
      <path id="Tracé_1049" data-name="Tracé 1049" d="M13.084,38l.244-.05c-.067-.039-.158-.1-.06-.147-.369-.065.121.1-.184.2" transform="translate(15.167 43.803)" fill="#f72"/>
      <path id="Tracé_1050" data-name="Tracé 1050" d="M12.791,38.041c.106-.078-.05-.1-.063-.147-.048.093-.058.117.063.147" transform="translate(14.715 43.926)" fill="#f72"/>
      <path id="Tracé_1051" data-name="Tracé 1051" d="M10.449,38.909l-.108-.339c-.078.073.045.13.108.339" transform="translate(11.959 44.71)" fill="#f72"/>
      <path id="Tracé_1052" data-name="Tracé 1052" d="M10.219,39.807l.168.188-.069-.348Z" transform="translate(11.845 45.959)" fill="#f72"/>
      <path id="Tracé_1053" data-name="Tracé 1053" d="M9.59,38.62l.024-.063L9.5,38.73Z" transform="translate(11.011 44.695)" fill="#f72"/>
      <path id="Tracé_1054" data-name="Tracé 1054" d="M5.553,39.385l.134.641c.045-.125-.058-.851-.134-.641" transform="translate(6.437 45.611)" fill="#f72"/>
      <path id="Tracé_1055" data-name="Tracé 1055" d="M4.067,40.064c.026-.343.032-.561-.071-.22.03.045.03.311.071.22" transform="translate(4.632 45.988)" fill="#f72"/>
      <path id="Tracé_1056" data-name="Tracé 1056" d="M3.113,36.215l.218.032-.207-.108Z" transform="translate(3.608 41.892)" fill="#f72"/>
    </g>
  </g>
</svg>
