<svg xmlns="http://www.w3.org/2000/svg" xmlns:xlink="http://www.w3.org/1999/xlink" width="56" height="56" viewBox="0 0 56 56">
  <defs>
    <clipPath id="clip-path">
      <rect id="Rectangle_60" data-name="Rectangle 60" width="56" height="56" fill="#fff"/>
    </clipPath>
  </defs>
  <g id="Logo_AXA" data-name="Logo AXA" clip-path="url(#clip-path)">
    <path id="Tracé_1068" data-name="Tracé 1068" d="M56,0H0V56H56Z" fill="#00008f"/>
    <path id="Tracé_1069" data-name="Tracé 1069" d="M34.7,27.656,56,0H52.854L31.486,27.656Z" fill="#ff1721"/>
    <path id="Tracé_1070" data-name="Tracé 1070" d="M42.79,40c.976,2.731,2.987,9.837,3.787,10.4H41.3a8.806,8.806,0,0,0-.248-1.864c-.228-.812-2.138-6.957-2.138-6.957H30.524L29.2,43.449s1.584,4.958,1.682,5.2c.171.438.927,1.75.927,1.75h-5.06s-.131-.757-.18-1.073c-.04-.255-.479-1.65-.479-1.65a15.017,15.017,0,0,0-1.459,1.84c-.316.582-.455.883-.455.883H20.22s-.132-.757-.181-1.073c-.038-.255-.523-1.761-.523-1.761a20,20,0,0,0-1.424,1.927c-.313.583-.449.907-.449.907H13.729s1.106-1.053,1.493-1.506c.652-.767,3.082-3.942,3.082-3.942l-.974-3.372H9.006S4.26,47.816,4.073,48.009a18.976,18.976,0,0,0-1.6,2.391H0V48.83a1.188,1.188,0,0,1,.1-.095C.174,48.679,3.7,44.308,6.931,40c2.907-3.759,5.635-7.415,5.875-7.763a24.359,24.359,0,0,0,1.415-2.66h4.3a19.256,19.256,0,0,0,.259,2.079c.112.359,2.734,8.961,2.8,9.054l1.45-1.854-2.478-7.628a13.589,13.589,0,0,0-.77-1.65h5.027a4.38,4.38,0,0,0,.164,1.367c.2.629,1.282,4.517,1.282,4.517s3.428-4.3,3.629-4.606a2.786,2.786,0,0,0,.424-1.278h4.188a13.059,13.059,0,0,0-2.111,2.26c-.451.572-4.874,6.193-4.874,6.193s.386,1.316.574,1.971c.051.188.087.315.087.329s.1-.114.265-.329c1.141-1.446,6.332-8.252,6.646-8.835a12.967,12.967,0,0,0,.846-1.589h4.086a10.524,10.524,0,0,0,.219,1.558Zm-6.218-6.443a55.359,55.359,0,0,1-4.132,5.59h5.593s-1.084-3.339-1.273-4.091a5.974,5.974,0,0,1-.11-1.462C36.65,33.522,36.637,33.411,36.572,33.554Zm-21.489,0a55.345,55.345,0,0,1-4.131,5.59h5.593s-1.083-3.339-1.272-4.091a5.969,5.969,0,0,1-.11-1.462c0-.069-.013-.179-.079-.037ZM23.5,46.59l1.539-2.114c-.142-.152-1.009-2.782-1.009-2.782l-1.489,1.931Z" fill="#fff"/>
  </g>
</svg>
