<svg xmlns="http://www.w3.org/2000/svg" width="131.025" height="28.804" viewBox="0 0 131.025 28.804">
  <g id="Layer_x0020_1" transform="translate(-0.038 -0.034)">
    <g id="_218150328" transform="translate(0.038 0.034)">
      <path id="_217143760" d="M127.463,5.278c-7.355,0-11.268,4.125-11.42,9.472A11.754,11.754,0,0,0,104.25,5.135a11.563,11.563,0,0,0-11.6,9.532,9.4,9.4,0,0,0-9.2-9.522A8.159,8.159,0,0,0,77.658,7.53V.073H72.126V16.68a15.39,15.39,0,0,1-.1,1.7c-.336,3.45-2.658,5.152-5.185,5.152-2.627,0-5-1.242-5.07-5.133-.012-.672-.031-.951-.031-1.428V10.758h8.612V5.537H61.742V.073H56.133V14.695A11.841,11.841,0,0,0,35.325,9.519V5.279H34.71c-7.226,0-11.13,3.982-11.409,9.191A11.15,11.15,0,0,0,12.358,5.279,9.386,9.386,0,0,0,5.451,8.091V.034H.038v14c0,1.034.03,2.008.043,2.941.078,6.479,4.611,11.794,11.633,11.794a11.456,11.456,0,0,0,11.57-9.2v8.645h5.548V17.427c0-.492.028-1.038.043-1.543.1-3.289,2.257-5.248,5.681-5.3a11.838,11.838,0,1,0,21.576,8.683v.015c0,5.685,4.565,9.562,10.064,9.562a8.149,8.149,0,0,0,5.928-2.618v1.995h5.532V16.47c0-.279.013-.5.02-.721.14-3.768,2.349-5.408,4.775-5.408,2.405,0,4.486,1.646,4.569,5.389.019.325.023.543.023.909V28.217l5.607,0V19.434a11.426,11.426,0,0,0,11.6,9.335c6.506,0,10.181-4.164,11.166-8.518h-5.425a5.994,5.994,0,0,1-5.744,3.925,6.33,6.33,0,0,1-6.239-5.423h18.025v9.466h5.548V17.427c0-.492.028-1.038.046-1.543.1-3.339,2.318-5.311,5.833-5.311h.615V5.279h-.614ZM11.714,23.445a6.467,6.467,0,0,1,0-12.933,6.37,6.37,0,0,1,6.467,6.466A6.381,6.381,0,0,1,11.714,23.445Zm32.8,0a6.467,6.467,0,0,1,0-12.933,6.369,6.369,0,0,1,6.467,6.466,6.381,6.381,0,0,1-6.467,6.467Zm53.74-9.065a6.226,6.226,0,0,1,12.005,0H98.255Z" transform="translate(-0.038 -0.034)" fill="#005cab" fill-rule="evenodd"/>
      <path id="_217147792" d="M2.526,3.249A2.779,2.779,0,1,0,5.3.491,2.761,2.761,0,0,0,2.526,3.249Zm.363,0A2.416,2.416,0,1,1,5.3,5.665,2.419,2.419,0,0,1,2.889,3.249Z" transform="translate(122.941 22.535)" fill="#005cab" fill-rule="evenodd"/>
      <path id="_217148272" d="M3,.889H4.12c.443,0,.6.206.6.58s-.156.611-.6.611H3V.889Zm0,1.56H4.1c.347,0,.491.215.526.592.011.11.029.249.04.383a3.163,3.163,0,0,0,.064.412h.492V3.772A.848.848,0,0,1,5.1,3.347c-.012-.114-.029-.242-.042-.382a.812.812,0,0,0-.4-.726.815.815,0,0,0,.52-.834c0-.557-.36-.893-1.038-.893H2.556V3.836H3V2.449Z" transform="translate(124.422 23.603)" fill="#005cab" fill-rule="evenodd"/>
    </g>
  </g>
</svg>
