<svg xmlns="http://www.w3.org/2000/svg" xmlns:xlink="http://www.w3.org/1999/xlink" width="71.877" height="73.841" viewBox="0 0 71.877 73.841">
  <defs>
    <clipPath id="clip-path">
      <rect id="Rectangle_52" data-name="Rectangle 52" width="61.453" height="58.755" fill="none"/>
    </clipPath>
  </defs>
  <g id="Groupe_86" data-name="Groupe 86" transform="translate(0 59.627) rotate(-76)">
    <g id="Groupe_39" data-name="Groupe 39" transform="translate(0 0)" clip-path="url(#clip-path)">
      <path id="Tracé_700" data-name="Tracé 700" d="M17.274,27.3c.069-.181.135-.6.031-.525l-.2.7Z" transform="translate(41.885 31.03)" fill="#f72"/>
      <path id="Tracé_701" data-name="Tracé 701" d="M17.4,26.385a4.746,4.746,0,0,0-.473,1.587c.235-.674.2-.387.473-1.19.1-.076.107.24.038.5.069-.179.1.166.238-.276,0-.557-.138-.589-.376-.149a1.956,1.956,0,0,1,.1-.471" transform="translate(41.449 30.587)" fill="#f72"/>
      <path id="Tracé_702" data-name="Tracé 702" d="M14.695,25.567l.038.089a.132.132,0,0,0-.038-.089" transform="translate(35.99 29.639)" fill="#f72"/>
      <path id="Tracé_703" data-name="Tracé 703" d="M13.212,25.277c.041-.015.072-.082.09-.147a.213.213,0,0,0-.09.147" transform="translate(32.358 29.133)" fill="#f72"/>
      <path id="Tracé_704" data-name="Tracé 704" d="M13,24.816c.014.024.031.035.041.052-.007-.067-.017-.1-.041-.052" transform="translate(31.838 28.74)" fill="#f72"/>
      <path id="Tracé_705" data-name="Tracé 705" d="M14.774,25.692l-.093-.233c-.059.229.034.177.093.233" transform="translate(35.91 29.514)" fill="#f72"/>
      <path id="Tracé_706" data-name="Tracé 706" d="M16.627,27.232a.689.689,0,0,0,.114-.181.534.534,0,0,1-.086.071l-.028.11" transform="translate(40.721 31.359)" fill="#f72"/>
      <path id="Tracé_707" data-name="Tracé 707" d="M15.393,25.536l.041,0c.031-.08.062-.177.093-.285Z" transform="translate(37.699 29.275)" fill="#f72"/>
      <path id="Tracé_708" data-name="Tracé 708" d="M16.077,25.4a5.018,5.018,0,0,0-.238.833,1.167,1.167,0,0,1,.169-.406c.024-.114.048-.253.069-.428" transform="translate(38.791 29.443)" fill="#f72"/>
      <path id="Tracé_709" data-name="Tracé 709" d="M16.655,26.033l.066-.08c-.017.026-.045.048-.066.08" transform="translate(40.79 30.087)" fill="#f72"/>
      <path id="Tracé_710" data-name="Tracé 710" d="M15.036,25.394c.014-.089.024-.168.028-.216a1.673,1.673,0,0,0-.028.216" transform="translate(36.825 29.188)" fill="#f72"/>
      <path id="Tracé_711" data-name="Tracé 711" d="M.527,25.64c.01-.043.014-.069.021-.108-.021.06-.034.1-.021.108" transform="translate(1.277 29.599)" fill="#f72"/>
      <path id="Tracé_712" data-name="Tracé 712" d="M.106,24.323l.034-.03c.028-.114.052-.225.072-.337Z" transform="translate(0.26 27.772)" fill="#f72"/>
      <path id="Tracé_713" data-name="Tracé 713" d="M12.575,24.406l0,.013c.059-.067.031-.056,0-.013" transform="translate(30.797 28.253)" fill="#f72"/>
      <path id="Tracé_714" data-name="Tracé 714" d="M8.445,24.049c.062.551-.414.669-.279,1.287.024-.238.421-.92.279-1.287" transform="translate(19.941 27.879)" fill="#f72"/>
      <path id="Tracé_715" data-name="Tracé 715" d="M16.669,27.1a.137.137,0,0,1-.072,0,.048.048,0,0,0,.072,0" transform="translate(40.648 31.413)" fill="#f72"/>
      <path id="Tracé_716" data-name="Tracé 716" d="M8.149,24.645v0l.014.06-.014-.065" transform="translate(19.958 28.57)" fill="#f72"/>
      <path id="Tracé_717" data-name="Tracé 717" d="M11.48,24.418a1.9,1.9,0,0,0-.014.266,1.311,1.311,0,0,0,.014-.266" transform="translate(28.081 28.307)" fill="#f72"/>
      <path id="Tracé_718" data-name="Tracé 718" d="M12.264,24.962l-.052-.086c.017.058.034.078.052.086" transform="translate(29.908 28.838)" fill="#f72"/>
      <path id="Tracé_719" data-name="Tracé 719" d="M11.067,24.806c-.028-.05-.024-.134-.093-.056a.465.465,0,0,0,0,.073c.034-.08.066-.117.09-.017" transform="translate(26.876 28.655)" fill="#f72"/>
      <path id="Tracé_720" data-name="Tracé 720" d="M10.564,24.706c0,.048,0,.082,0,.123l.055-.028Z" transform="translate(25.872 28.641)" fill="#f72"/>
      <path id="Tracé_721" data-name="Tracé 721" d="M1.956,25.908a5.063,5.063,0,0,1,.038-.546c-.062.43-.314.566-.038.546" transform="translate(4.48 29.402)" fill="#f72"/>
      <path id="Tracé_722" data-name="Tracé 722" d="M16.715,26.978a.677.677,0,0,1-.1.255.167.167,0,0,0,.055-.028,1,1,0,0,0,.041-.227" transform="translate(40.699 31.275)" fill="#f72"/>
      <path id="Tracé_723" data-name="Tracé 723" d="M10.863,27.015l-.221-.108a.326.326,0,0,0,.221.108" transform="translate(26.063 31.193)" fill="#f72"/>
      <path id="Tracé_724" data-name="Tracé 724" d="M5.052,25.969l-.069.067c.017.017.041,0,.069-.067" transform="translate(12.204 30.105)" fill="#f72"/>
      <path id="Tracé_725" data-name="Tracé 725" d="M10.509,27.152a1.27,1.27,0,0,0-.052-.428c-.017.048-.038.084-.059.153Z" transform="translate(25.468 30.98)" fill="#f72"/>
      <path id="Tracé_726" data-name="Tracé 726" d="M1.878,25.358v0" transform="translate(4.599 29.397)" fill="#f72"/>
      <path id="Tracé_727" data-name="Tracé 727" d="M4.614,29.244c.224.035.262-.767.4-1.218.317-.2.007.594.017,1,.214-.194.49-.911.61-.87a1.135,1.135,0,0,1-.062.341c.3-.615.538.011.907-.762a1.731,1.731,0,0,1-.014.2,10.185,10.185,0,0,1,.186-1.088c.1-.006.29-.486.224.035-.059-.019-.107.188-.169.348l.152-.216c-.052.751-.2.244-.307.795.259-.225.624-.821.742-.6-.114.73-.424.216-.338.879l-.193-.3c-.041,1.164-.135-.091-.207,1.151.283.235.438-.343.721-.1.155-.4.1-.6.252-1,.607-.691-.007,1.859.528.916.186-.477.407-1.395.548-.89l-.248.816c.3.106.421-1.168.638-.589-.124.32-.3.253-.276.354.086.667.248-.453.41-.44l-.11.732c.359-.089.835-.587,1.231-.691a1.5,1.5,0,0,0-.131.669c.542-.328.983.166,1.349.635l.3-.615c.038.011.017.289-.052.408.128.253.09-.4.224-.639.11-.035.059.374-.041.557.417-.51,1.118-1.08,1.311-.38l-.1.181c.2.276.548-1.265.666-.661l-.066.108c.5.315,1.224-.212,1.459.771.262-.9.466.447.755-.814.19.652.055.87.417,1.326.107.069.335-.775.507-.894l-.128.661.338-.678-.052.8.172-.16a.8.8,0,0,1-.01-.494c.276-.283.431.5.369.84l.621-.518a1.344,1.344,0,0,1-.269.514c.407-.652-.09.7.283.1a2.326,2.326,0,0,1,.131-.525c.045.408.324.434.569.283l-.131.451c.355.145.842-.155,1.262-.114a1.486,1.486,0,0,1,.224-1.075l-.09.7c.166-.425-.079-.274.193-.788.141.093-.052.8-.19,1.021l.241-.227c-.031.209-.1.315-.162.579.166-.425.193.728.455-.015l-.031.207c.424.039.666-.186,1.017-.194.128-.6.238-.456.438-.935.214.212.4.708.717.68.276-.283.166-.505.335-.855-.093.548.221.523-.017.9a1.774,1.774,0,0,0,1.045-.482,1.261,1.261,0,0,1,.024-.516c.1-.084.148.244.083.507l-.034.054c.686-.782.883,1.7,1.528.585l-.034.054L26.3,29.5c.179.11-.2.4-.121.754.648-.879.707.19,1.211-.389-.028,1.641,1.073-.032,1.266,1.032l.052-.382c.179-.367.083.227.141.322.048-.3-.045-.352.062-.555.969-.391,1.694.7,2.521,1.114.31.13.583-1.956.814-1.015l-.259.7c.831-.8,1.349.136,2.142-.533-.072.16-.117.371-.179.365.034.525.5.065.586-.356.093.056-.052.382-.031.6.076.315.476-.628.445-.112a.388.388,0,0,1-.1.2c.138-.242.4.1.438-.505.186.3.517-.227.642.14.259-.654.352.352.579-.583-.21.967.269.814.514.371-.11.289.076.313-.069.715.179,0,.376-.166.445-.667.093,1.185.838-.881.721.618a6.629,6.629,0,0,1,1.7-.985c-.214.965-.538.056-.724,1.073.528-.363.949-1.172,1.345-.9.086.14-.152.415-.221.577.524-.363.842.155,1.342-.339a.733.733,0,0,1-.138.255c.086-.026.155.155.235-.285l-.1.114c0-.648.576-1.309.659-1.643-.386,1.248.328.348-.2,1.922a1.235,1.235,0,0,0,.221-.577c.059.091.048.263-.1.592.328-.216.324-.691.576-.661-.045.212-.114.289-.19.538.21-.4.424-.808.6-.611-.038.125-.045.3-.11.287.383-.035.848-1.056,1.173-.624-.307.916.076.315-.066,1.118l.266-.222-.01-.4c.19.028.473-.54.583-.266l-.207.317.386-.123-.141-.32c.276-.4.183-1.013.393-.771-.069.078.186.026.19.5v0c.145-.246.3-.507.4-.3-.017.259-.207.883-.217,1.054.224-.661.479-.149.742-.853a3.516,3.516,0,0,0-.166.672l.19-.538a.947.947,0,0,1-.034.6c.245.119.121-1.021.345-.559a1.289,1.289,0,0,1-.1.2c.269.253.676-.3.914-.009-.076.812-.293.177-.331.864.445-.112,1.059-.9,1.424-.674l-.059-.1c.283-1.131.186.585.5.065a1.988,1.988,0,0,0-.155.5c.241.2.624-.235,1.114-.559l-.11.287c.11.274.4.184.548.33.11-.287.2-.231.228-.661.207,1.706,1.214-.81,1.418.613-.059,0-.19.244-.141.248l.462-.235a2.124,2.124,0,0,0,0-.7c.11-.289.272-.507.373-.5a1.5,1.5,0,0,0-.135,1.077c.017-.153.079-.317.1-.473.038.9.235-.993.41-.376l-.069.257c.135-.123.307-.46.41-.376-.066.577-.172.259-.272.73.172-.022.545-1.06.579-.477-.1.153-.2.149-.307.3.028.684.083.516.183.63l-.01-.015.221.326-.034-.188c.507-1.477.476-.24.955-1.194-.459.9-.155.531-.307,1.177a1.109,1.109,0,0,1,.038.579c.238-.514.138.428.476-.322-.031.209.138.03,0,.553.2-.151.031-.365.1-.626.407-.693.448.913,1.028-.037.407-.376.61-1.075.986-1.4a1.43,1.43,0,0,1-.238.756c.1.32.241.274.445.048a1.49,1.49,0,0,0-.066.574c.138-.045.238-.754.341-.434a8.6,8.6,0,0,1-.293.829c.186-.179.41-.559.6-.734a2.06,2.06,0,0,1-.3.777,1.4,1.4,0,0,0,.679-.866l-.069-.214c.069-.024-.066.5-.135.6-.238.44-.172-.216-.138-.428l.135-.125c.135-1.233-.476.162-.683.073l.272-.883-.376.721a1.647,1.647,0,0,1,.2-.859c-.069-.453-.2.3-.241-.2a.279.279,0,0,1,.038-.155l-.207.255c.066-.186.1-.633.169-.494-.172-.538-.579.633-.548-.052l.034-.052c-.445.27-.169.652-.61,1.4l.131-1.63-.169.652c-.034-.028-.1-.082-.038-.343-.235.436-.031.287-.2.7-.072-.609-.583.238-.414-.808-.169.492.1.4-.169.728.169-1.125-.272.175-.345-.354.172-.574.272-.255.2-.786-.3.972-.3-.24-.479-.065-.162.779-.383.3-.683.54.069-.259-.376-.464-.548-.762l.034-.132c-.2.784-.41.618-.614.767a2.2,2.2,0,0,1,.3-.857L53.132,28a.836.836,0,0,1-.29.46L53,27.87c-.221.015-.569.659-.769.244-.124.546-.086,1.544-.452,1.887a2.985,2.985,0,0,1,.241-.92c-.034.035-.141.238-.166.108l.217-.49c-.083-.229-.148.412-.241.358.086-.423-.014-.309.069-.643.034-.039.052.181.124.019a.921.921,0,0,1-.166-.672c-.038.242-.114.57-.21.62-.221.013.031-.516-.052-.743-.11.289-.186-.026-.317.607-.062-.009-.014-.3-.007-.477-.166.27-.535.039-.545.721l.021.048-.024.026c-.49.6-.686-.419-1.1-.177l.041-.212c-.266.225-.51.106-.755.548-.062,0-.072-.4,0-.648-.2.147-.262.382-.431.015.241-.356.01-.333.224-.257-.176-.2-.159-.542-.5.017.186-.535-.024-.7-.159-.542l.072.4a.282.282,0,0,1-.314-.039l.2-.708c-.266-.9-1.086,1.412-1.131-.065-.214.488.169.369-.052.944-.183-.112-.19-1.151-.252-1.157-.2-.417-.466,1.021-.7.728a2.036,2.036,0,0,1-.379,1.162c-.183-.11-.034-1.088.135-1.28.055-.017.062.065.041.151a.507.507,0,0,0,.166-.473l-.076.253c-.048-.268-.331-.261-.183-.674a.42.42,0,0,0-.062.553c-.186-.389-.4-.043-.621-.311.014.143-.007.445-.048.438-.328-.345-.269.469-.555.559-.072-.4.238-.92-.093-.618-.11-.274.1-.676.207-.879-.341.471-.39-.358-.51-.46l.169-.194a.218.218,0,0,1-.228.1l-.028.514c-.059-.1-.121-.1-.076-.313a8.648,8.648,0,0,1-.359,1.293c-.048-.266-.359.255-.259-.423.269.253.1-.68.39-.769-.069.076-.131.069-.186-.026a.325.325,0,0,1,.066-.177c-.179-.626-.29.751-.6.713.114-.378.072-.728,0-.65.124.017-.066.639-.241.92-.141-.311-.262.2-.359.162l.09.147c-.117.378-.207.32-.369.43.048-.3.166-.194.145-.328-.29.656-.214-.719-.521-.287-.048-.266.135-.715.083-.9-.341.473-.159-.542-.5-.155a1.171,1.171,0,0,1-.269.879l.49-.328-.417.723c.124.017.331-.3.39-.207a1.009,1.009,0,0,0-.2.708c-.017-.779-.431.421-.528-.112l.262-1.265c-.19-.587-.666.607-.993.257l.083.231c-.155.5-.259.05-.424.244a2.709,2.709,0,0,0,.048-.849c-.059.313-.283-.052-.486.79L39,26.393c-.269-.255-.6,1.177-.876,1.008.183-.453.1-.762.376-1.075-.1-.013-.176-.1-.238.194-.007-.268-.4.548-.407.14-.079.181-.183.624-.29.579a1,1,0,0,1,.041-.207c-.041.207-.235.27-.231.745-.045-1.343-.89.028-.935-1.127a2.3,2.3,0,0,1-.748.255c.038-.125.041-.209.072-.164-.2-.415-.414,1.2-.642.736-.024-.7.241-.356.193-.622.238-1.395-.417.16-.466-.669l.066-.078c-.066-.486-.5.5-.745.376a1.23,1.23,0,0,0,.045-.209,2.173,2.173,0,0,1-1.007,1.08c.186-.538.172-.279.235-.836-.128.069-.145.89-.4,1.028a3.8,3.8,0,0,1-.028-1.17l.221-.015c.041-.773-.283,0-.369-.138l.079-.333c-.352.084-.524.924-.866.836l-.014.257c-.362.818-.069-.482-.386.123l.11-.851a5.21,5.21,0,0,1-.869.924,5.911,5.911,0,0,1,.828-1.276.577.577,0,0,0-.593.44c.069-.078.172-.281.2-.147-.286.654-.559.965-.807.931.376-1.637-.573-.466-.5-1.753-.569.572-.835-.328-1.373-.272-.072,1.289-.159.024-.39,1.337-.138.073-.179.05-.172-.037l-.21-.812c-.01-.389.172-.279.221-.574-.245-.121,0-.564-.107-.926-.055.473-.224.665-.341.473l.093.622c-.51.667-.1-1.125-.61-.464l.2-.4c-.241.227-.707-.065-1.1.974,0-.155.024-.516.128-.6-.428-.194-1.245,1.041-1.469.363l.1-.317c-.1.086-.269.592-.31.261.031-.134.1-.317.062-.339-.066.106-.338.542-.414.348l.169-.354c-.362-.453-.862.825-1.28,1.015.19-.944-.1-1.278-.245-1.445l.031-.132c-.493-.158-1.038.71-1.593,1.043-.093-1.047-.928-.507-1.293-1.118a1.535,1.535,0,0,1-.262.821c-.076-.2-.445.631-.252-.233l.038.019c.083-.855-.193-.648-.369-.684l-.255,1.129c-.145-1.684-1.362.505-1.324-.989-.172.274-.31.259-.483.533l.128-.6a.836.836,0,0,0-.845-.155l.166-.428c-.214-.056-.631,1.727-.842,1.747l.121-.909c-.386-.017-.617-.842-1.162-.052.034-.132.1-.393.166-.425-.176-.037-.576-.667-.759.581.159-.81-.383-.11-.662.231l.152-.6c-.328.749-.376.957-.662,1.149-.041-.082.045-.482.093-.322-.131-.328-.266.553-.438.216l.166-.374c-.19-.063-.214.145-.414.579-.172.231-.348-.179-.269-.721-.093.326-.29.758-.376.594a.965.965,0,0,1,.128-.389c-.252-.432-.635.654-.745.05a1.207,1.207,0,0,0,.031-.358c.262.035.469.084.441.127.11-.551-.083-.665.238-1.412-.255.4-.728,1.28-.886,1.006,0-.054,0-.108.014-.192l.031-.06c-.034-.058-.09-.011-.148.078-.048-.1-.076-.166-.138-.179.066-.458-.2-.263-.3-.3-.11.6-.231.5-.2,1-.007-.045.034-.071.11-.091a.142.142,0,0,0,.059-.058L10.4,24.4a2.23,2.23,0,0,1,.272-.019c-.145.3-.286.551-.338.207-.131.382-.272.775-.341.959.021-.851-.169-1.328-.1-1.848-.393.313-.811.164-1.242,1.278-.121.138-.041-.333-.038-.514.076-.108.135-.086.2-.246-.245.274-.569.069-.773.855-.162-.374.276-.717-.069-.613l.09-.238c-.376-1.313-1.428,1.937-1.8.261a.572.572,0,0,1,.028.283c-.652-.777-1.776.542-2.332-.654-.179-.246-.3.257-.517.631l.083-.65-.383.728c-.441.52-.255-1.632-.88-.633l-.034.44c-.135-.1-.528.22-.4-.279-.034.078-.141.449-.155.216l.062-.339-.483.553c-.238-.268.314-1.341-.09-1.44a2.689,2.689,0,0,0-.628,1.181c.059.022.117.225.055.564L.4,25.247a6.41,6.41,0,0,0-.331,2.731l.366-.589-.021.488-.21.015c.024.464.179.067.317-.2a1.537,1.537,0,0,0,0,.542L.944,27.3c-.048.393-.262.767-.145,1,.2-.434.069-.883.31-1.16.028.462-.083.829.131.451a1.141,1.141,0,0,1-.169.529c.183-.3.345-.106.517-.631.007.57.438-.112.235.831.083-.225.362-.726.483-.756-.431,1.114.4.1.107,1.306.355-1,.635-.408,1.014-.95-.031.078-.093.24-.107.186.135.1.117.406.176.607a5.188,5.188,0,0,1,.69-1.52c.021.825-.31.976-.41,1.76.128-.682.459-.654.507-1.226a2.765,2.765,0,0,1,.007.954c.235-1.047.166-.166.414-.8.1.535-.145.989.141.687a1.126,1.126,0,0,1-.231.687m5.688-1.4,0,.013c-.048.009-.09.019-.117.026.028-.006.059-.017.121-.039m.448.026a.417.417,0,0,0-.19-.039c.028-.209.086-.421.131-.408-.052.138.028.266.059.447m-.107-4.247c.09-.08.086.041.072.164a.481.481,0,0,0-.138.063l-.024.073a3.093,3.093,0,0,1,.09-.3" transform="translate(0.001 26.82)" fill="#f72"/>
      <path id="Tracé_728" data-name="Tracé 728" d="M3.03,23.726c-.014.013-.024.037-.038.041a1.24,1.24,0,0,0,.014.138c.024-.063.045-.125.066-.186l-.041.006" transform="translate(7.328 27.498)" fill="#f72"/>
      <path id="Tracé_729" data-name="Tracé 729" d="M14.713,25.623l-.007-.015a.351.351,0,0,1,0,.089l0-.073" transform="translate(36.016 29.687)" fill="#f72"/>
      <path id="Tracé_730" data-name="Tracé 730" d="M4.865,26.169l.031-.151-.066.13Z" transform="translate(11.831 30.162)" fill="#f72"/>
      <path id="Tracé_731" data-name="Tracé 731" d="M15.306,26.662a.6.6,0,0,0,0,.158.8.8,0,0,0,0-.158" transform="translate(37.472 30.909)" fill="#f72"/>
      <path id="Tracé_732" data-name="Tracé 732" d="M15.6,26.763l.107.227a.673.673,0,0,0-.107-.227" transform="translate(38.213 31.026)" fill="#f72"/>
      <path id="Tracé_733" data-name="Tracé 733" d="M15.823,27.071c.031-.106.052-.184.069-.257l0,0Z" transform="translate(38.752 31.08)" fill="#f72"/>
      <path id="Tracé_734" data-name="Tracé 734" d="M12.072,26.785a.073.073,0,0,0-.038.024c-.1.112-.038.069.038-.024" transform="translate(29.349 31.051)" fill="#f72"/>
      <path id="Tracé_735" data-name="Tracé 735" d="M13.344,26.274a1.811,1.811,0,0,1-.183.274c.062.052.11.069.183-.274" transform="translate(32.233 30.459)" fill="#f72"/>
      <path id="Tracé_736" data-name="Tracé 736" d="M10.731,26.97l0-.011-.028,0Z" transform="translate(26.221 31.25)" fill="#f72"/>
      <path id="Tracé_737" data-name="Tracé 737" d="M13.109,26.413c.045.125.107.1.179.024-.048-.043-.1-.11-.179-.024" transform="translate(32.105 30.571)" fill="#f72"/>
      <path id="Tracé_738" data-name="Tracé 738" d="M16.835,27.224l.034.028c.007-.039.017-.071.024-.1Z" transform="translate(41.231 31.48)" fill="#f72"/>
      <path id="Tracé_739" data-name="Tracé 739" d="M16.852,27.191l.059-.067c-.021,0-.038,0-.059.067" transform="translate(41.272 31.444)" fill="#f72"/>
      <path id="Tracé_740" data-name="Tracé 740" d="M16.992,27.057l-.124.145c.034,0,.069.026.124-.145" transform="translate(41.311 31.366)" fill="#f72"/>
      <path id="Tracé_741" data-name="Tracé 741" d="M16.576,27.019l-.055.218c.014-.045.034-.117.055-.218" transform="translate(40.462 31.322)" fill="#f72"/>
      <path id="Tracé_742" data-name="Tracé 742" d="M16.438,27.085c.069.056.1.482.241.354l.045-.175c-.117.322-.138-.542-.286-.179" transform="translate(40.258 31.293)" fill="#f72"/>
      <path id="Tracé_743" data-name="Tracé 743" d="M16.2,26.074l.241.2c0-.238,0-.555.135-.6-.21-.721-.034.527-.376.4" transform="translate(39.668 29.497)" fill="#f72"/>
      <path id="Tracé_744" data-name="Tracé 744" d="M15.993,25.8c.169-.1.066-.337.1-.469-.135.205-.169.255-.1.469" transform="translate(39.083 29.366)" fill="#f72"/>
      <path id="Tracé_745" data-name="Tracé 745" d="M14.177,25.615l.124-.546c-.131.069-.041.212-.124.546" transform="translate(34.721 29.062)" fill="#f72"/>
      <path id="Tracé_746" data-name="Tracé 746" d="M13.669,26.671l.041.35.155-.5Z" transform="translate(33.477 30.746)" fill="#f72"/>
      <path id="Tracé_747" data-name="Tracé 747" d="M13.811,24.8l.066-.073-.231.184Z" transform="translate(33.42 28.661)" fill="#f72"/>
      <path id="Tracé_748" data-name="Tracé 748" d="M10.744,24.486l-.1.678c.1-.114.269-.872.1-.678" transform="translate(26.068 28.349)" fill="#f72"/>
      <path id="Tracé_749" data-name="Tracé 749" d="M9.48,24.839c.021-.341-.059-.568-.207-.242.09.054.138.324.207.242" transform="translate(22.711 28.331)" fill="#f72"/>
      <path id="Tracé_750" data-name="Tracé 750" d="M5.552,23.742l.135-.218L5.48,23.7Z" transform="translate(13.42 27.27)" fill="#f72"/>
      <path id="Tracé_751" data-name="Tracé 751" d="M17.942,17.936c-.007-.186-.107-.6-.176-.514l.079.715Z" transform="translate(43.511 20.182)" fill="#f72"/>
      <path id="Tracé_752" data-name="Tracé 752" d="M17.584,17.066a4.47,4.47,0,0,0,.166,1.611c-.034-.689.045-.406-.007-1.226.069-.089.193.216.231.477-.007-.184.166.147.121-.3-.221-.54-.366-.551-.424-.086a1.917,1.917,0,0,1-.086-.473" transform="translate(43.03 19.784)" fill="#f72"/>
      <path id="Tracé_753" data-name="Tracé 753" d="M15.08,16.857l.072.08a.166.166,0,0,0-.072-.08" transform="translate(36.932 19.542)" fill="#f72"/>
      <path id="Tracé_754" data-name="Tracé 754" d="M13.557,16.948c.034-.022.038-.091.028-.155a.176.176,0,0,0-.028.155" transform="translate(33.182 19.468)" fill="#f72"/>
      <path id="Tracé_755" data-name="Tracé 755" d="M13.249,16.549a.614.614,0,0,0,.062.045c-.034-.065-.062-.1-.062-.045" transform="translate(32.448 19.155)" fill="#f72"/>
      <path id="Tracé_756" data-name="Tracé 756" d="M15.21,16.971l-.183-.212c.034.231.1.166.183.212" transform="translate(36.803 19.429)" fill="#f72"/>
      <path id="Tracé_757" data-name="Tracé 757" d="M17.35,18a.464.464,0,0,0,.038-.192.309.309,0,0,1-.055.08L17.35,18" transform="translate(42.45 20.648)" fill="#f72"/>
      <path id="Tracé_758" data-name="Tracé 758" d="M15.71,16.667l.041,0q-.005-.123-.021-.291Z" transform="translate(38.475 18.979)" fill="#f72"/>
      <path id="Tracé_759" data-name="Tracé 759" d="M16.221,16.394a4.651,4.651,0,0,0,.1.844.911.911,0,0,1,0-.419c-.024-.114-.055-.253-.1-.425" transform="translate(39.7 19.005)" fill="#f72"/>
      <path id="Tracé_760" data-name="Tracé 760" d="M17.083,16.83l.034-.086a.45.45,0,0,0-.034.086" transform="translate(41.838 19.411)" fill="#f72"/>
      <path id="Tracé_761" data-name="Tracé 761" d="M15.38,16.608a1.983,1.983,0,0,0-.059-.214,1.337,1.337,0,0,0,.059.214" transform="translate(37.523 19.005)" fill="#f72"/>
      <path id="Tracé_762" data-name="Tracé 762" d="M1.364,20.426c-.007-.043-.014-.069-.021-.108,0,.063.007.106.021.108" transform="translate(3.289 23.554)" fill="#f72"/>
      <path id="Tracé_763" data-name="Tracé 763" d="M.613,19.259l.021-.035C.616,19.11.6,19,.575,18.888Z" transform="translate(1.408 21.897)" fill="#f72"/>
      <path id="Tracé_764" data-name="Tracé 764" d="M12.734,16.257l.01.011c.028-.071.007-.058-.01-.011" transform="translate(31.187 18.801)" fill="#f72"/>
      <path id="Tracé_765" data-name="Tracé 765" d="M8.439,16.981c.276.525-.138.713.238,1.291-.072-.233.041-.959-.238-1.291" transform="translate(20.668 19.686)" fill="#f72"/>
      <path id="Tracé_766" data-name="Tracé 766" d="M17.371,17.865a.132.132,0,0,1-.072.011c.038.017.059.013.072-.011" transform="translate(42.367 20.711)" fill="#f72"/>
      <path id="Tracé_767" data-name="Tracé 767" d="M8.508,17.579v0l.038.056-.038-.06" transform="translate(20.837 20.379)" fill="#f72"/>
      <path id="Tracé_768" data-name="Tracé 768" d="M11.67,16.539a1.937,1.937,0,0,0,.09.261,1.512,1.512,0,0,0-.09-.261" transform="translate(28.581 19.173)" fill="#f72"/>
      <path id="Tracé_769" data-name="Tracé 769" d="M12.589,16.876,12.5,16.8c.038.054.066.071.086.076" transform="translate(30.621 19.476)" fill="#f72"/>
      <path id="Tracé_770" data-name="Tracé 770" d="M11.378,17.027c-.048-.043-.076-.125-.11-.041a.626.626,0,0,0,.031.073c0-.084.017-.125.079-.032" transform="translate(27.596 19.649)" fill="#f72"/>
      <path id="Tracé_771" data-name="Tracé 771" d="M10.864,17.041c.017.045.034.08.052.119l.041-.037Z" transform="translate(26.607 19.755)" fill="#f72"/>
      <path id="Tracé_772" data-name="Tracé 772" d="M2.784,20.355c-.066-.166-.124-.352-.176-.535.107.425-.083.6.176.535" transform="translate(6.387 22.977)" fill="#f72"/>
      <path id="Tracé_773" data-name="Tracé 773" d="M17.318,17.743a.6.6,0,0,1,.007.263.157.157,0,0,0,.045-.037,1.16,1.16,0,0,0-.052-.227" transform="translate(42.414 20.569)" fill="#f72"/>
      <path id="Tracé_774" data-name="Tracé 774" d="M11.738,19.225l-.255-.069a.406.406,0,0,0,.255.069" transform="translate(28.123 22.207)" fill="#f72"/>
      <path id="Tracé_775" data-name="Tracé 775" d="M5.818,19.637l-.045.076c.024.013.045-.006.045-.076" transform="translate(14.139 22.765)" fill="#f72"/>
      <path id="Tracé_776" data-name="Tracé 776" d="M11.437,19.44a1.663,1.663,0,0,0-.217-.406,1.277,1.277,0,0,0,0,.158Z" transform="translate(27.476 22.066)" fill="#f72"/>
      <path id="Tracé_777" data-name="Tracé 777" d="M2.607,19.817l0,.006,0-.006" transform="translate(6.384 22.973)" fill="#f72"/>
      <path id="Tracé_778" data-name="Tracé 778" d="M6.4,25.683c.231,0-.048-.784-.09-1.242.228-.246.241.572.414.97.128-.222.114-.959.248-.937a1.069,1.069,0,0,1,.072.339c.055-.643.528-.071.579-.879.028.069.048.136.066.194a10.183,10.183,0,0,1-.248-1.084c.1-.022.09-.514.231,0-.066-.011-.028.2-.028.363l.062-.233c.245.736-.093.268.017.818.159-.257.279-.892.483-.693.179.723-.328.272.017.9l-.3-.259c.417,1.134-.166-.067.252,1.147.369.186.29-.4.659-.212-.007-.41-.145-.6-.152-1.006.317-.762.728,1.8.876.805-.01-.492-.159-1.414.179-.948l.083.829c.331.058-.059-1.2.383-.669.007.328-.193.294-.124.387.341.633.059-.477.221-.49l.179.726c.314-.14.579-.7.924-.857a1.441,1.441,0,0,0,.135.667c.4-.4,1.021.011,1.559.406l.048-.641a.634.634,0,0,1,.11.4c.224.225-.069-.4-.034-.654.093-.052.2.352.179.546.2-.559.655-1.218,1.118-.57L14.49,24c.3.235.031-1.311.383-.743l-.024.114c.61.231,1.107-.393,1.721.523-.1-.911.628.361.41-.9.441.6.4.833.924,1.22.131.05.021-.8.141-.946l.135.659.062-.706.266.782.1-.181a.981.981,0,0,1-.207-.479c.159-.315.617.421.69.758l.4-.6a1.155,1.155,0,0,1-.059.54c.138-.7.186.691.314.054a2.463,2.463,0,0,1-.083-.529c.2.389.49.371.666.186l.048.458c.4.089.755-.279,1.183-.3a1.489,1.489,0,0,1-.21-1.077l.19.693c-.007-.436-.183-.253-.121-.792.172.067.262.784.217,1.019l.145-.257a5.589,5.589,0,0,1,.069.587c-.007-.44.473.674.438-.089l.052.207c.428-.026.569-.283.911-.343-.114-.6.048-.482.052-.976.293.173.669.624.966.548.155-.315-.038-.514-.014-.881.124.548.421.473.341.879.348-.117.448-.145.824-.626a1.305,1.305,0,0,1-.179-.505c.066-.1.235.216.276.482l-.01.058c.359-.866,1.525,1.5,1.711.328l-.014.058.314-.63c.217.08-.038.423.176.751.283-.952.762.076,1.021-.566.621,1.6,1.028-.194,1.635.808l-.1-.38c.031-.382.169.209.262.289-.069-.294-.179-.333-.155-.546.783-.527,1.914.417,2.88.691.352.076-.207-1.987.39-1.11l.024.717c.493-.9,1.359-.076,1.863-.846,0,.166.038.378-.028.38.241.505.51-.013.431-.434.11.041.1.378.2.587.2.291.214-.684.39-.179a.312.312,0,0,1-.024.212c.041-.255.431.032.224-.555.3.263.414-.3.679.037-.007-.674.479.285.331-.656.176.972.583.749.645.281.01.3.2.294.217.7.172-.026.3-.22.166-.715.555,1.134.466-.985.945.488a4.65,4.65,0,0,1,1.252-1.216c.176.967-.5.136-.276,1.149.366-.432.455-1.283.945-1.084.141.123.017.425.014.594.366-.434.876.019,1.166-.538a.585.585,0,0,1-.031.27c.072-.039.21.127.114-.311l-.052.125c-.252-.628.041-1.356-.01-1.7.117,1.27.455.287.562,1.894a1.13,1.13,0,0,0-.014-.594c.093.08.152.25.141.589.231-.259.038-.719.293-.73a5.256,5.256,0,0,1,.031.553c.045-.425.093-.851.341-.687.014.13.069.294.007.3.355-.093.4-1.153.886-.786.066.935.2.3.379,1.093l.169-.255-.166-.382c.193,0,.245-.6.462-.348l-.076.341.324-.179-.262-.289c.11-.425-.221-1.011.076-.805-.034.084.193-.006.383.458v0c.045-.261.086-.538.269-.35.086.253.145.887.2,1.054-.041-.674.407-.218.383-.941a3.048,3.048,0,0,0,.107.676l-.031-.548a1.057,1.057,0,0,1,.2.585c.283.08-.286-1.008.114-.6-.014.048.014.127-.021.214.359.2.538-.393.883-.149.245.8-.214.218.017.89.39-.179.673-1.032,1.114-.874l-.093-.084c-.169-1.14.414.538.51-.013a2.068,2.068,0,0,0,.048.507c.314.162.51-.322.859-.713l.007.3c.214.248.459.117.662.235-.007-.3.1-.257-.041-.676.876,1.622.859-.972,1.618.376-.059.009-.086.266-.041.263l.355-.3a2.356,2.356,0,0,0-.276-.676c-.007-.3.066-.533.166-.542-.117.343.162.795.3,1.065-.045-.149-.052-.32-.086-.473.39.864-.166-1,.248-.428l.034.261c.083-.143.117-.494.248-.43.162.57-.062.276.024.749.159-.045.11-1.11.376-.551-.041.164-.141.175-.179.339.3.659.283.486.424.583l-.014-.013.341.283-.107-.177c-.09-1.509.366-.307.452-1.306-.086.948.062.54.169,1.19a1.26,1.26,0,0,1,.262.553c.028-.533.3.4.338-.384.048.207.145.009.221.535.138-.177-.114-.361-.152-.624.124-.734.8.818.983-.192.248-.428.169-1.138.4-1.511a1.282,1.282,0,0,1,.066.767c.228.3.341.229.452-.022a1.512,1.512,0,0,0,.162.566c.114-.063-.069-.767.159-.471a7.741,7.741,0,0,1,.041.849c.11-.2.179-.6.293-.805a1.8,1.8,0,0,1,.014.8,1.049,1.049,0,0,0,.317-.946l-.152-.2c.059-.032.131.492.107.6-.059.464-.255-.181-.3-.391l.083-.143c-.359-1.218-.4.231-.635.177l-.086-.9-.076.756a1.591,1.591,0,0,1-.145-.864c-.245-.43-.076.326-.31-.153a.257.257,0,0,1-.024-.155l-.1.276c-.007-.188-.152-.626-.031-.505-.379-.492-.314.7-.552.037l.014-.056c-.324.33.093.656-.041,1.447l-.517-1.6.093.656c-.045-.022-.131-.063-.169-.326-.059.46.083.283.079.713-.307-.581-.469.32-.717-.721.031.5.259.371.124.732-.283-1.116-.2.212-.473-.289-.062-.583.162-.289-.114-.792.09.987-.383-.188-.49.011.148.779-.255.35-.448.628-.038-.263-.548-.391-.835-.654L53.42,17c.114.79-.152.661-.29.836a1.981,1.981,0,0,1-.045-.877l-.159.015a.66.66,0,0,1-.1.49l-.076-.592c-.21.05-.3.728-.652.356.1.551.524,1.509.307,1.9a3.018,3.018,0,0,1-.131-.931c-.017.041-.038.253-.114.132l.017-.51c-.172-.209.017.423-.093.384-.083-.423-.135-.3-.19-.633.021-.043.124.166.131,0a1.189,1.189,0,0,1-.428-.624c.059.24.114.57.041.633-.207.048-.172-.5-.341-.713,0,.3-.193,0-.069.637-.066,0-.135-.291-.193-.462-.055.289-.5.121-.245.784l.038.043-.014.028c-.238.659-.828-.3-1.138,0l-.041-.212c-.166.259-.452.181-.514.648-.066,0-.231-.374-.252-.628-.135.173-.1.41-.414.08.093-.382-.121-.322.117-.283-.252-.166-.369-.5-.483.1-.031-.548-.3-.669-.366-.5l.228.378c-.1.089-.21.048-.321.009l-.086-.717c-.614-.833-.5,1.537-1.124.112-.017.507.31.333.321.924-.221-.082-.635-1.088-.7-1.084-.355-.374-.052,1.06-.4.814.09.25.259.926.09,1.183-.221-.078-.462-1.047-.373-1.261.045-.026.083.054.1.14a.445.445,0,0,0-.024-.484l.024.257c-.152-.253-.424-.2-.441-.626a.446.446,0,0,0,.159.546c-.335-.348-.407.019-.724-.205.069.136.169.432.128.432-.455-.285-.079.5-.321.628-.228-.376-.131-.931-.335-.583a1.212,1.212,0,0,1-.145-.885c-.145.51-.517-.287-.676-.365l.09-.216c-.055.127-.117.13-.183.132l.176.5c-.093-.082-.155-.08-.2-.291a8.581,8.581,0,0,1,.166,1.311c-.152-.253-.252.3-.421-.371.362.2-.169-.676.076-.805-.035.084-.1.086-.193,0a.272.272,0,0,1,0-.181c-.424-.579.014.775-.3.784-.034-.382-.217-.715-.252-.631.128,0,.186.631.131.931-.262-.281-.176.238-.286.209l.148.132c.034.382-.076.341-.193.471-.069-.294.086-.214.01-.339-.021.68-.49-.665-.614-.2-.152-.248-.152-.713-.276-.881-.145.512-.366-.5-.542-.073a1.084,1.084,0,0,1,.083.892l.348-.393-.121.764c.128,0,.2-.341.3-.261a.958.958,0,0,0,.086.719c-.324-.754-.252.473-.555-.028l-.248-1.267c-.414-.54-.4.693-.859.4l.169.212c.048.505-.228.089-.314.3a2.966,2.966,0,0,0-.286-.831c.069.313-.293-.006-.159.842l-.286-.544c-.362-.2-.121,1.233-.452,1.114,0-.469-.2-.756-.062-1.1-.1,0-.207-.067-.152.227-.11-.261-.166.592-.338.2-.007.19.069.633-.052.607a.974.974,0,0,1-.041-.209c.041.209-.121.3.069.76-.573-1.3-.852.164-1.349-.948a1.784,1.784,0,0,1-.628.363c-.01-.127-.041-.212.007-.171-.355-.371.072,1.226-.331.814-.3-.672.093-.384-.059-.635-.321-1.388-.341.22-.717-.577l.038-.086c-.259-.46-.293.559-.576.479a1,1,0,0,0-.041-.209,1.576,1.576,0,0,1-.548,1.2c-.031-.551.059-.3-.1-.846-.1.086.214.885.014,1.058a4.412,4.412,0,0,1-.486-1.129l.207-.048c-.262-.756-.272.048-.414-.078l-.052-.335c-.307.134-.145.976-.51.944l.086.25c-.024.849-.255-.456-.324.179l-.228-.842a3.745,3.745,0,0,1-.479,1.03,4.563,4.563,0,0,1,.3-1.365c-.128,0-.417.1-.4.518.034-.084.059-.3.135-.171-.024.676-.162,1.019-.417,1.023-.283-1.643-.742-.361-1.176-1.622-.324.643-.938-.188-1.438-.05.438,1.261-.145.048.148,1.354-.1.093-.155.076-.183-.009l-.521-.754c-.162-.374.059-.3-.014-.589-.283-.08-.221-.548-.466-.881.131.464.041.678-.145.51l.335.587c-.231.728-.542-1.073-.776-.354l.034-.421c-.141.259-.707.048-.686,1.114-.062-.149-.179-.5-.114-.6-.49-.123-.8,1.2-1.28.579l-.031-.322c-.066.1-.028.613-.2.3-.021-.132-.028-.322-.072-.337-.021.112-.114.579-.266.4l.028-.367c-.531-.384-.51.931-.842,1.181a1.862,1.862,0,0,0-.807-1.362l-.021-.134c-.542-.076-.728.851-1.135,1.259-.5-1-1.1-.35-1.694-.885a1.4,1.4,0,0,1,.069.836c-.152-.181-.179.68-.335-.188l.041.015c-.252-.842-.438-.6-.624-.609l.2,1.136c-.8-1.611-1.121.7-1.673-.754-.059.291-.2.3-.255.592l-.117-.607a.9.9,0,0,0-.883-.019l-.007-.44c-.228-.022.072,1.771-.124,1.822l-.241-.9c-.383.045-.931-.721-1.149.132-.017-.134-.059-.4,0-.438-.186-.009-.824-.559-.51.68-.166-.81-.414-.05-.548.324l-.086-.6c-.024.775.01.985-.193,1.216-.072-.073-.145-.475-.038-.328-.255-.3-.038.579-.335.279l.01-.389c-.207-.03-.152.173-.172.626-.076.248-.407-.121-.545-.659.041.33.017.779-.131.633a.882.882,0,0,1-.028-.4c-.414-.38-.359.732-.7.164a1.485,1.485,0,0,0-.11-.354c.269-.006.486.011.476.056-.11-.551-.341-.63-.324-1.406-.09.43-.2,1.354-.462,1.112-.021-.054-.041-.106-.066-.19l.01-.063c-.059-.052-.093,0-.114.1-.086-.084-.141-.149-.207-.153-.114-.451-.293-.225-.4-.24.128.6-.031.516.2,1-.024-.043.007-.073.072-.106a.118.118,0,0,0,.031-.065l0,.054a1.651,1.651,0,0,1,.259-.06c-.024.311-.062.577-.245.25.021.391.041.795.045.985-.314-.829-.686-1.261-.828-1.777-.259.365-.721.283-.7,1.432-.062.151-.169-.317-.241-.492.031-.117.1-.106.1-.27-.128.3-.528.155-.414.95-.3-.339-.014-.738-.307-.585l-.007-.244c-.88-1.213-.621,2.1-1.642.531a.7.7,0,0,1,.138.27c-.938-.652-1.507.8-2.518-.272-.269-.212-.193.294-.252.689L3.3,20.857l-.083.767c-.221.572-.89-1.544-1.1-.477l.141.432c-.169-.071-.424.294-.5-.209,0,.08.041.456-.062.233l-.072-.337-.255.609c-.335-.222-.221-1.347-.652-1.382a2.2,2.2,0,0,0-.141,1.244c.066.011.2.2.272.535l-.107.188a6.8,6.8,0,0,0,.755,2.7l.121-.628.176.477-.2.047c.207.445.2.037.228-.246a1.8,1.8,0,0,0,.21.527l.048-.974c.107.389.045.784.248.987.024-.451-.279-.866-.155-1.172.207.445.248.816.307.419a1.069,1.069,0,0,1,.041.54c.062-.317.3-.155.252-.691.235.551.383-.177.559.767-.007-.229.066-.758.169-.805.021,1.147.431.035.617,1.25-.052-1.028.455-.494.61-1.08,0,.082,0,.248-.031.2.169.073.272.376.407.559a4.5,4.5,0,0,1,.069-1.578c.348.795.086,1,.3,1.768-.145-.68.183-.7.007-1.265a3.136,3.136,0,0,1,.383.922c-.186-1.052.093-.188.083-.84.307.5.248.978.41.641a1.012,1.012,0,0,1,.045.7m4.96-2.233,0,.013-.1.043c.021-.011.052-.026.1-.056m.448-.043a.442.442,0,0,0-.2-.009c-.059-.207-.083-.423-.034-.415,0,.14.131.253.235.423m-1.78-4.1c.055-.091.1.026.135.149a.309.309,0,0,0-.107.082l0,.073c-.014-.114-.028-.225-.031-.3" transform="translate(1.304 18.662)" fill="#f72"/>
      <path id="Tracé_779" data-name="Tracé 779" d="M3.308,17.961c-.007.013-.007.039-.021.045.024.052.048.1.069.134a1.76,1.76,0,0,0-.014-.192l-.034.013" transform="translate(8.05 20.807)" fill="#f72"/>
      <path id="Tracé_780" data-name="Tracé 780" d="M15.114,16.907l-.014-.013a.335.335,0,0,1,.038.084c-.01-.028-.014-.048-.024-.071" transform="translate(36.981 19.585)" fill="#f72"/>
      <path id="Tracé_781" data-name="Tracé 781" d="M5.69,19.874l-.031-.151-.014.136Z" transform="translate(13.825 22.864)" fill="#f72"/>
      <path id="Tracé_782" data-name="Tracé 782" d="M15.938,17.768a.579.579,0,0,0,.059.151.706.706,0,0,0-.059-.151" transform="translate(39.034 20.598)" fill="#f72"/>
      <path id="Tracé_783" data-name="Tracé 783" d="M16.254,17.792l.193.2a.967.967,0,0,0-.193-.2" transform="translate(39.808 20.626)" fill="#f72"/>
      <path id="Tracé_784" data-name="Tracé 784" d="M16.535,18.042c-.01-.106-.024-.186-.034-.259l0,0Z" transform="translate(40.403 20.611)" fill="#f72"/>
      <path id="Tracé_785" data-name="Tracé 785" d="M12.812,18.7a.051.051,0,0,0-.028.03c-.048.121-.007.071.028-.03" transform="translate(31.257 21.677)" fill="#f72"/>
      <path id="Tracé_786" data-name="Tracé 786" d="M13.867,17.908a1.549,1.549,0,0,1-.069.294c.079.041.135.05.069-.294" transform="translate(33.793 20.76)" fill="#f72"/>
      <path id="Tracé_787" data-name="Tracé 787" d="M11.585,19.2v-.011l-.028,0Z" transform="translate(28.304 22.243)" fill="#f72"/>
      <path id="Tracé_788" data-name="Tracé 788" d="M13.746,18.073c.093.114.145.084.183,0-.066-.035-.145-.091-.183,0" transform="translate(33.665 20.891)" fill="#f72"/>
      <path id="Tracé_789" data-name="Tracé 789" d="M17.553,17.94l.045.022a.378.378,0,0,1-.014-.1Z" transform="translate(42.989 20.709)" fill="#f72"/>
      <path id="Tracé_790" data-name="Tracé 790" d="M17.562,17.9l.031-.076c-.021,0-.038.009-.031.076" transform="translate(43.008 20.669)" fill="#f72"/>
      <path id="Tracé_791" data-name="Tracé 791" d="M17.632,17.756l-.062.16c.031,0,.076.013.062-.16" transform="translate(43.031 20.584)" fill="#f72"/>
      <path id="Tracé_792" data-name="Tracé 792" d="M17.222,17.809l.031.22a1.669,1.669,0,0,0-.031-.22" transform="translate(42.178 20.646)" fill="#f72"/>
      <path id="Tracé_793" data-name="Tracé 793" d="M17.131,17.9c.09.043.29.451.373.3l-.024-.173c.014.328-.348-.505-.348-.132" transform="translate(41.956 20.64)" fill="#f72"/>
      <path id="Tracé_794" data-name="Tracé 794" d="M16.576,17l.31.153c-.093-.229-.221-.538-.107-.6-.486-.667.176.514-.2.449" transform="translate(40.596 18.951)" fill="#f72"/>
      <path id="Tracé_795" data-name="Tracé 795" d="M16.4,16.777c.128-.119-.069-.337-.086-.471a.411.411,0,0,0,.086.471" transform="translate(39.856 18.903)" fill="#f72"/>
      <path id="Tracé_796" data-name="Tracé 796" d="M14.607,17.041l-.093-.548c-.1.086.041.212.093.548" transform="translate(35.46 19.12)" fill="#f72"/>
      <path id="Tracé_797" data-name="Tracé 797" d="M14.337,18.2l.179.333-.048-.507Z" transform="translate(35.114 20.891)" fill="#f72"/>
      <path id="Tracé_798" data-name="Tracé 798" d="M13.993,16.363l.034-.082-.152.214Z" transform="translate(33.982 18.874)" fill="#f72"/>
      <path id="Tracé_799" data-name="Tracé 799" d="M10.91,16.805l.169.672c.052-.127-.083-.885-.169-.672" transform="translate(26.72 19.438)" fill="#f72"/>
      <path id="Tracé_800" data-name="Tracé 800" d="M9.862,17.466c-.117-.335-.286-.54-.3-.2.11.039.262.294.3.2" transform="translate(23.426 19.814)" fill="#f72"/>
      <path id="Tracé_801" data-name="Tracé 801" d="M5.751,17.368l.045-.233-.131.2Z" transform="translate(13.874 19.864)" fill="#f72"/>
      <path id="Tracé_802" data-name="Tracé 802" d="M14.5,1.085c-.172-.153-.628-.464-.6-.365l.7.564Z" transform="translate(34.022 0.813)" fill="#f72"/>
      <path id="Tracé_803" data-name="Tracé 803" d="M13.537.527A8.561,8.561,0,0,0,15.11,1.805c-.645-.559-.324-.352-1.1-1.015-.021-.1.355.112.621.315-.169-.149.266.065-.169-.294-.666-.371-.8-.33-.431.076a3.779,3.779,0,0,1-.493-.361" transform="translate(33.153 0.612)" fill="#f72"/>
      <path id="Tracé_804" data-name="Tracé 804" d="M11.35,1.745l.131.041a.365.365,0,0,0-.131-.041" transform="translate(27.797 2.024)" fill="#f72"/>
      <path id="Tracé_805" data-name="Tracé 805" d="M10.168,2.679c.01-.03-.048-.091-.117-.14a.267.267,0,0,0,.117.14" transform="translate(24.616 2.944)" fill="#f72"/>
      <path id="Tracé_806" data-name="Tracé 806" d="M9.664,2.513a.748.748,0,0,0,.09.015c-.083-.041-.138-.06-.09-.015" transform="translate(23.623 2.884)" fill="#f72"/>
      <path id="Tracé_807" data-name="Tracé 807" d="M11.592,1.805l-.341-.112c.238.179.235.1.341.112" transform="translate(27.555 1.963)" fill="#f72"/>
      <path id="Tracé_808" data-name="Tracé 808" d="M13.906,1.445a.609.609,0,0,0-.141-.173.26.26,0,0,1,.028.086c.038.03.072.056.114.086" transform="translate(33.712 1.475)" fill="#f72"/>
      <path id="Tracé_809" data-name="Tracé 809" d="M11.855,1.24l.031-.019c-.076-.065-.169-.145-.279-.233Z" transform="translate(28.427 1.145)" fill="#f72"/>
      <path id="Tracé_810" data-name="Tracé 810" d="M12.036.728a9.505,9.505,0,0,0,.835.667,1.754,1.754,0,0,1-.373-.35c-.117-.089-.269-.19-.462-.317" transform="translate(29.467 0.845)" fill="#f72"/>
      <path id="Tracé_811" data-name="Tracé 811" d="M13.009.612,12.957.528c.021.026.028.054.052.084" transform="translate(31.733 0.613)" fill="#f72"/>
      <path id="Tracé_812" data-name="Tracé 812" d="M11.533,1.384c-.1-.067-.186-.123-.241-.158.083.058.162.11.241.158" transform="translate(27.655 1.422)" fill="#f72"/>
      <path id="Tracé_813" data-name="Tracé 813" d="M1.991,12.36l-.114-.082c.055.052.1.084.114.082" transform="translate(4.597 14.234)" fill="#f72"/>
      <path id="Tracé_814" data-name="Tracé 814" d="M.807,11.815l-.014-.037c-.117-.086-.235-.175-.352-.259Z" transform="translate(1.08 13.354)" fill="#f72"/>
      <path id="Tracé_815" data-name="Tracé 815" d="M9.068,2.56l.017.006c-.038-.071-.045-.052-.017-.006" transform="translate(22.167 2.921)" fill="#f72"/>
      <path id="Tracé_816" data-name="Tracé 816" d="M5.907,5.551c.7.339.521.639,1.345.989a6.219,6.219,0,0,0-1.345-.989" transform="translate(14.467 6.436)" fill="#f72"/>
      <path id="Tracé_817" data-name="Tracé 817" d="M13.806,1.332a.08.08,0,0,1-.048.035c.045,0,.059-.011.048-.035" transform="translate(33.695 1.545)" fill="#f72"/>
      <path id="Tracé_818" data-name="Tracé 818" d="M6.3,6.009l.007,0,.079.032L6.3,6.009" transform="translate(15.422 6.967)" fill="#f72"/>
      <path id="Tracé_819" data-name="Tracé 819" d="M8.343,3.383c.117.078.214.132.307.186a2.747,2.747,0,0,0-.307-.186" transform="translate(20.433 3.922)" fill="#f72"/>
      <path id="Tracé_820" data-name="Tracé 820" d="M9.317,3.167l-.138-.032a.331.331,0,0,0,.138.032" transform="translate(22.48 3.635)" fill="#f72"/>
      <path id="Tracé_821" data-name="Tracé 821" d="M8.384,3.98c-.076-.019-.176-.078-.128,0a.828.828,0,0,0,.09.05c-.076-.069-.1-.11.038-.054" transform="translate(20.189 4.57)" fill="#f72"/>
      <path id="Tracé_822" data-name="Tracé 822" d="M7.953,4.249c.055.032.1.054.148.08l0-.043Z" transform="translate(19.478 4.926)" fill="#f72"/>
      <path id="Tracé_823" data-name="Tracé 823" d="M3.273,11.542c-.2-.114-.417-.248-.624-.382.469.315.462.523.624.382" transform="translate(6.488 12.938)" fill="#f72"/>
      <path id="Tracé_824" data-name="Tracé 824" d="M13.7,1.232a1.136,1.136,0,0,1,.241.216l0-.045a2.72,2.72,0,0,0-.245-.171" transform="translate(33.558 1.429)" fill="#f72"/>
      <path id="Tracé_825" data-name="Tracé 825" d="M9.922,5.644l-.276.032a.473.473,0,0,0,.276-.032" transform="translate(23.624 6.543)" fill="#f72"/>
      <path id="Tracé_826" data-name="Tracé 826" d="M5.185,9.236l.034.078c.031,0,.028-.019-.034-.078" transform="translate(12.699 10.707)" fill="#f72"/>
      <path id="Tracé_827" data-name="Tracé 827" d="M9.9,5.966A3.508,3.508,0,0,0,9.359,5.7a1.614,1.614,0,0,0,.141.13Z" transform="translate(22.921 6.614)" fill="#f72"/>
      <path id="Tracé_828" data-name="Tracé 828" d="M2.647,11.157l.007,0-.007,0" transform="translate(6.482 12.935)" fill="#f72"/>
      <path id="Tracé_829" data-name="Tracé 829" d="M9.369,25.278c.193-.082-.738-.635-1.18-1-.031-.283.711.391,1.207.661-.09-.229-.759-.836-.631-.866a2.25,2.25,0,0,1,.366.257c-.528-.553.373-.244-.3-.931.086.048.162.1.228.138-.441-.287-.873-.592-1.169-.814.062-.052-.386-.458.19-.08-.062.013.155.175.3.311l-.159-.216c.859.525.162.255.742.674-.1-.27-.559-.838-.217-.745.793.54-.024.341.821.745l-.483-.11c1.355.8-.2,0,1.231.864.469.026-.114-.432.355-.406-.369-.337-.648-.445-1.021-.782-.417-.745,2.211,1.239,1.445.363-.445-.406-1.393-1.118-.693-.849l.8.659c.328-.069-1.111-.974-.276-.689.3.27.1.309.238.365.852.406-.376-.419-.252-.486l.8.54c.135-.227-.141-.779,0-1.034a2.887,2.887,0,0,0,.707.505c-.031-.471.855-.345,1.656-.205l-.535-.548a1.286,1.286,0,0,1,.452.3c.386.108-.414-.309-.61-.531.031-.076.483.22.635.391-.328-.535-.538-1.242.421-.864l.148.168c.466.089-1.142-1.1-.341-.751l.083.1c.711-.024.566-.715,1.89-.166-.893-.723.845.08-.462-.9a8.323,8.323,0,0,0,1.856.689c.152,0-.7-.672-.728-.833l.7.5-.579-.609.914.555-.072-.186a2.08,2.08,0,0,1-.6-.326c-.152-.315.886.134,1.245.389l-.2-.635a1.818,1.818,0,0,1,.431.466c-.507-.624.773.51.31-.063a4.984,4.984,0,0,1-.542-.412c.517.253.738.138.717-.076l.452.363c.41-.069.376-.5.707-.665a2.965,2.965,0,0,1-1.131-.823l.773.51c-.393-.361-.376-.147-.807-.615a3.106,3.106,0,0,1,1.09.769l-.11-.263c.228.153.31.257.583.462-.4-.361.993.4.283-.225l.228.153c.331-.171.224-.432.448-.6-.631-.462-.386-.415-.824-.829.4.041,1.111.285,1.29.121-.152-.317-.49-.415-.793-.728.59.41.769.246,1.062.611.186-.22.241-.279.124-.81a2.917,2.917,0,0,1-.6-.354c-.031-.1.39.1.659.3l.041.052c-.469-.84,2.608.719,1.714-.322l.041.052-.3-.633c.248-.009.345.365.814.561-.614-.887.7-.2.345-.825,1.935,1.108.679-.523,2.076.1l-.421-.281c-.317-.328.324.114.476.149-.321-.22-.448-.214-.617-.4.179-.71,1.963-.324,3.008-.432.355-.058-1.942-1.578-.666-1.056l.659.585c-.4-.92,1.059-.538.79-1.354.145.14.369.3.317.326.648.335.41-.19-.031-.51.128-.006.421.279.693.415.424.175-.431-.641.162-.283a.477.477,0,0,1,.172.184c-.2-.227.383-.125-.31-.54.486.114.076-.4.6-.207-.607-.557.652.071-.307-.659,1.011.743,1.149.417.786.006.269.244.421.175.8.51.121-.082.052-.287-.5-.652,1.469.747-.493-.98,1.214.076A2.671,2.671,0,0,1,34.168,9.6c1.011.743-.293.287.8,1.052-.083-.488-.766-1.224-.183-1.231.228.054.393.345.538.488-.083-.486.748-.289.493-.853a.884.884,0,0,1,.21.233c.028-.056.29.032-.183-.3l.069.123A8.523,8.523,0,0,1,34.4,7.71c1.228,1.013.631.08,2.149,1.375a1.96,1.96,0,0,0-.538-.488,1.545,1.545,0,0,1,.642.44c-.038-.3-.607-.611-.4-.708.224.162.272.246.514.447-.338-.369-.679-.736-.328-.689.128.1.321.22.269.244.21-.2-.69-1.1.038-.961.886.751.428.175,1.29.773l-.09-.27-.476-.259c.159-.069-.328-.581.072-.449l.241.309.11-.263-.476-.147c-.286-.393-1.083-.762-.655-.7.045.084.155-.069.728.248v0c-.2-.233-.407-.477-.09-.384.3.179.911.684,1.111.8-.638-.546.141-.324-.521-.913a6.478,6.478,0,0,0,.686.523L38.155,6.2a2.218,2.218,0,0,1,.693.415c.307-.035-1.135-.736-.435-.535.028.045.121.1.169.186.479.043.1-.514.6-.432.914.577.014.255.807.732.162-.285-.362-1.093.145-1.116l-.152-.035c-1.155-.887.821.3.41-.19a3.832,3.832,0,0,0,.493.4c.4.024.138-.447.076-.892l.272.244c.4.13.483-.063.759-.037-.269-.242-.141-.248-.638-.546,2.169,1.041-.152-1.106,1.676-.253-.038.026.166.253.2.233L43.267,4a5.611,5.611,0,0,0-.831-.464c-.269-.244-.424-.464-.345-.507a3.362,3.362,0,0,0,1.193.782c-.169-.11-.328-.248-.493-.363,1.093.581-1.028-.773-.176-.443l.262.2c-.059-.145-.345-.449-.176-.44.642.415.193.25.686.613.09-.1-.9-.961-.179-.589.114.151.041.194.155.343.835.445.666.307.873.337l-.024-.006.535.117-.248-.11c-1.418-1.222.034-.382-.786-1.242.773.816.531.425,1.2.928a2.847,2.847,0,0,1,.711.367c-.452-.453.6.222-.062-.438.224.155.128-.041.659.369-.041-.2-.414-.259-.679-.464-.552-.654,1.387.4.642-.5-.172-.443-.873-1-1.011-1.4a2.425,2.425,0,0,1,.742.613c.448.166.486.071.352-.175a3.5,3.5,0,0,0,.638.415c.038-.1-.738-.613-.286-.449.224.19.59.488.79.691-.09-.207-.39-.566-.473-.771a3.188,3.188,0,0,1,.721.661c-.041-.2-.007-.436-.576-.9l-.3-.11a2.387,2.387,0,0,1,.621.462c.366.4-.372-.065-.6-.22L46.74,1.17c-1.38-.885-.124.33-.366.367L45.5.822l.61.656a3.2,3.2,0,0,1-.89-.669c-.586-.27.228.3-.393-.017a.55.55,0,0,1-.162-.121l.166.266c-.176-.155-.683-.469-.476-.408-.755-.279.366.691-.424.22L43.891.7c.028.387.662.512,1.255,1.216L43.295.766l.662.514c-.055,0-.166-.006-.431-.212.362.4.317.207.7.564-.773-.376-.1.43-1.238-.345.473.406.545.216.755.564-1.228-.829.024.242-.652-.078-.569-.462-.121-.3-.8-.618.955.788-.483-.022-.4.181.817.594.1.378.186.678-.262-.205-.8-.134-1.273-.253l-.135-.1c.8.618.462.6.5.8a3.611,3.611,0,0,1-.817-.713l-.121.069c.238.207.341.328.355.44L40,1.787c-.128.114.4.706-.224.523.569.423,1.783,1.071,1.945,1.47a6.033,6.033,0,0,1-.935-.726c.021.039.193.222.021.149l-.438-.43c-.328-.114.39.345.266.352-.445-.324-.376-.2-.721-.46-.024-.041.252.1.107-.045a2.559,2.559,0,0,1-.911-.369c.262.177.6.432.6.507-.131.114-.593-.356-.917-.469.269.244-.155.069.51.553a2.49,2.49,0,0,1-.573-.317c.21.259-.31.276.5.736l.066.022.017.028c.386.631-.955.043-.945.4l-.224-.16c.093.272-.214.307.152.717a2.37,2.37,0,0,1-.769-.434c.041.19.279.378-.272.212-.262-.35-.386-.227-.155-.276-.355-.05-.752-.287-.317.246-.51-.445-.842-.451-.748-.285l.524.233c0,.106-.131.112-.259.119l-.711-.566c-1.249-.477.955,1.451-.831.486.438.428.552.168,1.09.654A13.527,13.527,0,0,1,34.3,4c-.628-.186.9.9.4.814.3.177,1.042.68,1.128.95a3.818,3.818,0,0,1-1.435-.916c.017-.037.121.015.207.082-.048-.1-.1-.216-.448-.393l.248.205c-.352-.155-.535-.019-.924-.365a.887.887,0,0,0,.617.4c-.586-.173-.321.16-.786.082a1.914,1.914,0,0,1,.493.315c-.631-.078.376.438.293.633-.524-.231-.935-.726-.8-.367a2.394,2.394,0,0,1-.907-.684c.331.475-.686-.056-.886-.067l-.121-.209c.072.125.021.147-.031.173L31.94,5a.77.77,0,0,1-.424-.173c.293.287.938.62,1.3,1.03-.348-.155.059.337-.679-.162.483.043-.742-.5-.655-.7.048.084,0,.106-.155.071a.518.518,0,0,1-.166-.149c-.866-.335.7.637.445.756-.369-.307-.817-.52-.769-.436.1-.048.717.458.935.726-.466-.14.069.259-.048.276l.238.056c.373.307.241.309.262.458-.321-.22-.117-.207-.293-.285.586.572-1-.382-.686.05-.352-.153-.762-.538-1.014-.635.335.475-.752-.287-.514.127a2.086,2.086,0,0,1,.862.713l-.062-.447.583.676c.1-.048-.138-.356.01-.32a1.891,1.891,0,0,0,.714.566c-.942-.512.21.482-.49.171l-1.331-.965c-.824-.3.279.715-.352.635l.328.114c.49.4-.11.153.007.361a6.37,6.37,0,0,0-.98-.587c.338.235-.245.1.617.754L28.9,7.337c-.479-.043,1,1.067.617,1.082-.417-.387-.838-.559-1.031-.892-.079.037-.231.017.076.24-.324-.177.39.551-.107.283.166.16.621.5.5.523a2.3,2.3,0,0,1-.221-.16c.221.16.166.289.735.6-1.631-.874-.562.434-1.966-.315a.822.822,0,0,1-.2.52c-.124-.1-.224-.162-.148-.143-.624-.186,1.155.993.452.79-.845-.453-.266-.352-.614-.507-1.5-1.041-.09.3-1.107-.227l-.048-.084c-.624-.294.255.564-.052.6a1.891,1.891,0,0,0-.221-.16c.614.613.6.935.614,1.19a3.679,3.679,0,0,0-.835-.667c-.007.106.962.661.952.874a9.928,9.928,0,0,1-1.411-.767l.131-.114c-.893-.535-.186.136-.41.082l-.341-.261c-.138.22.748.862.414.963l.3.177c.735.713-.617-.289-.11.261l-.938-.62a3.872,3.872,0,0,1,.517,1.023,6.371,6.371,0,0,1-.966-1.237c-.1.048-.262.225.128.57-.045-.084-.217-.268-.041-.19.586.57.776.9.569,1-1.7-1.265-.938-.043-2.421-.937.3.648-.945.171-1.238.46,1.487.894-.076.091,1.331,1.073,0,.114-.062.117-.159.056l-1.107-.443c-.469-.255-.217-.268-.538-.486-.307.032-.669-.378-1.169-.57.521.343.638.551.335.475l.8.374c.455.682-1.407-.7-.959-.026l-.348-.361c.114.263-.545.285.424,1.164a2.2,2.2,0,0,1-.635-.462c-.514.069.407,1.274-.548.928l-.31-.259c.034.106.524.52.1.32a1.639,1.639,0,0,0-.362-.257c.083.1.421.523.138.425l-.307-.313c-.783-.134.407.952.355,1.274a3.927,3.927,0,0,0-1.883-.849l-.135-.106c-.521.127.152.961.176,1.442-1.307-.656-1.221.093-2.194-.145a2.69,2.69,0,0,1,.8.669c-.29-.1.455.628-.448-.037l.048,0c-.959-.611-.9-.343-1.059-.285L14,15.766c-2.1-1.056-.3.972-2.059-.041.214.261.1.317.314.581l-.635-.464c-.4.013-.607.019-.748.291l-.4-.363c-.207.06,1.638,1.447,1.521,1.557l-1-.663c-.279.171-1.414-.274-.835.51-.138-.1-.4-.309-.4-.363-.162.058-1.18-.175.183.743-.859-.613-.386.1-.166.462l-.607-.469c.673.652.89.814.924,1.075-.124-.035-.542-.341-.321-.257-.479-.158.479.492-.034.348l-.335-.326c-.2.048.028.2.414.579.159.235-.445.043-1.038-.356.328.261.711.641.455.572a1.781,1.781,0,0,1-.379-.32c-.679-.171.359.734-.435.382a3,3,0,0,0-.407-.255c.217-.1.414-.162.445-.121a8.39,8.39,0,0,1-1.521-1.052c.31.387,1.038,1.194.607,1.082-.066-.035-.128-.071-.221-.132l-.052-.056c-.093-.022-.072.035,0,.121a.71.71,0,0,0-.307-.054c-.5-.337-.445-.084-.552-.058.645.456.435.438,1.059.762-.055-.026-.059-.063-.031-.11a.126.126,0,0,0-.031-.067l.048.043a.9.9,0,0,1,.159-.14c.262.268.466.5.024.294.366.317.742.646.911.8-1-.579-1.69-.808-2.266-1.185.11.393-.348.488.693,1.432.083.149-.424-.2-.638-.324-.079-.108-.014-.121-.162-.257.166.3-.3.313.5.933-.555-.175-.669-.609-.776-.378l-.224-.2c-1.811-.7,1.355,1.958-.89,1.015a1.42,1.42,0,0,1,.355.177c-1.359-.216-.538,1.188-2.332.652-.414-.082.1.311.4.661L2.5,22.354l.614.665c.324.551-2.114-.972-1.338-.013l.5.309c-.2,0-.09.393-.6,0,.072.067.441.365.155.216l-.362-.255.335.594C1.326,23.8.415,22.831.029,22.954a3.486,3.486,0,0,0,.99,1.08,1.7,1.7,0,0,1,.7.35l.079.194a14.42,14.42,0,0,0,3.032,1.976l-.459-.564.569.335-.124.108c.569.3.2-.039-.028-.283a4.07,4.07,0,0,0,.638.365l-.824-.825a5.278,5.278,0,0,0,1.086.732C5.31,26.04,4.685,25.8,4.52,25.5c.566.3.931.592.624.242a2.023,2.023,0,0,1,.517.432c-.235-.285.107-.233-.407-.661.683.376.159-.281,1.145.443-.207-.188-.617-.652-.576-.728,1.038.944.386-.123,1.628.821-.959-.836-.066-.568-.455-1.108.072.067.224.205.152.175a3.759,3.759,0,0,1,.835.322,7.55,7.55,0,0,1-1.349-1.334A17.087,17.087,0,0,1,8.455,25.47c-.724-.514-.473-.65-1.118-1.056a7.236,7.236,0,0,1,1.138.635c-1.09-.81-.09-.19-.679-.728.7.309,1.08.726.911.391a1.811,1.811,0,0,1,.662.566M11.5,21.693l.014.009-.048.071a.608.608,0,0,0,.034-.08m.331-.192a.333.333,0,0,0-.172.063c-.231-.153-.445-.322-.4-.333a2.413,2.413,0,0,0,.573.27M6.7,18.718c-.034-.1.107-.013.245.076a.151.151,0,0,0-.017.106L7,18.96c-.114-.091-.224-.175-.3-.242" transform="translate(0.071 0.554)" fill="#f72"/>
      <path id="Tracé_830" data-name="Tracé 830" d="M2.178,9.241c.007.015.028.037.024.045.066.035.124.063.176.086L2.2,9.217l-.021.024" transform="translate(5.334 10.685)" fill="#f72"/>
      <path id="Tracé_831" data-name="Tracé 831" d="M11.409,1.771l-.021-.006a1.007,1.007,0,0,1,.1.056l-.083-.05" transform="translate(27.89 2.047)" fill="#f72"/>
      <path id="Tracé_832" data-name="Tracé 832" d="M5.281,9.5l-.162-.114.114.117Z" transform="translate(12.537 10.878)" fill="#f72"/>
      <path id="Tracé_833" data-name="Tracé 833" d="M12.57,2.023a1.366,1.366,0,0,0,.186.1,1.619,1.619,0,0,0-.186-.1" transform="translate(30.785 2.346)" fill="#f72"/>
      <path id="Tracé_834" data-name="Tracé 834" d="M12.846,1.867l.341.1a1.845,1.845,0,0,0-.341-.1" transform="translate(31.461 2.165)" fill="#f72"/>
      <path id="Tracé_835" data-name="Tracé 835" d="M13.307,1.925c-.1-.084-.186-.147-.262-.2l0,0Z" transform="translate(31.939 1.995)" fill="#f72"/>
      <path id="Tracé_836" data-name="Tracé 836" d="M10.468,4.559a.043.043,0,0,0,0,.035c.069.119.059.063,0-.035" transform="translate(25.631 5.286)" fill="#f72"/>
      <path id="Tracé_837" data-name="Tracé 837" d="M10.889,3.321a2.648,2.648,0,0,1,.207.268c.1.006.152-.006-.207-.268" transform="translate(26.668 3.851)" fill="#f72"/>
      <path id="Tracé_838" data-name="Tracé 838" d="M9.757,5.648l-.01-.009-.021.011Z" transform="translate(23.819 6.538)" fill="#f72"/>
      <path id="Tracé_839" data-name="Tracé 839" d="M10.915,3.515c.179.063.2.019.148-.067-.086-.006-.2-.026-.148.067" transform="translate(26.701 3.991)" fill="#f72"/>
      <path id="Tracé_840" data-name="Tracé 840" d="M14.013,1.27l.055,0c-.041-.03-.072-.054-.1-.076Z" transform="translate(34.219 1.388)" fill="#f72"/>
      <path id="Tracé_841" data-name="Tracé 841" d="M14.01,1.235l-.041-.071c-.017.006-.024.017.041.071" transform="translate(34.181 1.35)" fill="#f72"/>
      <path id="Tracé_842" data-name="Tracé 842" d="M13.934,1.093l.09.153c.028-.013.076-.013-.09-.153" transform="translate(34.126 1.268)" fill="#f72"/>
      <path id="Tracé_843" data-name="Tracé 843" d="M13.66,1.341l.221.171c-.041-.037-.114-.093-.221-.171" transform="translate(33.455 1.555)" fill="#f72"/>
      <path id="Tracé_844" data-name="Tracé 844" d="M13.654,1.478c.114,0,.642.272.579.123l-.176-.136c.307.268-.735-.3-.4.013" transform="translate(33.278 1.602)" fill="#f72"/>
      <path id="Tracé_845" data-name="Tracé 845" d="M12.877,1.036l.393.019C12.987.9,12.611.686,12.646.591c-1-.384.6.367.231.445" transform="translate(30.157 0.56)" fill="#f72"/>
      <path id="Tracé_846" data-name="Tracé 846" d="M12.533.978c0-.143-.359-.257-.49-.361a.792.792,0,0,0,.49.361" transform="translate(29.495 0.716)" fill="#f72"/>
      <path id="Tracé_847" data-name="Tracé 847" d="M11.225,2.2l-.569-.423c0,.108.224.162.569.423" transform="translate(26.098 2.055)" fill="#f72"/>
      <path id="Tracé_848" data-name="Tracé 848" d="M11.46,3.3l.445.214-.49-.406Z" transform="translate(27.957 3.598)" fill="#f72"/>
      <path id="Tracé_849" data-name="Tracé 849" d="M10.111,1.994l-.045-.08.066.229Z" transform="translate(24.652 2.22)" fill="#f72"/>
      <path id="Tracé_850" data-name="Tracé 850" d="M7.857,4.034l.738.5c-.069-.123-.855-.708-.738-.5" transform="translate(19.215 4.625)" fill="#f72"/>
      <path id="Tracé_851" data-name="Tracé 851" d="M7.454,5.237c-.393-.235-.717-.35-.428-.065.128-.006.479.151.428.065" transform="translate(16.935 5.802)" fill="#f72"/>
      <path id="Tracé_852" data-name="Tracé 852" d="M3.891,7.414,3.722,7.2l.069.214Z" transform="translate(9.115 8.352)" fill="#f72"/>
    </g>
  </g>
</svg>
