<svg xmlns="http://www.w3.org/2000/svg" xmlns:xlink="http://www.w3.org/1999/xlink" width="34.198" height="33.288" viewBox="0 0 34.198 33.288">
  <defs>
    <clipPath id="clip-path">
      <rect id="Rectangle_52" data-name="Rectangle 52" width="28.46" height="27.211" fill="none"/>
    </clipPath>
  </defs>
  <g id="Groupe_40" data-name="Groupe 40" transform="translate(0 6.885) rotate(-14)">
    <g id="Groupe_39" data-name="Groupe 39" transform="translate(0 0)" clip-path="url(#clip-path)">
      <path id="Tracé_700" data-name="Tracé 700" d="M17.182,27.014c.032-.084.062-.279.014-.243L17.1,27.1Z" transform="translate(10.216 0)" fill="#f72"/>
      <path id="Tracé_701" data-name="Tracé 701" d="M17.143,26.385a2.2,2.2,0,0,0-.219.735c.109-.312.094-.179.219-.551.048-.035.05.111.018.231.032-.083.048.077.11-.128,0-.258-.064-.273-.174-.069a.906.906,0,0,1,.046-.218" transform="translate(10.11 0)" fill="#f72"/>
      <path id="Tracé_702" data-name="Tracé 702" d="M14.695,25.567l.018.041a.061.061,0,0,0-.018-.041" transform="translate(8.778 0)" fill="#f72"/>
      <path id="Tracé_703" data-name="Tracé 703" d="M13.212,25.2c.019-.007.034-.038.042-.068a.1.1,0,0,0-.042.068" transform="translate(7.892 0)" fill="#f72"/>
      <path id="Tracé_704" data-name="Tracé 704" d="M13,24.8c.006.011.014.016.019.024,0-.031-.008-.048-.019-.024" transform="translate(7.766 0)" fill="#f72"/>
      <path id="Tracé_705" data-name="Tracé 705" d="M14.714,25.567l-.043-.108c-.027.106.016.082.043.108" transform="translate(8.759 0)" fill="#f72"/>
      <path id="Tracé_706" data-name="Tracé 706" d="M16.627,27.135a.319.319,0,0,0,.053-.084.247.247,0,0,1-.04.033l-.013.051" transform="translate(9.932 0)" fill="#f72"/>
      <path id="Tracé_707" data-name="Tracé 707" d="M15.393,25.384h.019c.014-.037.029-.082.043-.132Z" transform="translate(9.195 0)" fill="#f72"/>
      <path id="Tracé_708" data-name="Tracé 708" d="M15.949,25.4a2.324,2.324,0,0,0-.11.386.54.54,0,0,1,.078-.188c.011-.053.022-.117.032-.2" transform="translate(9.462 0)" fill="#f72"/>
      <path id="Tracé_709" data-name="Tracé 709" d="M16.655,25.99l.03-.037c-.008.012-.021.022-.03.037" transform="translate(9.949 0)" fill="#f72"/>
      <path id="Tracé_710" data-name="Tracé 710" d="M15.036,25.278c.006-.041.011-.078.013-.1a.775.775,0,0,0-.013.1" transform="translate(8.982 0)" fill="#f72"/>
      <path id="Tracé_711" data-name="Tracé 711" d="M.524,25.582c0-.02.006-.032.01-.05-.01.028-.016.048-.01.05" transform="translate(0.311 0)" fill="#f72"/>
      <path id="Tracé_712" data-name="Tracé 712" d="M.106,24.126l.016-.014c.013-.053.024-.1.034-.156Z" transform="translate(0.063 0)" fill="#f72"/>
      <path id="Tracé_713" data-name="Tracé 713" d="M12.575,24.387l0,.006c.027-.031.014-.026,0-.006" transform="translate(7.512 0)" fill="#f72"/>
      <path id="Tracé_714" data-name="Tracé 714" d="M8.283,24.049c.029.255-.192.31-.129.6.011-.11.195-.426.129-.6" transform="translate(4.864 0)" fill="#f72"/>
      <path id="Tracé_715" data-name="Tracé 715" d="M16.631,27.1a.064.064,0,0,1-.034,0,.022.022,0,0,0,.034,0" transform="translate(9.914 0)" fill="#f72"/>
      <path id="Tracé_716" data-name="Tracé 716" d="M8.149,24.645v0l.006.028-.006-.03" transform="translate(4.868 0)" fill="#f72"/>
      <path id="Tracé_717" data-name="Tracé 717" d="M11.472,24.418a.881.881,0,0,0-.006.123.607.607,0,0,0,.006-.123" transform="translate(6.849 0)" fill="#f72"/>
      <path id="Tracé_718" data-name="Tracé 718" d="M12.236,24.916l-.024-.04c.008.027.016.036.024.04" transform="translate(7.295 0)" fill="#f72"/>
      <path id="Tracé_719" data-name="Tracé 719" d="M11.017,24.759c-.013-.023-.011-.062-.043-.026a.215.215,0,0,0,0,.034c.016-.037.03-.054.042-.008" transform="translate(6.555 0)" fill="#f72"/>
      <path id="Tracé_720" data-name="Tracé 720" d="M10.564,24.706c0,.022,0,.038,0,.057l.026-.013Z" transform="translate(6.311 0)" fill="#f72"/>
      <path id="Tracé_721" data-name="Tracé 721" d="M1.888,25.615a2.345,2.345,0,0,1,.018-.253c-.029.2-.145.262-.018.253" transform="translate(1.093 0)" fill="#f72"/>
      <path id="Tracé_722" data-name="Tracé 722" d="M16.663,26.978a.313.313,0,0,1-.045.118.077.077,0,0,0,.026-.013.462.462,0,0,0,.019-.1" transform="translate(9.927 0)" fill="#f72"/>
      <path id="Tracé_723" data-name="Tracé 723" d="M10.744,26.957l-.1-.05a.151.151,0,0,0,.1.05" transform="translate(6.357 0)" fill="#f72"/>
      <path id="Tracé_724" data-name="Tracé 724" d="M5.015,25.969,4.983,26c.008.008.019,0,.032-.031" transform="translate(2.977 0)" fill="#f72"/>
      <path id="Tracé_725" data-name="Tracé 725" d="M10.45,26.922a.588.588,0,0,0-.024-.2c-.008.022-.018.039-.027.071Z" transform="translate(6.212 0)" fill="#f72"/>
      <path id="Tracé_726" data-name="Tracé 726" d="M1.878,25.358v0" transform="translate(1.122 0)" fill="#f72"/>
      <path id="Tracé_727" data-name="Tracé 727" d="M2.137,25.964c.1.016.121-.355.187-.564.147-.094,0,.275.008.465.1-.09.227-.422.283-.4a.525.525,0,0,1-.029.158c.141-.285.249,0,.42-.353A.8.8,0,0,1,3,25.359a4.717,4.717,0,0,1,.086-.5c.048,0,.134-.225.1.016-.027-.009-.05.087-.078.161l.07-.1c-.024.348-.091.113-.142.368.12-.1.289-.38.343-.277-.053.338-.2.1-.157.407l-.089-.138c-.019.539-.062-.042-.1.533.131.109.2-.159.334-.048.072-.185.045-.278.117-.463.281-.32,0,.861.244.424.086-.221.188-.646.254-.412l-.115.378c.139.049.195-.541.3-.273-.058.148-.141.117-.128.164.04.309.115-.21.19-.2l-.051.339c.166-.041.387-.272.57-.32a.7.7,0,0,0-.061.31c.251-.152.455.077.625.294l.139-.285c.018,0,.008.134-.024.189.059.117.042-.184.1-.3.051-.016.027.173-.019.258.193-.236.518-.5.607-.176l-.048.084c.094.128.254-.586.308-.306l-.03.05c.23.146.567-.1.676.357.121-.416.216.207.35-.377.088.3.026.4.193.614.05.032.155-.359.235-.414l-.059.306L7.9,25.7l-.024.37L7.959,26a.37.37,0,0,1,0-.229c.128-.131.2.232.171.389l.288-.24a.623.623,0,0,1-.125.238c.188-.3-.042.324.131.047a1.077,1.077,0,0,1,.061-.243c.021.189.15.2.264.131l-.061.209c.165.067.39-.072.585-.053a.688.688,0,0,1,.1-.5l-.042.325c.077-.2-.037-.127.089-.365.065.043-.024.371-.088.473l.112-.1c-.014.1-.045.146-.075.268.077-.2.089.337.211-.007l-.014.1c.2.018.308-.086.471-.09.059-.278.11-.211.2-.433.1.1.185.328.332.315.128-.131.077-.234.155-.4-.043.254.1.242-.008.419a.822.822,0,0,0,.484-.223.584.584,0,0,1,.011-.239c.048-.039.069.113.038.235l-.016.025c.318-.362.409.785.708.271l-.016.025.254-.26c.083.051-.093.186-.056.349.3-.407.327.088.561-.18-.013.76.5-.015.586.478l.024-.177c.083-.17.038.1.065.149.022-.138-.021-.163.029-.257.449-.181.784.324,1.168.516.144.06.27-.906.377-.47l-.12.324c.385-.37.625.063.992-.247-.034.074-.054.172-.083.169.016.243.232.03.272-.165.043.026-.024.177-.014.278.035.146.22-.291.206-.052a.18.18,0,0,1-.048.094c.064-.112.187.044.2-.234.086.14.24-.1.3.065.12-.3.163.163.268-.27-.1.448.125.377.238.172-.051.134.035.145-.032.331.083,0,.174-.077.206-.309.043.549.388-.408.334.286a3.07,3.07,0,0,1,.786-.456c-.1.447-.249.026-.335.5.244-.168.439-.543.623-.419.04.065-.07.192-.1.267.243-.168.39.072.621-.157a.339.339,0,0,1-.064.118c.04-.012.072.072.109-.132l-.046.053c0-.3.267-.606.305-.761-.179.578.152.161-.094.89a.572.572,0,0,0,.1-.267c.027.042.022.122-.045.274.152-.1.15-.32.267-.306-.021.1-.053.134-.088.249.1-.187.2-.374.278-.283-.018.058-.021.137-.051.133.177-.016.393-.489.543-.289-.142.424.035.146-.03.518l.123-.1,0-.183c.088.013.219-.25.27-.123l-.1.147.179-.057-.065-.148c.128-.184.085-.469.182-.357-.032.036.086.012.088.233h0c.067-.114.137-.235.184-.138-.008.12-.1.409-.1.488.1-.306.222-.069.343-.4a1.628,1.628,0,0,0-.077.311l.088-.249a.439.439,0,0,1-.016.278c.113.055.056-.473.16-.259a.6.6,0,0,1-.048.094c.125.117.313-.138.423,0-.035.376-.136.082-.153.4.206-.052.49-.415.66-.312l-.027-.044c.131-.524.086.271.232.03a.921.921,0,0,0-.072.232c.112.094.289-.109.516-.259l-.051.133c.051.127.185.085.254.153.051-.133.094-.107.105-.306.1.79.562-.375.657.284-.027,0-.088.113-.065.115l.214-.109a.984.984,0,0,0,0-.323c.051-.134.126-.235.173-.231a.7.7,0,0,0-.062.5c.008-.071.037-.147.048-.219.018.416.109-.46.19-.174l-.032.119c.062-.057.142-.213.19-.174-.03.267-.08.12-.126.338.08-.01.252-.491.268-.221-.048.071-.094.069-.142.14.013.317.038.239.085.292l0-.007.1.151L25,26.82c.235-.684.22-.111.442-.553-.212.418-.072.246-.142.545a.514.514,0,0,1,.018.268c.11-.238.064.2.22-.149-.014.1.064.014,0,.256.094-.07.014-.169.046-.29.188-.321.208.423.476-.017.188-.174.283-.5.457-.65a.662.662,0,0,1-.11.35c.048.148.112.127.206.022a.69.69,0,0,0-.03.266c.064-.021.11-.349.158-.2a3.985,3.985,0,0,1-.136.384c.086-.083.19-.259.278-.34a.954.954,0,0,1-.141.36.646.646,0,0,0,.315-.4l-.032-.1c.032-.011-.03.23-.062.277-.11.2-.08-.1-.064-.2l.062-.058c.062-.571-.22.075-.316.034l.126-.409-.174.334a.763.763,0,0,1,.094-.4c-.032-.21-.094.141-.112-.091a.129.129,0,0,1,.018-.072l-.1.118c.03-.086.046-.293.078-.229-.08-.249-.268.293-.254-.024l.016-.024c-.206.125-.078.3-.283.647l.061-.755-.078.3c-.016-.013-.048-.038-.018-.159-.109.2-.014.133-.093.325-.034-.282-.27.11-.192-.374-.078.228.048.185-.078.337.078-.521-.126.081-.16-.164.08-.266.126-.118.094-.364-.139.45-.137-.111-.222-.03-.075.361-.177.139-.316.25.032-.12-.174-.215-.254-.353l.016-.061c-.094.363-.19.286-.284.355a1.018,1.018,0,0,1,.141-.4l-.075,0a.387.387,0,0,1-.134.213l.073-.271c-.1.007-.264.305-.356.113-.058.253-.04.715-.209.874a1.382,1.382,0,0,1,.112-.426c-.016.016-.065.11-.077.05l.1-.227c-.038-.106-.069.191-.112.166.04-.2-.006-.143.032-.3.016-.018.024.084.058.009a.426.426,0,0,1-.077-.311c-.018.112-.053.264-.1.287-.1.006.014-.239-.024-.344-.051.134-.086-.012-.147.281-.029,0-.006-.141,0-.221-.077.125-.248.018-.252.334l.01.022-.011.012c-.227.278-.318-.194-.51-.082l.019-.1c-.123.1-.236.049-.35.254-.029,0-.034-.184,0-.3-.091.068-.121.177-.2.007.112-.165,0-.154.1-.119-.081-.093-.073-.251-.233.008.086-.248-.011-.322-.073-.251l.034.185a.131.131,0,0,1-.145-.018l.091-.328c-.123-.418-.5.654-.524-.03-.1.226.078.171-.024.437-.085-.052-.088-.533-.117-.536-.091-.193-.216.473-.326.337a.943.943,0,0,1-.176.538c-.085-.051-.016-.5.062-.593.026-.008.029.03.019.07a.235.235,0,0,0,.077-.219l-.035.117c-.022-.124-.153-.121-.085-.312a.194.194,0,0,0-.029.256c-.086-.18-.187-.02-.288-.144.006.066,0,.206-.022.2-.152-.16-.125.217-.257.259-.034-.185.11-.426-.043-.286-.051-.127.046-.313.1-.407-.158.218-.181-.166-.236-.213l.078-.09a.1.1,0,0,1-.105.047l-.013.238c-.027-.044-.056-.047-.035-.145a4.005,4.005,0,0,1-.166.6c-.022-.123-.166.118-.12-.2.125.117.046-.315.181-.356-.032.035-.061.032-.086-.012a.15.15,0,0,1,.03-.082c-.083-.29-.134.348-.278.33.053-.175.034-.337,0-.3.058.008-.03.3-.112.426-.065-.144-.121.094-.166.075l.042.068c-.054.175-.1.148-.171.2.022-.138.077-.09.067-.152-.134.3-.1-.333-.241-.133-.022-.123.062-.331.038-.415-.158.219-.073-.251-.23-.072a.542.542,0,0,1-.125.407l.227-.152L18.946,25c.058.008.153-.14.181-.1a.467.467,0,0,0-.093.328c-.008-.361-.2.2-.244-.052l.121-.586c-.088-.272-.308.281-.46.119l.038.107c-.072.231-.12.023-.2.113a1.255,1.255,0,0,0,.022-.393c-.027.145-.131-.024-.225.366l-.029-.264c-.125-.118-.28.545-.406.467.085-.21.048-.353.174-.5-.048-.006-.081-.045-.11.09,0-.124-.184.254-.188.065-.037.084-.085.289-.134.268a.465.465,0,0,1,.019-.1c-.019.1-.109.125-.107.345-.021-.622-.412.013-.433-.522a1.064,1.064,0,0,1-.347.118c.018-.058.019-.1.034-.076-.091-.192-.192.556-.3.341-.011-.322.112-.165.089-.288.11-.646-.193.074-.216-.31l.03-.036c-.03-.225-.232.23-.345.174a.569.569,0,0,0,.021-.1,1.006,1.006,0,0,1-.466.5c.086-.249.08-.129.109-.387-.059.032-.067.412-.187.476a1.757,1.757,0,0,1-.013-.542l.1-.007c.019-.358-.131,0-.171-.064l.037-.154c-.163.039-.243.428-.4.387l-.006.119c-.168.379-.032-.223-.179.057l.051-.394a2.413,2.413,0,0,1-.4.428,2.737,2.737,0,0,1,.383-.591.267.267,0,0,0-.275.2c.032-.036.08-.13.091-.068-.133.3-.259.447-.374.431.174-.758-.265-.216-.232-.812-.264.265-.387-.152-.636-.126-.034.6-.073.011-.181.619-.064.034-.083.023-.08-.017l-.1-.376c0-.18.08-.129.1-.266-.113-.056,0-.261-.05-.429-.026.219-.1.308-.158.219l.043.288c-.236.309-.046-.521-.283-.215l.093-.186c-.112.1-.327-.03-.511.451,0-.072.011-.239.059-.28-.2-.09-.577.482-.68.168l.045-.147c-.048.04-.125.274-.144.121.014-.062.046-.147.029-.157-.03.049-.157.251-.192.161l.078-.164c-.168-.21-.4.382-.593.47.088-.437-.046-.592-.113-.669l.014-.061c-.228-.073-.481.329-.738.483-.043-.485-.43-.235-.6-.518a.711.711,0,0,1-.121.38c-.035-.093-.206.292-.117-.108l.018.009c.038-.4-.089-.3-.171-.317l-.118.523c-.067-.78-.631.234-.613-.458-.08.127-.144.12-.224.247l.059-.28a.387.387,0,0,0-.391-.072l.077-.2c-.1-.026-.292.8-.39.809l.056-.421c-.179-.008-.286-.39-.538-.024.016-.061.045-.182.077-.2-.081-.017-.267-.309-.351.269.073-.375-.177-.051-.307.107l.07-.276c-.152.347-.174.443-.307.532-.019-.038.021-.223.043-.149-.061-.152-.123.256-.2.1l.077-.173c-.088-.029-.1.067-.192.268-.08.107-.161-.083-.125-.334-.043.151-.134.351-.174.275a.447.447,0,0,1,.059-.18c-.117-.2-.294.3-.345.023a.559.559,0,0,0,.014-.166c.121.016.217.039.2.059.051-.255-.038-.308.11-.654-.118.186-.337.593-.411.466,0-.025,0-.05.006-.089l.014-.028c-.016-.027-.042,0-.069.036-.022-.044-.035-.077-.064-.083.03-.212-.091-.122-.139-.137-.051.28-.107.23-.093.465,0-.021.016-.033.051-.042a.066.066,0,0,0,.027-.027l-.008.024a1.033,1.033,0,0,1,.126-.009c-.067.139-.133.255-.157.1-.061.177-.126.359-.158.444.01-.394-.078-.615-.048-.856-.182.145-.375.076-.575.592-.056.064-.019-.154-.018-.238.035-.05.062-.04.091-.114-.113.127-.264.032-.358.4-.075-.173.128-.332-.032-.284l.042-.11c-.174-.608-.661.9-.834.121a.265.265,0,0,1,.013.131c-.3-.36-.823.251-1.08-.3-.083-.114-.141.119-.24.292l.038-.3-.177.337c-.2.241-.118-.756-.407-.293l-.016.2c-.062-.044-.244.1-.185-.129-.016.036-.065.208-.072.1L.8,23.639.575,23.9c-.11-.124.145-.621-.042-.667a1.246,1.246,0,0,0-.291.547c.027.01.054.1.026.261l-.083.077a2.969,2.969,0,0,0-.153,1.265L.2,25.1l-.01.226-.1.007c.011.215.083.031.147-.094a.712.712,0,0,0,0,.251l.2-.433c-.022.182-.121.355-.067.461.093-.2.032-.409.144-.537.013.214-.038.384.061.209A.528.528,0,0,1,.5,25.44c.085-.138.16-.049.24-.292,0,.264.2-.052.109.385.038-.1.168-.336.224-.35-.2.516.187.046.05.6.165-.465.294-.189.47-.44-.014.036-.043.111-.05.086.062.045.054.188.081.281a2.4,2.4,0,0,1,.319-.7c.01.382-.144.452-.19.815.059-.316.212-.3.235-.568a1.28,1.28,0,0,1,0,.442c.109-.485.077-.077.192-.372.046.248-.067.458.065.318a.521.521,0,0,1-.107.318m2.634-.647,0,.006-.054.012c.013,0,.027-.008.056-.018m.208.012a.193.193,0,0,0-.088-.018c.013-.1.04-.2.061-.189-.024.064.013.123.027.207m-.05-1.967c.042-.037.04.019.034.076a.223.223,0,0,0-.064.029l-.011.034a1.432,1.432,0,0,1,.042-.139" transform="translate(0 0)" fill="#f72"/>
      <path id="Tracé_728" data-name="Tracé 728" d="M3.01,23.723c-.006.006-.011.017-.018.019A.574.574,0,0,0,3,23.806c.011-.029.021-.058.03-.086l-.019,0" transform="translate(1.787 0)" fill="#f72"/>
      <path id="Tracé_729" data-name="Tracé 729" d="M14.709,25.615l0-.007a.163.163,0,0,1,0,.041l0-.034" transform="translate(8.785 0)" fill="#f72"/>
      <path id="Tracé_730" data-name="Tracé 730" d="M4.847,26.088l.014-.07-.03.06Z" transform="translate(2.886 0)" fill="#f72"/>
      <path id="Tracé_731" data-name="Tracé 731" d="M15.3,26.662a.279.279,0,0,0,0,.073.368.368,0,0,0,0-.073" transform="translate(9.14 0)" fill="#f72"/>
      <path id="Tracé_732" data-name="Tracé 732" d="M15.6,26.763l.05.1a.312.312,0,0,0-.05-.1" transform="translate(9.321 0)" fill="#f72"/>
      <path id="Tracé_733" data-name="Tracé 733" d="M15.823,26.931c.014-.049.024-.085.032-.119l0,0Z" transform="translate(9.452 0)" fill="#f72"/>
      <path id="Tracé_734" data-name="Tracé 734" d="M12.024,26.785a.034.034,0,0,0-.018.011c-.045.052-.018.032.018-.011" transform="translate(7.158 0)" fill="#f72"/>
      <path id="Tracé_735" data-name="Tracé 735" d="M13.246,26.274a.839.839,0,0,1-.085.127c.029.024.051.032.085-.127" transform="translate(7.862 0)" fill="#f72"/>
      <path id="Tracé_736" data-name="Tracé 736" d="M10.718,26.963l0,0h-.013Z" transform="translate(6.396 0)" fill="#f72"/>
      <path id="Tracé_737" data-name="Tracé 737" d="M13.109,26.39c.021.058.05.048.083.011-.022-.02-.048-.051-.083-.011" transform="translate(7.831 0)" fill="#f72"/>
      <path id="Tracé_738" data-name="Tracé 738" d="M16.835,27.187l.016.013c0-.018.008-.033.011-.045Z" transform="translate(10.057 0)" fill="#f72"/>
      <path id="Tracé_739" data-name="Tracé 739" d="M16.852,27.155l.027-.031c-.01,0-.018,0-.027.031" transform="translate(10.067 0)" fill="#f72"/>
      <path id="Tracé_740" data-name="Tracé 740" d="M16.926,27.057l-.058.067c.016,0,.032.012.058-.067" transform="translate(10.076 0)" fill="#f72"/>
      <path id="Tracé_741" data-name="Tracé 741" d="M16.547,27.019l-.026.1c.006-.021.016-.054.026-.1" transform="translate(9.869 0)" fill="#f72"/>
      <path id="Tracé_742" data-name="Tracé 742" d="M16.438,27.036c.032.026.048.223.112.164l.021-.081c-.054.149-.064-.251-.133-.083" transform="translate(9.819 0)" fill="#f72"/>
      <path id="Tracé_743" data-name="Tracé 743" d="M16.2,25.736l.112.091c0-.11,0-.257.062-.278-.1-.334-.016.244-.174.187" transform="translate(9.675 0)" fill="#f72"/>
      <path id="Tracé_744" data-name="Tracé 744" d="M15.974,25.548c.078-.045.03-.156.046-.217-.062.1-.078.118-.046.217" transform="translate(9.533 0)" fill="#f72"/>
      <path id="Tracé_745" data-name="Tracé 745" d="M14.177,25.322l.058-.253c-.061.032-.019.1-.058.253" transform="translate(8.469 0)" fill="#f72"/>
      <path id="Tracé_746" data-name="Tracé 746" d="M13.669,26.591l.019.162.072-.231Z" transform="translate(8.165 0)" fill="#f72"/>
      <path id="Tracé_747" data-name="Tracé 747" d="M13.723,24.757l.03-.034-.107.085Z" transform="translate(8.152 0)" fill="#f72"/>
      <path id="Tracé_748" data-name="Tracé 748" d="M10.69,24.469l-.046.314c.046-.053.125-.4.046-.314" transform="translate(6.358 0)" fill="#f72"/>
      <path id="Tracé_749" data-name="Tracé 749" d="M9.369,24.624c.01-.158-.027-.263-.1-.112.042.025.064.15.1.112" transform="translate(5.539 0)" fill="#f72"/>
      <path id="Tracé_750" data-name="Tracé 750" d="M5.513,23.625l.062-.1-.1.081Z" transform="translate(3.273 0)" fill="#f72"/>
      <path id="Tracé_751" data-name="Tracé 751" d="M17.847,17.653c0-.086-.05-.28-.081-.238l.037.331Z" transform="translate(10.613 0)" fill="#f72"/>
      <path id="Tracé_752" data-name="Tracé 752" d="M17.577,17.066a2.07,2.07,0,0,0,.077.746c-.016-.319.021-.188,0-.568.032-.041.089.1.107.221,0-.085.077.068.056-.14-.1-.25-.169-.255-.2-.04a.888.888,0,0,1-.04-.219" transform="translate(10.496 0)" fill="#f72"/>
      <path id="Tracé_753" data-name="Tracé 753" d="M15.08,16.857l.034.037a.077.077,0,0,0-.034-.037" transform="translate(9.008 0)" fill="#f72"/>
      <path id="Tracé_754" data-name="Tracé 754" d="M13.552,16.865c.016-.01.018-.042.013-.072a.082.082,0,0,0-.013.072" transform="translate(8.093 0)" fill="#f72"/>
      <path id="Tracé_755" data-name="Tracé 755" d="M13.249,16.535a.284.284,0,0,0,.029.021c-.016-.03-.029-.046-.029-.021" transform="translate(7.914 0)" fill="#f72"/>
      <path id="Tracé_756" data-name="Tracé 756" d="M15.112,16.857l-.085-.1c.016.107.048.077.085.1" transform="translate(8.977 0)" fill="#f72"/>
      <path id="Tracé_757" data-name="Tracé 757" d="M17.341,17.9a.215.215,0,0,0,.018-.089.143.143,0,0,1-.026.037l.008.052" transform="translate(10.354 0)" fill="#f72"/>
      <path id="Tracé_758" data-name="Tracé 758" d="M15.71,16.508l.019,0q0-.057-.01-.135Z" transform="translate(9.385 0)" fill="#f72"/>
      <path id="Tracé_759" data-name="Tracé 759" d="M16.215,16.394a2.154,2.154,0,0,0,.046.391.422.422,0,0,1,0-.194c-.011-.053-.026-.117-.048-.2" transform="translate(9.683 0)" fill="#f72"/>
      <path id="Tracé_760" data-name="Tracé 760" d="M17.083,16.784l.016-.04a.208.208,0,0,0-.016.04" transform="translate(10.205 0)" fill="#f72"/>
      <path id="Tracé_761" data-name="Tracé 761" d="M15.348,16.493a.918.918,0,0,0-.027-.1.619.619,0,0,0,.027.1" transform="translate(9.152 0)" fill="#f72"/>
      <path id="Tracé_762" data-name="Tracé 762" d="M1.353,20.368c0-.02-.006-.032-.01-.05,0,.029,0,.049.01.05" transform="translate(0.802 0)" fill="#f72"/>
      <path id="Tracé_763" data-name="Tracé 763" d="M.593,19.06l.01-.016c-.008-.053-.018-.105-.027-.156Z" transform="translate(0.343 0)" fill="#f72"/>
      <path id="Tracé_764" data-name="Tracé 764" d="M12.734,16.236l0,0c.013-.033,0-.027,0,0" transform="translate(7.607 0)" fill="#f72"/>
      <path id="Tracé_765" data-name="Tracé 765" d="M8.439,16.981c.128.243-.064.33.11.6-.034-.108.019-.444-.11-.6" transform="translate(5.041 0)" fill="#f72"/>
      <path id="Tracé_766" data-name="Tracé 766" d="M17.333,17.865a.061.061,0,0,1-.034.005c.018.008.027.006.034-.005" transform="translate(10.334 0)" fill="#f72"/>
      <path id="Tracé_767" data-name="Tracé 767" d="M8.508,17.579v0l.018.026-.018-.028" transform="translate(5.082 0)" fill="#f72"/>
      <path id="Tracé_768" data-name="Tracé 768" d="M11.67,16.539a.9.9,0,0,0,.042.121.7.7,0,0,0-.042-.121" transform="translate(6.971 0)" fill="#f72"/>
      <path id="Tracé_769" data-name="Tracé 769" d="M12.543,16.835,12.5,16.8c.018.025.03.033.04.035" transform="translate(7.469 0)" fill="#f72"/>
      <path id="Tracé_770" data-name="Tracé 770" d="M11.319,16.985c-.022-.02-.035-.058-.051-.019a.29.29,0,0,0,.014.034c0-.039.008-.058.037-.015" transform="translate(6.731 0)" fill="#f72"/>
      <path id="Tracé_771" data-name="Tracé 771" d="M10.864,17.041c.008.021.016.037.024.055l.019-.017Z" transform="translate(6.49 0)" fill="#f72"/>
      <path id="Tracé_772" data-name="Tracé 772" d="M2.689,20.068c-.03-.077-.058-.163-.081-.248.05.2-.038.276.081.248" transform="translate(1.558 0)" fill="#f72"/>
      <path id="Tracé_773" data-name="Tracé 773" d="M17.318,17.743a.276.276,0,0,1,0,.122.073.073,0,0,0,.021-.017.537.537,0,0,0-.024-.1" transform="translate(10.345 0)" fill="#f72"/>
      <path id="Tracé_774" data-name="Tracé 774" d="M11.6,19.188l-.118-.032a.188.188,0,0,0,.118.032" transform="translate(6.86 0)" fill="#f72"/>
      <path id="Tracé_775" data-name="Tracé 775" d="M5.794,19.637l-.021.035c.011.006.021,0,.021-.035" transform="translate(3.449 0)" fill="#f72"/>
      <path id="Tracé_776" data-name="Tracé 776" d="M11.32,19.222a.77.77,0,0,0-.1-.188.592.592,0,0,0,0,.073Z" transform="translate(6.702 0)" fill="#f72"/>
      <path id="Tracé_777" data-name="Tracé 777" d="M2.607,19.817l0,0,0,0" transform="translate(1.557 0)" fill="#f72"/>
      <path id="Tracé_778" data-name="Tracé 778" d="M3.249,20.537c.107,0-.022-.363-.042-.575.105-.114.112.265.192.449.059-.1.053-.444.115-.434a.5.5,0,0,1,.034.157c.026-.3.244-.033.268-.407.013.032.022.063.03.09a4.716,4.716,0,0,1-.115-.5c.046-.01.042-.238.107,0-.03-.005-.013.092-.013.168l.029-.108c.113.341-.043.124.008.379.073-.119.129-.413.224-.321.083.335-.152.126.008.418l-.141-.12c.193.525-.077-.031.117.531.171.086.134-.185.305-.1,0-.19-.067-.276-.07-.466.147-.353.337.834.406.373,0-.228-.073-.655.083-.439l.038.384c.153.027-.027-.554.177-.31,0,.152-.089.136-.058.179.158.293.027-.221.1-.227l.083.336c.145-.065.268-.322.428-.4a.668.668,0,0,0,.062.309c.184-.186.473,0,.722.188l.022-.3a.294.294,0,0,1,.051.187c.1.1-.032-.185-.016-.3.043-.024.094.163.083.253.094-.259.3-.564.518-.264L7,19.758c.141.109.014-.607.177-.344l-.011.053c.283.107.513-.182.8.242-.048-.422.291.167.19-.419.2.278.184.386.428.565.061.023.01-.372.065-.438l.062.305.029-.327.123.362.048-.084a.454.454,0,0,1-.1-.222c.073-.146.286.195.319.351l.185-.277a.535.535,0,0,1-.027.25c.064-.322.086.32.145.025a1.141,1.141,0,0,1-.038-.245c.094.18.227.172.308.086l.022.212c.187.041.35-.129.548-.141a.69.69,0,0,1-.1-.5l.088.321c0-.2-.085-.117-.056-.367.08.031.121.363.1.472l.067-.119a2.588,2.588,0,0,1,.032.272c0-.2.219.312.2-.041l.024.1c.2-.012.264-.131.422-.159-.053-.28.022-.223.024-.452.136.08.31.289.447.254.072-.146-.018-.238-.006-.408.058.254.195.219.158.407.161-.054.208-.067.382-.29a.6.6,0,0,1-.083-.234c.03-.045.109.1.128.223l0,.027c.166-.4.706.7.792.152l-.006.027.145-.292c.1.037-.018.2.081.348.131-.441.353.035.473-.262.288.74.476-.09.757.374l-.046-.176c.014-.177.078.1.121.134-.032-.136-.083-.154-.072-.253.363-.244.887.193,1.334.32.163.035-.1-.92.181-.514l.011.332c.228-.417.629-.035.863-.392,0,.077.018.175-.013.176.112.234.236-.006.2-.2.051.019.046.175.094.272.091.135.1-.317.181-.083a.144.144,0,0,1-.011.1c.019-.118.2.015.1-.257.139.122.192-.139.315.017,0-.312.222.132.153-.3.081.45.27.347.3.13,0,.138.091.136.1.326.08-.012.137-.1.077-.331.257.525.216-.456.438.226a2.154,2.154,0,0,1,.58-.563c.081.448-.232.063-.128.532.169-.2.211-.594.438-.5.065.057.008.2.006.275.169-.2.406.009.54-.249a.271.271,0,0,1-.014.125c.034-.018.1.059.053-.144l-.024.058c-.117-.291.019-.628,0-.785.054.588.211.133.26.877a.523.523,0,0,0-.006-.275c.043.037.07.116.065.273.107-.12.018-.333.136-.338a2.435,2.435,0,0,1,.014.256c.021-.2.043-.394.158-.318.006.06.032.136,0,.137.165-.043.187-.534.411-.364.03.433.093.137.176.506l.078-.118-.077-.177c.089,0,.113-.276.214-.161l-.035.158.15-.083-.121-.134c.051-.2-.1-.468.035-.373-.016.039.089,0,.177.212h0c.021-.121.04-.249.125-.162.04.117.067.411.094.488-.019-.312.188-.1.177-.436a1.412,1.412,0,0,0,.05.313l-.014-.254a.489.489,0,0,1,.094.271c.131.037-.133-.467.053-.276-.006.022.006.059-.01.1.166.094.249-.182.409-.069.113.37-.1.1.008.412.181-.083.311-.478.516-.405l-.043-.039c-.078-.528.192.249.236-.006a.958.958,0,0,0,.022.235c.145.075.236-.149.4-.33l0,.137c.1.115.212.054.307.109,0-.137.048-.119-.019-.313.406.751.4-.45.749.174-.027,0-.04.123-.019.122l.165-.139a1.091,1.091,0,0,0-.128-.313c0-.137.03-.247.077-.251-.054.159.075.368.137.493-.021-.069-.024-.148-.04-.219.181.4-.077-.463.115-.2l.016.121c.038-.066.054-.229.115-.2.075.264-.029.128.011.347.073-.021.051-.514.174-.255-.019.076-.065.081-.083.157.137.305.131.225.2.27l-.006-.006.158.131-.05-.082c-.042-.7.169-.142.209-.6-.04.439.029.25.078.551a.583.583,0,0,1,.121.256c.013-.247.141.183.157-.178.022.1.067,0,.1.248.064-.082-.053-.167-.07-.289.058-.34.369.379.455-.089.115-.2.078-.527.187-.7a.594.594,0,0,1,.03.355c.105.137.158.106.209-.01a.7.7,0,0,0,.075.262c.053-.029-.032-.355.073-.218a3.585,3.585,0,0,1,.019.393c.051-.094.083-.28.136-.373a.835.835,0,0,1,.006.371.486.486,0,0,0,.147-.438l-.07-.091c.027-.015.061.228.05.278-.027.215-.118-.084-.141-.181l.038-.066c-.166-.564-.185.107-.294.082l-.04-.416-.035.35a.737.737,0,0,1-.067-.4c-.113-.2-.035.151-.144-.071a.119.119,0,0,1-.011-.072l-.046.128c0-.087-.07-.29-.014-.234-.176-.228-.145.326-.256.017l.006-.026c-.15.153.043.3-.019.67l-.24-.74.043.3c-.021-.01-.061-.029-.078-.151-.027.213.038.131.037.33-.142-.269-.217.148-.332-.334.014.233.12.172.058.339-.131-.517-.091.1-.219-.134-.029-.27.075-.134-.053-.367.042.457-.177-.087-.227,0,.069.361-.118.162-.208.291-.018-.122-.254-.181-.387-.3l-.01-.061c.053.366-.07.306-.134.387a.918.918,0,0,1-.021-.406l-.073.007a.306.306,0,0,1-.046.227l-.035-.274c-.1.023-.137.337-.3.165.045.255.243.7.142.88a1.4,1.4,0,0,1-.061-.431c-.008.019-.018.117-.053.061l.008-.236c-.08-.1.008.2-.043.178-.038-.2-.062-.137-.088-.293.01-.02.058.077.061,0a.551.551,0,0,1-.2-.289c.027.111.053.264.019.293-.1.022-.08-.233-.158-.33,0,.138-.089,0-.032.3-.03,0-.062-.135-.089-.214-.026.134-.233.056-.113.363l.018.02-.006.013c-.11.305-.383-.138-.527,0l-.019-.1c-.077.12-.209.084-.238.3-.03,0-.107-.173-.117-.291-.062.08-.048.19-.192.037.043-.177-.056-.149.054-.131-.117-.077-.171-.232-.224.044-.014-.254-.137-.31-.169-.232l.105.175c-.046.041-.1.022-.149,0l-.04-.332c-.284-.386-.232.712-.521.052-.008.235.144.154.149.428-.1-.038-.294-.5-.323-.5-.165-.173-.024.491-.184.377.042.116.12.429.042.548-.1-.036-.214-.485-.173-.584.021-.012.038.025.045.065a.206.206,0,0,0-.011-.224l.011.119c-.07-.117-.2-.094-.2-.29a.207.207,0,0,0,.073.253c-.155-.161-.188.009-.335-.095.032.063.078.2.059.2-.211-.132-.037.23-.149.291-.105-.174-.061-.431-.155-.27a.561.561,0,0,1-.067-.41c-.067.236-.24-.133-.313-.169l.042-.1c-.026.059-.054.06-.085.061l.081.233c-.043-.038-.072-.037-.091-.135a3.974,3.974,0,0,1,.077.607c-.07-.117-.117.139-.195-.172.168.094-.078-.313.035-.373-.016.039-.046.04-.089,0a.126.126,0,0,1,0-.084c-.2-.268.006.359-.141.363-.016-.177-.1-.331-.117-.292.059,0,.086.292.061.431-.121-.13-.081.11-.133.1l.069.061c.016.177-.035.158-.089.218-.032-.136.04-.1,0-.157-.01.315-.227-.308-.284-.092-.07-.115-.07-.33-.128-.408-.067.237-.169-.232-.251-.034a.5.5,0,0,1,.038.413l.161-.182-.056.354c.059,0,.094-.158.137-.121a.444.444,0,0,0,.04.333c-.15-.349-.117.219-.257-.013l-.115-.587c-.192-.25-.187.321-.4.187l.078.1c.022.234-.105.041-.145.14a1.374,1.374,0,0,0-.133-.385c.032.145-.136,0-.073.39L18.16,16.8c-.168-.094-.056.571-.209.516,0-.217-.091-.35-.029-.51-.046,0-.1-.031-.07.1-.051-.121-.077.274-.157.091,0,.088.032.293-.024.281a.451.451,0,0,1-.019-.1c.019.1-.056.139.032.352-.265-.6-.395.076-.625-.439a.826.826,0,0,1-.291.168c0-.059-.019-.1,0-.079-.165-.172.034.568-.153.377-.137-.311.043-.178-.027-.294-.149-.643-.158.1-.332-.267l.018-.04c-.12-.213-.136.259-.267.222a.463.463,0,0,0-.019-.1.73.73,0,0,1-.254.557c-.014-.255.027-.138-.048-.392-.045.04.1.41.006.49a2.044,2.044,0,0,1-.225-.523l.1-.022c-.121-.35-.126.022-.192-.036l-.024-.155c-.142.062-.067.452-.236.437l.04.116c-.011.393-.118-.211-.15.083l-.105-.39a1.734,1.734,0,0,1-.222.477,2.113,2.113,0,0,1,.139-.632c-.059,0-.193.044-.185.24.016-.039.027-.138.062-.079-.011.313-.075.472-.193.474-.131-.761-.343-.167-.545-.751-.15.3-.434-.087-.666-.023.2.584-.067.022.069.627-.048.043-.072.035-.085,0l-.241-.349c-.075-.173.027-.138-.006-.273-.131-.037-.1-.254-.216-.408.061.215.019.314-.067.236l.155.272c-.107.337-.251-.5-.359-.164l.016-.195c-.065.12-.327.022-.318.516-.029-.069-.083-.233-.053-.28-.227-.057-.369.555-.593.268l-.014-.149c-.03.046-.013.284-.093.138-.01-.061-.013-.149-.034-.156-.01.052-.053.268-.123.185l.013-.17c-.246-.178-.236.431-.39.547a.862.862,0,0,0-.374-.631l-.01-.062c-.251-.035-.337.394-.526.583-.233-.463-.508-.162-.784-.41a.65.65,0,0,1,.032.387c-.07-.084-.083.315-.155-.087l.019.007c-.117-.39-.2-.277-.289-.282l.091.526c-.372-.746-.519.324-.775-.349-.027.135-.093.139-.118.274l-.054-.281a.419.419,0,0,0-.409-.009l0-.2c-.105-.01.034.82-.058.844l-.112-.417c-.177.021-.431-.334-.532.061-.008-.062-.027-.184,0-.2-.086,0-.382-.259-.236.315-.077-.375-.192-.023-.254.15l-.04-.277c-.011.359,0,.456-.089.563-.034-.034-.067-.22-.018-.152-.118-.138-.018.268-.155.129l0-.18c-.1-.014-.07.08-.08.29-.035.115-.188-.056-.252-.305.019.153.008.361-.061.293a.409.409,0,0,1-.013-.183c-.192-.176-.166.339-.326.076a.688.688,0,0,0-.051-.164c.125,0,.225.005.22.026-.051-.255-.158-.292-.15-.651-.042.2-.093.627-.214.515-.01-.025-.019-.049-.03-.088l0-.029c-.027-.024-.043,0-.053.046-.04-.039-.065-.069-.1-.071-.053-.209-.136-.1-.187-.111.059.279-.014.239.093.465-.011-.02,0-.034.034-.049a.055.055,0,0,0,.014-.03l0,.025a.765.765,0,0,1,.12-.028c-.011.144-.029.267-.113.116.01.181.019.368.021.456-.145-.384-.318-.584-.383-.823-.12.169-.334.131-.324.663-.029.07-.078-.147-.112-.228.014-.054.046-.049.045-.125-.059.141-.244.072-.192.44-.141-.157-.006-.342-.142-.271l0-.113c-.407-.562-.288.971-.76.246a.323.323,0,0,1,.064.125c-.434-.3-.7.37-1.166-.126-.125-.1-.089.136-.117.319l-.083-.3-.038.355c-.1.265-.412-.715-.51-.221l.065.2c-.078-.033-.2.136-.232-.1,0,.037.019.211-.029.108l-.034-.156-.118.282c-.155-.1-.1-.624-.3-.64a1.019,1.019,0,0,0-.065.576c.03.005.093.091.126.248l-.05.087a3.147,3.147,0,0,0,.35,1.25L1.033,20l.081.221-.093.022c.1.206.093.017.105-.114a.832.832,0,0,0,.1.244l.022-.451c.05.18.021.363.115.457.011-.209-.129-.4-.072-.543.1.206.115.378.142.194a.5.5,0,0,1,.019.25c.029-.147.137-.072.117-.32.109.255.177-.082.259.355,0-.106.03-.351.078-.373.01.531.2.016.286.579-.024-.476.211-.229.283-.5,0,.038,0,.115-.014.092.078.034.126.174.188.259a2.083,2.083,0,0,1,.032-.731c.161.368.04.461.139.819-.067-.315.085-.326,0-.586A1.452,1.452,0,0,1,3,20.3c-.086-.487.043-.087.038-.389.142.232.115.453.19.3a.469.469,0,0,1,.021.325m2.3-1.034,0,.006-.048.02c.01,0,.024-.012.046-.026m.208-.02a.2.2,0,0,0-.093,0c-.027-.1-.038-.2-.016-.192,0,.065.061.117.109.2m-.824-1.9c.026-.042.046.012.062.069a.143.143,0,0,0-.05.038l0,.034c-.006-.053-.013-.1-.014-.141" transform="translate(0.318 0)" fill="#f72"/>
      <path id="Tracé_779" data-name="Tracé 779" d="M3.3,17.954c0,.006,0,.018-.01.021.011.024.022.045.032.062a.815.815,0,0,0-.006-.089l-.016.006" transform="translate(1.964 0)" fill="#f72"/>
      <path id="Tracé_780" data-name="Tracé 780" d="M15.106,16.9l-.006-.006a.155.155,0,0,1,.018.039c0-.013-.006-.022-.011-.033" transform="translate(9.02 0)" fill="#f72"/>
      <path id="Tracé_781" data-name="Tracé 781" d="M5.666,19.792l-.014-.07-.006.063Z" transform="translate(3.372 0)" fill="#f72"/>
      <path id="Tracé_782" data-name="Tracé 782" d="M15.938,17.768a.268.268,0,0,0,.027.07.327.327,0,0,0-.027-.07" transform="translate(9.521 0)" fill="#f72"/>
      <path id="Tracé_783" data-name="Tracé 783" d="M16.254,17.792l.089.094a.448.448,0,0,0-.089-.094" transform="translate(9.71 0)" fill="#f72"/>
      <path id="Tracé_784" data-name="Tracé 784" d="M16.515,17.9c0-.049-.011-.086-.016-.12l0,0Z" transform="translate(9.855 0)" fill="#f72"/>
      <path id="Tracé_785" data-name="Tracé 785" d="M12.786,18.7a.024.024,0,0,0-.013.014c-.022.056,0,.033.013-.014" transform="translate(7.624 0)" fill="#f72"/>
      <path id="Tracé_786" data-name="Tracé 786" d="M13.83,17.908a.717.717,0,0,1-.032.136c.037.019.062.023.032-.136" transform="translate(8.242 0)" fill="#f72"/>
      <path id="Tracé_787" data-name="Tracé 787" d="M11.57,19.192v-.005h-.013Z" transform="translate(6.904 0)" fill="#f72"/>
      <path id="Tracé_788" data-name="Tracé 788" d="M13.746,18.045c.043.053.067.039.085,0-.03-.016-.067-.042-.085,0" transform="translate(8.211 0)" fill="#f72"/>
      <path id="Tracé_789" data-name="Tracé 789" d="M17.553,17.9l.021.01a.175.175,0,0,1-.006-.045Z" transform="translate(10.486 0)" fill="#f72"/>
      <path id="Tracé_790" data-name="Tracé 790" d="M17.561,17.864l.014-.035c-.01,0-.018,0-.014.035" transform="translate(10.49 0)" fill="#f72"/>
      <path id="Tracé_791" data-name="Tracé 791" d="M17.6,17.756l-.029.074c.014,0,.035.006.029-.074" transform="translate(10.496 0)" fill="#f72"/>
      <path id="Tracé_792" data-name="Tracé 792" d="M17.222,17.809l.014.1a.773.773,0,0,0-.014-.1" transform="translate(10.288 0)" fill="#f72"/>
      <path id="Tracé_793" data-name="Tracé 793" d="M17.131,17.85c.042.02.134.209.173.141l-.011-.08c.006.152-.161-.234-.161-.061" transform="translate(10.233 0)" fill="#f72"/>
      <path id="Tracé_794" data-name="Tracé 794" d="M16.576,16.65l.144.071c-.043-.106-.1-.249-.05-.279-.225-.309.081.238-.094.208" transform="translate(9.902 0)" fill="#f72"/>
      <path id="Tracé_795" data-name="Tracé 795" d="M16.33,16.524c.059-.055-.032-.156-.04-.218a.19.19,0,0,0,.04.218" transform="translate(9.721 0)" fill="#f72"/>
      <path id="Tracé_796" data-name="Tracé 796" d="M14.538,16.747l-.043-.254c-.046.04.019.1.043.254" transform="translate(8.649 0)" fill="#f72"/>
      <path id="Tracé_797" data-name="Tracé 797" d="M14.337,18.1l.083.154-.022-.235Z" transform="translate(8.565 0)" fill="#f72"/>
      <path id="Tracé_798" data-name="Tracé 798" d="M13.93,16.319l.016-.038-.07.1Z" transform="translate(8.289 0)" fill="#f72"/>
      <path id="Tracé_799" data-name="Tracé 799" d="M10.91,16.785l.078.311c.024-.059-.038-.41-.078-.311" transform="translate(6.517 0)" fill="#f72"/>
      <path id="Tracé_800" data-name="Tracé 800" d="M9.7,17.265c-.054-.155-.133-.25-.137-.094.051.018.121.136.137.094" transform="translate(5.714 0)" fill="#f72"/>
      <path id="Tracé_801" data-name="Tracé 801" d="M5.7,17.243l.021-.108-.061.093Z" transform="translate(3.384 0)" fill="#f72"/>
      <path id="Tracé_802" data-name="Tracé 802" d="M14.172.879c-.08-.071-.291-.215-.28-.169l.326.261Z" transform="translate(8.298 0)" fill="#f72"/>
      <path id="Tracé_803" data-name="Tracé 803" d="M13.537.527a3.965,3.965,0,0,0,.728.592c-.3-.259-.15-.163-.51-.47C13.746.6,13.92.7,14.043.8c-.078-.069.123.03-.078-.136-.308-.172-.369-.153-.2.035a1.75,1.75,0,0,1-.228-.167" transform="translate(8.086 0)" fill="#f72"/>
      <path id="Tracé_804" data-name="Tracé 804" d="M11.35,1.745l.061.019a.169.169,0,0,0-.061-.019" transform="translate(6.78 0)" fill="#f72"/>
      <path id="Tracé_805" data-name="Tracé 805" d="M10.105,2.6c0-.014-.022-.042-.054-.065a.124.124,0,0,0,.054.065" transform="translate(6.004 0)" fill="#f72"/>
      <path id="Tracé_806" data-name="Tracé 806" d="M9.654,2.5a.346.346,0,0,0,.042.007c-.038-.019-.064-.028-.042-.007" transform="translate(5.762 0)" fill="#f72"/>
      <path id="Tracé_807" data-name="Tracé 807" d="M11.409,1.745l-.158-.052c.11.083.109.047.158.052" transform="translate(6.721 0)" fill="#f72"/>
      <path id="Tracé_808" data-name="Tracé 808" d="M13.83,1.352a.282.282,0,0,0-.065-.08.12.12,0,0,1,.013.04l.053.04" transform="translate(8.223 0)" fill="#f72"/>
      <path id="Tracé_809" data-name="Tracé 809" d="M11.722,1.1l.014-.009c-.035-.03-.078-.067-.129-.108Z" transform="translate(6.934 0)" fill="#f72"/>
      <path id="Tracé_810" data-name="Tracé 810" d="M12.034.728a4.4,4.4,0,0,0,.387.309.812.812,0,0,1-.173-.162c-.054-.041-.125-.088-.214-.147" transform="translate(7.187 0)" fill="#f72"/>
      <path id="Tracé_811" data-name="Tracé 811" d="M12.981.567,12.957.528c.01.012.013.025.024.039" transform="translate(7.74 0)" fill="#f72"/>
      <path id="Tracé_812" data-name="Tracé 812" d="M11.4,1.3c-.045-.031-.086-.057-.112-.073.038.027.075.051.112.073" transform="translate(6.745 0)" fill="#f72"/>
      <path id="Tracé_813" data-name="Tracé 813" d="M1.93,12.316l-.053-.038c.026.024.046.039.053.038" transform="translate(1.121 0)" fill="#f72"/>
      <path id="Tracé_814" data-name="Tracé 814" d="M.61,11.656.6,11.639C.55,11.6.5,11.558.441,11.519Z" transform="translate(0.263 0)" fill="#f72"/>
      <path id="Tracé_815" data-name="Tracé 815" d="M9.059,2.538l.008,0c-.018-.033-.021-.024-.008,0" transform="translate(5.407 0)" fill="#f72"/>
      <path id="Tracé_816" data-name="Tracé 816" d="M5.907,5.551c.323.157.241.3.623.458a2.88,2.88,0,0,0-.623-.458" transform="translate(3.529 0)" fill="#f72"/>
      <path id="Tracé_817" data-name="Tracé 817" d="M13.78,1.332a.037.037,0,0,1-.022.016c.021,0,.027,0,.022-.016" transform="translate(8.219 0)" fill="#f72"/>
      <path id="Tracé_818" data-name="Tracé 818" d="M6.3,6.009l0,0,.037.015L6.3,6.009" transform="translate(3.762 0)" fill="#f72"/>
      <path id="Tracé_819" data-name="Tracé 819" d="M8.343,3.383c.054.036.1.061.142.086a1.272,1.272,0,0,0-.142-.086" transform="translate(4.984 0)" fill="#f72"/>
      <path id="Tracé_820" data-name="Tracé 820" d="M9.243,3.15l-.064-.015a.153.153,0,0,0,.064.015" transform="translate(5.483 0)" fill="#f72"/>
      <path id="Tracé_821" data-name="Tracé 821" d="M8.308,3.959c-.035-.009-.081-.036-.059,0a.383.383,0,0,0,.042.023c-.035-.032-.045-.051.018-.025" transform="translate(4.924 0)" fill="#f72"/>
      <path id="Tracé_822" data-name="Tracé 822" d="M7.953,4.249c.026.015.046.025.069.037l0-.02Z" transform="translate(4.751 0)" fill="#f72"/>
      <path id="Tracé_823" data-name="Tracé 823" d="M2.938,11.337c-.094-.053-.193-.115-.289-.177.217.146.214.242.289.177" transform="translate(1.582 0)" fill="#f72"/>
      <path id="Tracé_824" data-name="Tracé 824" d="M13.7,1.232a.526.526,0,0,1,.112.1l0-.021a1.259,1.259,0,0,0-.113-.079" transform="translate(8.185 0)" fill="#f72"/>
      <path id="Tracé_825" data-name="Tracé 825" d="M9.774,5.644l-.128.015a.219.219,0,0,0,.128-.015" transform="translate(5.762 0)" fill="#f72"/>
      <path id="Tracé_826" data-name="Tracé 826" d="M5.185,9.236l.016.036c.014,0,.013-.009-.016-.036" transform="translate(3.097 0)" fill="#f72"/>
      <path id="Tracé_827" data-name="Tracé 827" d="M9.61,5.826A1.625,1.625,0,0,0,9.359,5.7a.747.747,0,0,0,.065.06Z" transform="translate(5.591 0)" fill="#f72"/>
      <path id="Tracé_828" data-name="Tracé 828" d="M2.647,11.157l0,0,0,0" transform="translate(1.581 0)" fill="#f72"/>
      <path id="Tracé_829" data-name="Tracé 829" d="M4.355,11.963c.089-.038-.342-.294-.546-.463-.014-.131.329.181.559.306-.042-.106-.351-.387-.292-.4a1.042,1.042,0,0,1,.169.119c-.244-.256.173-.113-.141-.431.04.022.075.044.105.064-.2-.133-.4-.274-.542-.377.029-.024-.179-.212.088-.037-.029.006.072.081.141.144l-.073-.1c.4.243.075.118.343.312-.045-.125-.259-.388-.1-.345.367.25-.011.158.38.345l-.224-.051c.628.369-.093,0,.57.4.217.012-.053-.2.165-.188-.171-.156-.3-.206-.473-.362-.193-.345,1.024.574.669.168-.206-.188-.645-.518-.321-.393l.372.3c.152-.032-.514-.451-.128-.319.137.125.046.143.11.169.395.188-.174-.194-.117-.225l.369.25c.062-.1-.065-.361,0-.479a1.337,1.337,0,0,0,.327.234c-.014-.218.4-.16.767-.1l-.248-.254A.6.6,0,0,1,6.5,10.4c.179.05-.192-.143-.283-.246.014-.035.224.1.294.181-.152-.248-.249-.575.195-.4l.069.078c.216.041-.529-.51-.158-.348l.038.048c.329-.011.262-.331.875-.077-.414-.335.391.037-.214-.415a3.854,3.854,0,0,0,.859.319c.07,0-.324-.311-.337-.386l.324.232L7.891,9.1l.423.257-.034-.086A.963.963,0,0,1,8,9.12c-.07-.146.411.062.577.18l-.093-.294a.842.842,0,0,1,.2.216c-.235-.289.358.236.144-.029A2.308,2.308,0,0,1,8.581,9c.24.117.342.064.332-.035l.209.168c.19-.032.174-.23.327-.308a1.373,1.373,0,0,1-.524-.381l.358.236C9.1,8.515,9.11,8.614,8.91,8.4a1.438,1.438,0,0,1,.5.356l-.051-.122c.105.071.144.119.27.214-.184-.167.46.183.131-.1l.105.071c.153-.079.1-.2.208-.279-.292-.214-.179-.192-.382-.384.184.019.514.132.6.056-.07-.147-.227-.192-.367-.337.273.19.356.114.492.283.086-.1.112-.129.058-.375a1.351,1.351,0,0,1-.276-.164c-.014-.048.181.044.305.139l.019.024c-.217-.389,1.208.333.794-.149l.019.024L11.2,7.357c.115,0,.16.169.377.26-.284-.411.324-.094.16-.382.9.513.315-.242.962.046l-.195-.13c-.147-.152.15.053.22.069-.149-.1-.208-.1-.286-.185.083-.329.909-.15,1.393-.2.165-.027-.9-.731-.308-.489l.305.271c-.184-.426.49-.249.366-.627.067.065.171.14.147.151.3.155.19-.088-.014-.236.059,0,.195.129.321.192.2.081-.2-.3.075-.131a.221.221,0,0,1,.08.085c-.091-.105.177-.058-.144-.25.225.053.035-.183.276-.1-.281-.258.3.033-.142-.3.468.344.532.193.364,0,.125.113.195.081.372.236.056-.038.024-.133-.23-.3.68.346-.228-.454.562.035a1.237,1.237,0,0,1-.019-.67c.468.344-.136.133.369.487-.038-.226-.355-.567-.085-.57.105.025.182.16.249.226-.038-.225.347-.134.228-.395a.409.409,0,0,1,.1.108c.013-.026.134.015-.085-.138l.032.057a3.947,3.947,0,0,1-.7-.65c.569.469.292.037,1,.637a.908.908,0,0,0-.249-.226.716.716,0,0,1,.3.2c-.018-.137-.281-.283-.187-.328.1.075.126.114.238.207-.157-.171-.315-.341-.152-.319.059.048.149.1.125.113.1-.093-.319-.509.018-.445.411.348.2.081.6.358L17.586,3.9l-.22-.12c.073-.032-.152-.269.034-.208l.112.143.051-.122-.22-.068c-.133-.182-.5-.353-.3-.323.021.039.072-.032.337.115h0c-.091-.108-.188-.221-.042-.178.137.083.422.317.514.372-.3-.253.065-.15-.241-.423a3,3,0,0,0,.318.242l-.238-.206a1.027,1.027,0,0,1,.321.192c.142-.016-.526-.341-.2-.248.013.021.056.047.078.086.222.02.046-.238.28-.2.423.267.006.118.374.339.075-.132-.168-.506.067-.517l-.07-.016c-.535-.411.38.14.19-.088a1.774,1.774,0,0,0,.228.187c.187.011.064-.207.035-.413l.126.113c.184.06.224-.029.351-.017-.125-.112-.065-.115-.3-.253,1,.482-.07-.512.776-.117-.018.012.077.117.093.108l.014-.173a2.6,2.6,0,0,0-.385-.215c-.125-.113-.2-.215-.16-.235a1.557,1.557,0,0,0,.553.362c-.078-.051-.152-.115-.228-.168.506.269-.476-.358-.081-.205l.121.094c-.027-.067-.16-.208-.081-.2.3.192.089.116.318.284.042-.044-.415-.445-.083-.273.053.07.019.09.072.159.387.206.308.142.4.156l-.011,0,.248.054-.115-.051c-.657-.566.016-.177-.364-.575.358.378.246.2.556.43a1.318,1.318,0,0,1,.329.17c-.209-.21.28.1-.029-.2.1.072.059-.019.305.171-.019-.091-.192-.12-.315-.215-.256-.3.642.185.3-.233-.08-.205-.4-.465-.468-.647a1.123,1.123,0,0,1,.343.284c.208.077.225.033.163-.081a1.621,1.621,0,0,0,.3.192c.018-.044-.342-.284-.133-.208.1.088.273.226.366.32-.042-.1-.181-.262-.219-.357a1.476,1.476,0,0,1,.334.306c-.019-.091,0-.2-.267-.415L21.68.754a1.105,1.105,0,0,1,.288.214c.169.187-.173-.03-.278-.1L21.662.8c-.639-.41-.058.153-.169.17l-.4-.331.283.3a1.48,1.48,0,0,1-.412-.31c-.272-.125.105.139-.182-.008A.255.255,0,0,1,20.7.567l.077.123C20.7.618,20.462.473,20.558.5c-.35-.129.169.32-.2.1L20.343.58c.013.179.307.237.581.563L20.066.611l.307.238c-.026,0-.077,0-.2-.1.168.186.147.1.324.261-.358-.174-.048.2-.573-.16.219.188.252.1.35.261-.569-.384.011.112-.3-.036C19.709.863,19.916.94,19.6.791c.442.365-.224-.01-.184.084.379.275.046.175.086.314-.121-.1-.372-.062-.589-.117l-.062-.048c.369.286.214.279.233.369a1.672,1.672,0,0,1-.379-.33l-.056.032c.11.1.158.152.165.2l-.273-.215c-.059.053.187.327-.1.242.264.2.826.5.9.681a2.794,2.794,0,0,1-.433-.336c.01.018.089.1.01.069l-.2-.2c-.152-.053.181.16.123.163-.206-.15-.174-.092-.334-.213-.011-.019.117.044.05-.021A1.185,1.185,0,0,1,18.13,1.3c.121.082.28.2.276.235-.061.053-.275-.165-.425-.217.125.113-.072.032.236.256a1.153,1.153,0,0,1-.265-.147c.1.12-.144.128.23.341l.03.01.008.013c.179.292-.442.02-.438.184l-.1-.074c.043.126-.1.142.07.332a1.1,1.1,0,0,1-.356-.2c.019.088.129.175-.126.1-.121-.162-.179-.105-.072-.128-.165-.023-.348-.133-.147.114-.236-.206-.39-.209-.347-.132l.243.108c0,.049-.061.052-.12.055L16.5,1.884c-.578-.221.442.672-.385.225.2.2.256.078.5.3a6.265,6.265,0,0,1-.716-.3c-.291-.086.419.416.184.377.137.082.482.315.522.44a1.768,1.768,0,0,1-.665-.424c.008-.017.056.007.1.038-.022-.045-.045-.1-.208-.182l.115.095c-.163-.072-.248-.009-.428-.169a.411.411,0,0,0,.286.184c-.272-.08-.149.074-.364.038a.886.886,0,0,1,.228.146c-.292-.036.174.2.136.293-.243-.107-.433-.336-.369-.17a1.109,1.109,0,0,1-.42-.317c.153.22-.318-.026-.411-.031l-.056-.1c.034.058.01.068-.014.08l.275.165a.356.356,0,0,1-.2-.08c.136.133.434.287.6.477-.161-.072.027.156-.315-.075.224.02-.343-.232-.3-.322.022.039,0,.049-.072.033a.24.24,0,0,1-.077-.069c-.4-.155.324.295.206.35-.171-.142-.379-.241-.356-.2.048-.022.332.212.433.336-.216-.065.032.12-.022.128l.11.026c.173.142.112.143.121.212-.149-.1-.054-.1-.136-.132.272.265-.463-.177-.318.023-.163-.071-.353-.249-.47-.294.155.22-.348-.133-.238.059a.966.966,0,0,1,.4.33l-.029-.207.27.313c.048-.022-.064-.165,0-.148a.876.876,0,0,0,.331.262c-.436-.237.1.223-.227.079l-.617-.447c-.382-.141.129.331-.163.294l.152.053c.227.187-.051.071,0,.167a2.95,2.95,0,0,0-.454-.272c.157.109-.113.044.286.349L13.4,3.654c-.222-.02.463.494.286.5-.193-.179-.388-.259-.478-.413-.037.017-.107.008.035.111-.15-.082.181.255-.05.131.077.074.288.233.232.242a1.064,1.064,0,0,1-.1-.074c.1.074.077.134.34.28-.756-.405-.26.2-.91-.146a.38.38,0,0,1-.091.241c-.058-.047-.1-.075-.069-.066-.289-.086.535.46.209.366-.391-.21-.123-.163-.284-.235-.7-.482-.042.14-.513-.105l-.022-.039c-.289-.136.118.261-.024.277a.876.876,0,0,0-.1-.074c.284.284.278.433.284.551a1.7,1.7,0,0,0-.387-.309c0,.049.446.306.441.4a4.6,4.6,0,0,1-.653-.355l.061-.053c-.414-.248-.086.063-.19.038l-.158-.121c-.064.1.347.4.192.446l.137.082c.34.33-.286-.134-.051.121L11.1,5.169a1.793,1.793,0,0,1,.24.474,2.95,2.95,0,0,1-.447-.573c-.048.022-.121.1.059.264-.021-.039-.1-.124-.019-.088.272.264.359.419.264.462-.787-.586-.434-.02-1.121-.434.139.3-.438.079-.573.213.688.414-.035.042.617.5,0,.053-.029.054-.073.026L9.532,5.8c-.217-.118-.1-.124-.249-.225-.142.015-.31-.175-.542-.264.241.159.3.255.155.22l.371.173c.211.316-.652-.326-.444-.012L8.661,5.53c.053.122-.252.132.2.539a1.02,1.02,0,0,1-.294-.214c-.238.032.188.59-.254.43l-.144-.12c.016.049.243.241.046.148a.759.759,0,0,0-.168-.119c.038.048.195.242.064.2l-.142-.145c-.363-.062.188.441.165.59a1.819,1.819,0,0,0-.872-.393L7.2,6.394c-.241.059.07.445.081.668-.605-.3-.565.043-1.016-.067a1.246,1.246,0,0,1,.372.31c-.134-.045.211.291-.208-.017l.022,0C6,7,6.033,7.127,5.958,7.154l.543.4c-.971-.489-.141.45-.954-.019.1.121.048.147.145.269L5.4,7.593c-.187.006-.281.009-.347.135L4.867,7.56c-.1.028.759.67.7.721l-.465-.307c-.129.079-.655-.127-.387.236-.064-.048-.187-.143-.184-.168-.075.027-.546-.081.085.344-.4-.284-.179.048-.077.214l-.281-.217c.311.3.412.377.428.5-.058-.016-.251-.158-.149-.119-.222-.073.222.228-.016.161l-.155-.151c-.093.022.013.091.192.268.073.109-.206.02-.481-.165.152.121.329.3.211.265a.825.825,0,0,1-.176-.148c-.315-.079.166.34-.2.177a1.388,1.388,0,0,0-.188-.118c.1-.046.192-.075.206-.056a3.886,3.886,0,0,1-.7-.487c.144.179.481.553.281.5-.03-.016-.059-.033-.1-.061l-.024-.026c-.043-.01-.034.016,0,.056a.329.329,0,0,0-.142-.025c-.232-.156-.206-.039-.256-.027.3.211.2.2.49.353-.026-.012-.027-.029-.014-.051A.058.058,0,0,0,3.447,9.2l.022.02a.419.419,0,0,1,.073-.065c.121.124.216.231.011.136.169.147.343.3.422.371-.462-.268-.783-.374-1.049-.549.051.182-.161.226.321.663.038.069-.2-.094-.3-.15-.037-.05-.006-.056-.075-.119.077.138-.137.145.233.432-.257-.081-.31-.282-.359-.175l-.1-.093c-.839-.324.628.907-.412.47a.657.657,0,0,1,.165.082c-.629-.1-.249.55-1.08.3-.192-.038.048.144.187.306l-.334-.219.284.308c.15.255-.979-.45-.62-.006l.232.143c-.094,0-.042.182-.278,0,.034.031.2.169.072.1L.7,11.037l.155.275c-.22-.032-.642-.482-.821-.425a1.614,1.614,0,0,0,.458.5.787.787,0,0,1,.326.162l.037.09a6.678,6.678,0,0,0,1.4.915l-.212-.261.264.155-.058.05c.264.138.093-.018-.013-.131a1.885,1.885,0,0,0,.3.169l-.382-.382a2.444,2.444,0,0,0,.5.339c-.177-.177-.466-.288-.543-.426.262.138.431.274.289.112a.937.937,0,0,1,.24.2c-.109-.132.05-.108-.188-.306.316.174.073-.13.53.2-.1-.087-.286-.3-.267-.337.481.437.179-.057.754.38-.444-.387-.03-.263-.211-.513.034.031.1.1.07.081a1.741,1.741,0,0,1,.387.149,3.5,3.5,0,0,1-.625-.618,7.913,7.913,0,0,1,.843.632c-.335-.238-.219-.3-.518-.489a3.351,3.351,0,0,1,.527.294c-.5-.375-.042-.088-.315-.337.324.143.5.336.422.181a.839.839,0,0,1,.307.262m.987-1.66.006,0-.022.033a.282.282,0,0,0,.016-.037m.153-.089a.154.154,0,0,0-.08.029c-.107-.071-.206-.149-.185-.154a1.117,1.117,0,0,0,.265.125M3.12,8.925c-.016-.044.05-.006.113.035a.07.07,0,0,0-.008.049l.032.028c-.053-.042-.1-.081-.137-.112" transform="translate(0.017 0)" fill="#f72"/>
      <path id="Tracé_830" data-name="Tracé 830" d="M2.178,9.228c0,.007.013.017.011.021.03.016.058.029.081.04l-.083-.072-.01.011" transform="translate(1.301 0)" fill="#f72"/>
      <path id="Tracé_831" data-name="Tracé 831" d="M11.4,1.768l-.01,0a.466.466,0,0,1,.048.026L11.4,1.768" transform="translate(6.803 0)" fill="#f72"/>
      <path id="Tracé_832" data-name="Tracé 832" d="M5.194,9.436l-.075-.053.053.054Z" transform="translate(3.058 0)" fill="#f72"/>
      <path id="Tracé_833" data-name="Tracé 833" d="M12.57,2.023a.632.632,0,0,0,.086.048.75.75,0,0,0-.086-.048" transform="translate(7.509 0)" fill="#f72"/>
      <path id="Tracé_834" data-name="Tracé 834" d="M12.846,1.867,13,1.914a.855.855,0,0,0-.158-.047" transform="translate(7.674 0)" fill="#f72"/>
      <path id="Tracé_835" data-name="Tracé 835" d="M13.164,1.815c-.048-.039-.086-.068-.121-.094h0Z" transform="translate(7.79 0)" fill="#f72"/>
      <path id="Tracé_836" data-name="Tracé 836" d="M10.466,4.559a.02.02,0,0,0,0,.016c.032.055.027.029,0-.016" transform="translate(6.252 0)" fill="#f72"/>
      <path id="Tracé_837" data-name="Tracé 837" d="M10.889,3.321a1.226,1.226,0,0,1,.1.124c.046,0,.07,0-.1-.124" transform="translate(6.505 0)" fill="#f72"/>
      <path id="Tracé_838" data-name="Tracé 838" d="M9.74,5.643l0,0-.01,0Z" transform="translate(5.81 0)" fill="#f72"/>
      <path id="Tracé_839" data-name="Tracé 839" d="M10.908,3.476c.083.029.091.009.069-.031-.04,0-.093-.012-.069.031" transform="translate(6.513 0)" fill="#f72"/>
      <path id="Tracé_840" data-name="Tracé 840" d="M13.991,1.231h.026c-.019-.014-.034-.025-.045-.035Z" transform="translate(8.346 0)" fill="#f72"/>
      <path id="Tracé_841" data-name="Tracé 841" d="M13.981,1.2l-.019-.033c-.008,0-.011.008.019.033" transform="translate(8.337 0)" fill="#f72"/>
      <path id="Tracé_842" data-name="Tracé 842" d="M13.934,1.093l.042.071c.013-.006.035-.006-.042-.071" transform="translate(8.324 0)" fill="#f72"/>
      <path id="Tracé_843" data-name="Tracé 843" d="M13.66,1.341l.1.079c-.019-.017-.053-.043-.1-.079" transform="translate(8.16 0)" fill="#f72"/>
      <path id="Tracé_844" data-name="Tracé 844" d="M13.618,1.426c.053,0,.3.126.268.057l-.081-.063c.142.124-.34-.138-.187.006" transform="translate(8.117 0)" fill="#f72"/>
      <path id="Tracé_845" data-name="Tracé 845" d="M12.575.739l.182.009c-.131-.073-.305-.171-.289-.215-.462-.178.28.17.107.206" transform="translate(7.356 0)" fill="#f72"/>
      <path id="Tracé_846" data-name="Tracé 846" d="M12.27.784c0-.066-.166-.119-.227-.167a.367.367,0,0,0,.227.167" transform="translate(7.194 0)" fill="#f72"/>
      <path id="Tracé_847" data-name="Tracé 847" d="M10.92,1.968l-.264-.2c0,.05.1.075.264.2" transform="translate(6.365 0)" fill="#f72"/>
      <path id="Tracé_848" data-name="Tracé 848" d="M11.436,3.193l.206.1L11.415,3.1Z" transform="translate(6.819 0)" fill="#f72"/>
      <path id="Tracé_849" data-name="Tracé 849" d="M10.086,1.951l-.021-.037.03.106Z" transform="translate(6.013 0)" fill="#f72"/>
      <path id="Tracé_850" data-name="Tracé 850" d="M7.851,4.01l.342.231c-.032-.057-.4-.328-.342-.231" transform="translate(4.687 0)" fill="#f72"/>
      <path id="Tracé_851" data-name="Tracé 851" d="M7.164,5.112c-.182-.109-.332-.162-.2-.03.059,0,.222.07.2.03" transform="translate(4.131 0)" fill="#f72"/>
      <path id="Tracé_852" data-name="Tracé 852" d="M3.8,7.3l-.078-.1.032.1Z" transform="translate(2.223 0)" fill="#f72"/>
    </g>
  </g>
</svg>
