<svg xmlns="http://www.w3.org/2000/svg" width="173.902" height="39.19" viewBox="0 0 173.902 39.19">
  <g id="logo-blanc" transform="translate(-5.6 -7.5)">
    <path id="Tracé_1071" data-name="Tracé 1071" d="M179.232,28.631h0c-.647-7.709-6.738-11.32-13.962-11.32-8.248,0-14.824,5.876-14.824,14.716s6.577,14.663,14.824,14.663c7.385,0,13.261-4.259,14.231-11.859h-9.973a4.232,4.232,0,0,1-4.043,4.1c-3.989,0-4.582-3.5-4.582-6.9s.593-6.954,4.582-6.954a3.741,3.741,0,0,1,2.641.916,3.8,3.8,0,0,1,1.186,2.641Zm-31.589-.377h0c0-5.391.108-10.943-12.991-10.943-6.469,0-13.8,1.294-14.07,9.164h9.7c.054-1.186.7-2.857,3.881-2.857,1.671,0,3.45.7,3.45,2.588,0,1.779-1.4,2.21-2.857,2.48-5.337,1.024-15.471.7-15.471,9.541,0,5.876,4.366,8.463,9.649,8.463,3.4,0,6.577-.755,8.841-3.342h.108a7.471,7.471,0,0,0,.377,2.641h10.673c-1.186-1.779-1.24-4.151-1.24-6.253V28.254Zm-10.027,7.763h0c-.162,2.911-1.995,4.366-4.366,4.366-1.887,0-3.288-1.294-3.288-2.588,0-1.887,1.24-2.48,3.558-3.019a17.4,17.4,0,0,0,4.1-1.348ZM71.1,45.989H81.554V30.841c0-2.911.916-5.013,3.558-5.013,3.18,0,3.45,2.372,3.45,5.013V45.989H99.02V30.841c0-2.911.916-5.013,3.558-5.013,3.18,0,3.45,2.372,3.45,5.013V45.989h10.458V26.8c0-4.528-2.372-9.488-9.38-9.488-6.792,0-8.895,4.043-9.326,4.366a8.13,8.13,0,0,0-7.385-4.366c-3.827,0-6.846,1.186-8.948,4.42h-.108v-3.72H71.258V45.989Zm-4.42-17.735h0c0-5.391.108-10.943-12.991-10.943-6.469,0-13.8,1.294-14.07,9.164h9.7c.054-1.186.7-2.857,3.881-2.857,1.671,0,3.45.7,3.45,2.588,0,1.779-1.4,2.21-2.857,2.48-5.337,1.024-15.471.7-15.471,9.541,0,5.876,4.366,8.463,9.649,8.463,3.4,0,6.577-.755,8.841-3.342h.108a7.471,7.471,0,0,0,.377,2.641H67.97c-1.186-1.779-1.294-4.151-1.294-6.253ZM56.649,36.016h0c-.162,2.911-1.995,4.366-4.366,4.366-1.887,0-3.288-1.294-3.288-2.588,0-1.887,1.24-2.48,3.558-3.019a17.4,17.4,0,0,0,4.1-1.348ZM25.222,31.973h0c0,3.342-.862,6.954-4.582,6.954-3.773,0-4.582-3.612-4.582-6.954,0-3.288.863-6.9,4.582-6.9C24.413,25.073,25.222,28.685,25.222,31.973ZM35.3,7.5H24.845V21.084h-.108a8.838,8.838,0,0,0-7.493-3.773C8.08,17.311,5.6,25.289,5.6,31.866c0,7.008,3.773,14.824,11.482,14.824,5.121,0,6.684-1.995,8.032-3.773h.108v3.073H35.3Z" fill="#31cfff"/>
  </g>
</svg>
