<?xml version="1.0" encoding="utf-8"?>
<!-- Generator: Adobe Illustrator 28.2.0, SVG Export Plug-In . SVG Version: 6.00 Build 0)  -->
<svg version="1.1" id="Calque_1" xmlns="http://www.w3.org/2000/svg" xmlns:xlink="http://www.w3.org/1999/xlink" x="0px" y="0px"
	 viewBox="0 0 302.4 78.78" style="enable-background:new 0 0 302.4 78.78;" xml:space="preserve">
<style type="text/css">
	.st0{enable-background:new    ;}
	.st1{fill:#FF7722;}
	.st2{clip-path:url(#SVGID_00000165932551652746955290000002754284376534284469_);}
</style>
<g class="st0">
	<path d="M24.54,54.89l-1.48,0.88c-0.28-0.48-0.54-0.79-0.79-0.94c-0.26-0.17-0.6-0.25-1.01-0.25c-0.51,0-0.92,0.14-1.26,0.43
		c-0.33,0.28-0.5,0.64-0.5,1.06c0,0.59,0.44,1.06,1.31,1.42l1.2,0.49c0.98,0.4,1.7,0.88,2.15,1.45s0.68,1.27,0.68,2.1
		c0,1.11-0.37,2.03-1.11,2.75c-0.75,0.73-1.67,1.09-2.77,1.09c-1.05,0-1.91-0.31-2.59-0.93c-0.67-0.62-1.09-1.49-1.26-2.62
		l1.84-0.41c0.08,0.71,0.23,1.2,0.44,1.47c0.38,0.52,0.92,0.78,1.64,0.78c0.57,0,1.04-0.19,1.41-0.57s0.56-0.86,0.56-1.45
		c0-0.23-0.03-0.45-0.1-0.64c-0.07-0.2-0.17-0.38-0.3-0.54c-0.14-0.16-0.32-0.32-0.54-0.46s-0.48-0.28-0.78-0.41l-1.16-0.48
		c-1.65-0.7-2.48-1.72-2.48-3.06c0-0.91,0.35-1.66,1.04-2.27c0.69-0.61,1.55-0.92,2.59-0.92C22.67,52.85,23.76,53.53,24.54,54.89z"
		/>
	<path d="M28.75,61.29c0-1.1,0.39-2.03,1.18-2.8c0.79-0.77,1.74-1.16,2.88-1.16c1.14,0,2.1,0.39,2.89,1.16
		c0.78,0.78,1.17,1.73,1.17,2.86c0,1.14-0.39,2.1-1.18,2.87c-0.79,0.77-1.76,1.15-2.91,1.15c-1.14,0-2.1-0.39-2.87-1.17
		C29.14,63.43,28.75,62.46,28.75,61.29z M30.55,61.32c0,0.76,0.2,1.36,0.61,1.8c0.42,0.45,0.97,0.67,1.65,0.67
		c0.69,0,1.24-0.22,1.65-0.66c0.41-0.44,0.62-1.03,0.62-1.77s-0.21-1.33-0.62-1.77c-0.42-0.45-0.97-0.67-1.65-0.67
		c-0.67,0-1.22,0.22-1.63,0.67C30.76,60.04,30.55,60.62,30.55,61.32z"/>
	<path d="M42.89,51.96v13.2h-1.76v-13.2H42.89z"/>
	<path d="M49.27,57.54v4.37c0,1.26,0.5,1.89,1.49,1.89c0.99,0,1.49-0.63,1.49-1.89v-4.37h1.76v4.41c0,0.61-0.08,1.14-0.23,1.58
		c-0.15,0.4-0.4,0.75-0.76,1.07c-0.59,0.52-1.35,0.77-2.27,0.77c-0.91,0-1.66-0.26-2.26-0.77c-0.36-0.32-0.62-0.67-0.77-1.07
		c-0.15-0.35-0.22-0.88-0.22-1.58v-4.41H49.27z"/>
	<path d="M60.44,59.18v5.97h-1.76v-5.97h-0.75v-1.64h0.75v-2.79h1.76v2.79h1.37v1.64H60.44z"/>
	<path d="M65.14,54.38c0-0.31,0.11-0.57,0.34-0.8c0.22-0.22,0.49-0.34,0.8-0.34c0.32,0,0.59,0.11,0.81,0.34
		c0.22,0.22,0.34,0.49,0.34,0.8s-0.11,0.59-0.34,0.81c-0.22,0.22-0.49,0.34-0.8,0.34c-0.32,0-0.59-0.11-0.81-0.34
		C65.25,54.98,65.14,54.7,65.14,54.38z M67.16,57.54v7.61h-1.76v-7.61H67.16z"/>
	<path d="M71.43,61.29c0-1.1,0.39-2.03,1.18-2.8c0.79-0.77,1.74-1.16,2.88-1.16c1.14,0,2.1,0.39,2.89,1.16
		c0.78,0.78,1.17,1.73,1.17,2.86c0,1.14-0.39,2.1-1.18,2.87c-0.79,0.77-1.76,1.15-2.91,1.15c-1.14,0-2.1-0.39-2.87-1.17
		C71.82,63.43,71.43,62.46,71.43,61.29z M73.23,61.32c0,0.76,0.2,1.36,0.61,1.8c0.42,0.45,0.97,0.67,1.65,0.67
		c0.69,0,1.24-0.22,1.65-0.66c0.41-0.44,0.62-1.03,0.62-1.77s-0.21-1.33-0.62-1.77c-0.42-0.45-0.97-0.67-1.65-0.67
		c-0.67,0-1.22,0.22-1.63,0.67C73.44,60.04,73.23,60.62,73.23,61.32z"/>
	<path d="M83.81,57.54h1.77v0.7c0.61-0.61,1.31-0.91,2.08-0.91c0.89,0,1.58,0.28,2.07,0.84c0.43,0.47,0.64,1.25,0.64,2.32v4.66H88.6
		V60.9c0-0.75-0.1-1.27-0.31-1.55c-0.2-0.29-0.57-0.44-1.11-0.44c-0.58,0-1,0.19-1.24,0.58c-0.24,0.38-0.36,1.04-0.36,1.99v3.67
		h-1.77V57.54z"/>
	<path d="M99.4,58.84l-1.45,0.77c-0.23-0.47-0.51-0.7-0.85-0.7c-0.16,0-0.3,0.05-0.41,0.16c-0.11,0.11-0.17,0.24-0.17,0.41
		c0,0.29,0.34,0.58,1.02,0.87c0.93,0.4,1.56,0.77,1.88,1.11c0.32,0.34,0.48,0.79,0.48,1.37c0,0.73-0.27,1.35-0.81,1.84
		c-0.53,0.47-1.16,0.7-1.91,0.7c-1.28,0-2.18-0.62-2.71-1.87l1.5-0.7c0.21,0.36,0.37,0.6,0.48,0.7c0.21,0.2,0.47,0.3,0.77,0.3
		c0.59,0,0.89-0.27,0.89-0.81c0-0.31-0.23-0.6-0.69-0.88c-0.18-0.09-0.35-0.17-0.53-0.26c-0.18-0.08-0.36-0.17-0.54-0.26
		c-0.51-0.25-0.87-0.5-1.08-0.75c-0.27-0.32-0.4-0.73-0.4-1.23c0-0.66,0.23-1.21,0.68-1.64c0.46-0.43,1.03-0.65,1.69-0.65
		C98.21,57.33,98.93,57.83,99.4,58.84z"/>
	<path d="M112.97,51.96v6.47c0.7-0.73,1.5-1.09,2.39-1.09c1.03,0,1.88,0.38,2.56,1.15c0.68,0.76,1.02,1.71,1.02,2.84
		c0,1.17-0.34,2.14-1.03,2.91c-0.68,0.76-1.54,1.14-2.59,1.14c-0.88,0-1.67-0.34-2.36-1.02v0.8h-1.76v-13.2H112.97z M117.15,61.4
		c0-0.73-0.2-1.32-0.59-1.78c-0.4-0.47-0.9-0.7-1.51-0.7c-0.65,0-1.17,0.23-1.58,0.68c-0.4,0.45-0.6,1.03-0.6,1.75
		c0,0.74,0.2,1.33,0.59,1.77c0.4,0.45,0.92,0.68,1.56,0.68c0.61,0,1.11-0.23,1.52-0.68C116.95,62.66,117.15,62.09,117.15,61.4z"/>
	<path d="M124.96,57.54v4.37c0,1.26,0.5,1.89,1.49,1.89c0.99,0,1.49-0.63,1.49-1.89v-4.37h1.76v4.41c0,0.61-0.08,1.14-0.23,1.58
		c-0.15,0.4-0.4,0.75-0.76,1.07c-0.59,0.52-1.35,0.77-2.27,0.77c-0.91,0-1.66-0.26-2.26-0.77c-0.36-0.32-0.62-0.67-0.77-1.07
		c-0.15-0.35-0.22-0.88-0.22-1.58v-4.41H124.96z"/>
	<path d="M134.32,57.54h1.76v0.68c0.32-0.34,0.61-0.57,0.86-0.7c0.25-0.13,0.56-0.2,0.91-0.2c0.46,0,0.95,0.15,1.45,0.45l-0.8,1.61
		c-0.33-0.24-0.66-0.36-0.98-0.36c-0.96,0-1.44,0.72-1.44,2.17v3.95h-1.76V57.54z"/>
	<path d="M149.53,61.76h-5.45c0.05,0.62,0.25,1.12,0.61,1.49c0.36,0.36,0.82,0.55,1.38,0.55c0.44,0,0.8-0.1,1.09-0.31
		c0.28-0.21,0.6-0.59,0.96-1.16l1.48,0.83c-0.23,0.39-0.47,0.73-0.73,1c-0.26,0.28-0.53,0.51-0.82,0.69
		c-0.29,0.18-0.61,0.31-0.95,0.39c-0.34,0.08-0.71,0.12-1.1,0.12c-1.14,0-2.05-0.36-2.73-1.09c-0.69-0.73-1.03-1.71-1.03-2.92
		c0-1.2,0.33-2.18,1-2.92c0.67-0.73,1.56-1.1,2.67-1.1c1.12,0,2,0.36,2.66,1.07c0.65,0.71,0.97,1.69,0.97,2.95L149.53,61.76z
		 M147.72,60.32c-0.25-0.94-0.84-1.41-1.77-1.41c-0.21,0-0.41,0.03-0.6,0.1s-0.36,0.16-0.51,0.28c-0.15,0.12-0.29,0.27-0.39,0.44
		s-0.19,0.37-0.25,0.59H147.72z"/>
	<path d="M159.46,57.54h1.77v7.61h-1.77v-0.8c-0.72,0.68-1.5,1.02-2.34,1.02c-1.05,0-1.92-0.38-2.61-1.14
		c-0.68-0.78-1.02-1.75-1.02-2.91c0-1.14,0.34-2.09,1.02-2.85c0.68-0.76,1.54-1.14,2.56-1.14c0.89,0,1.68,0.36,2.38,1.09V57.54z
		 M155.29,61.32c0,0.73,0.2,1.32,0.59,1.78c0.4,0.46,0.91,0.7,1.52,0.7c0.65,0,1.18-0.22,1.58-0.67c0.4-0.46,0.6-1.05,0.6-1.77
		s-0.2-1.3-0.6-1.77c-0.4-0.45-0.92-0.68-1.56-0.68c-0.6,0-1.11,0.23-1.52,0.69C155.49,60.07,155.29,60.64,155.29,61.32z"/>
	<path d="M167.6,57.54v4.37c0,1.26,0.5,1.89,1.49,1.89c0.99,0,1.49-0.63,1.49-1.89v-4.37h1.76v4.41c0,0.61-0.08,1.14-0.23,1.58
		c-0.15,0.4-0.4,0.75-0.76,1.07c-0.59,0.52-1.35,0.77-2.27,0.77c-0.91,0-1.66-0.26-2.26-0.77c-0.36-0.32-0.62-0.67-0.77-1.07
		c-0.15-0.35-0.22-0.88-0.22-1.58v-4.41H167.6z"/>
	<path d="M178.78,59.18v5.97h-1.76v-5.97h-0.75v-1.64h0.75v-2.79h1.76v2.79h1.37v1.64H178.78z"/>
	<path d="M183.47,54.38c0-0.31,0.11-0.57,0.34-0.8c0.22-0.22,0.49-0.34,0.8-0.34c0.32,0,0.59,0.11,0.81,0.34
		c0.22,0.22,0.34,0.49,0.34,0.8s-0.11,0.59-0.34,0.81c-0.22,0.22-0.49,0.34-0.8,0.34c-0.32,0-0.59-0.11-0.81-0.34
		C183.58,54.98,183.47,54.7,183.47,54.38z M185.5,57.54v7.61h-1.76v-7.61H185.5z"/>
	<path d="M195.73,69.29V64.3c-0.7,0.71-1.5,1.07-2.39,1.07c-1.03,0-1.88-0.38-2.55-1.13c-0.68-0.76-1.02-1.71-1.02-2.85
		c0-1.16,0.34-2.12,1.02-2.9c0.69-0.77,1.55-1.16,2.59-1.16c0.88,0,1.67,0.35,2.36,1.04v-0.83h1.77v11.75H195.73z M191.56,61.31
		c0,0.73,0.2,1.33,0.59,1.79c0.4,0.47,0.9,0.7,1.51,0.7c0.65,0,1.17-0.22,1.57-0.67c0.41-0.45,0.61-1.04,0.61-1.77
		c0-0.71-0.2-1.3-0.6-1.77c-0.4-0.45-0.92-0.68-1.56-0.68c-0.6,0-1.11,0.23-1.52,0.69C191.76,60.07,191.56,60.64,191.56,61.31z"/>
	<path d="M204.05,57.54v4.37c0,1.26,0.5,1.89,1.49,1.89c0.99,0,1.49-0.63,1.49-1.89v-4.37h1.76v4.41c0,0.61-0.08,1.14-0.23,1.58
		c-0.15,0.4-0.4,0.75-0.76,1.07c-0.59,0.52-1.35,0.77-2.27,0.77c-0.91,0-1.66-0.26-2.26-0.77c-0.36-0.32-0.62-0.67-0.77-1.07
		c-0.15-0.35-0.22-0.88-0.22-1.58v-4.41H204.05z"/>
	<path d="M220.34,61.76h-5.45c0.05,0.62,0.25,1.12,0.61,1.49c0.36,0.36,0.82,0.55,1.38,0.55c0.44,0,0.8-0.1,1.09-0.31
		c0.28-0.21,0.6-0.59,0.96-1.16l1.48,0.83c-0.23,0.39-0.47,0.73-0.73,1c-0.26,0.28-0.53,0.51-0.82,0.69
		c-0.29,0.18-0.61,0.31-0.95,0.39c-0.34,0.08-0.71,0.12-1.1,0.12c-1.14,0-2.05-0.36-2.73-1.09c-0.69-0.73-1.03-1.71-1.03-2.92
		c0-1.2,0.33-2.18,1-2.92c0.67-0.73,1.56-1.1,2.67-1.1c1.12,0,2,0.36,2.66,1.07c0.65,0.71,0.97,1.69,0.97,2.95L220.34,61.76z
		 M218.54,60.32c-0.25-0.94-0.84-1.41-1.77-1.41c-0.21,0-0.41,0.03-0.6,0.1s-0.36,0.16-0.51,0.28c-0.15,0.12-0.29,0.27-0.39,0.44
		s-0.19,0.37-0.25,0.59H218.54z"/>
	<path d="M229.09,58.84l-1.45,0.77c-0.23-0.47-0.51-0.7-0.85-0.7c-0.16,0-0.3,0.05-0.41,0.16c-0.11,0.11-0.17,0.24-0.17,0.41
		c0,0.29,0.34,0.58,1.02,0.87c0.93,0.4,1.56,0.77,1.88,1.11c0.32,0.34,0.48,0.79,0.48,1.37c0,0.73-0.27,1.35-0.81,1.84
		c-0.53,0.47-1.16,0.7-1.91,0.7c-1.28,0-2.18-0.62-2.71-1.87l1.5-0.7c0.21,0.36,0.37,0.6,0.48,0.7c0.21,0.2,0.47,0.3,0.77,0.3
		c0.59,0,0.89-0.27,0.89-0.81c0-0.31-0.23-0.6-0.69-0.88c-0.18-0.09-0.35-0.17-0.53-0.26c-0.18-0.08-0.36-0.17-0.54-0.26
		c-0.51-0.25-0.87-0.5-1.08-0.75c-0.27-0.32-0.4-0.73-0.4-1.23c0-0.66,0.23-1.21,0.68-1.64c0.46-0.43,1.03-0.65,1.69-0.65
		C227.89,57.33,228.61,57.83,229.09,58.84z"/>
</g>
<g id="LBC" transform="translate(86 -0.412)">
	<g id="Groupe_87" transform="translate(9 3)">
		<rect id="Rectangle_38" x="22" y="14.36" class="st1" width="3.87" height="21.88"/>
		
			<rect id="Rectangle_38_00000126299480364011469070000012802254637946961795_" x="9.73" y="8.78" class="st1" width="2.51" height="31.97"/>
		<g id="Groupe_15" transform="translate(0 6.933)">
			<g>
				<defs>
					<rect id="SVGID_1_" x="22" y="7.43" width="177.94" height="28.03"/>
				</defs>
				<clipPath id="SVGID_00000128484162337445677910000001827803997384149390_">
					<use xlink:href="#SVGID_1_"  style="overflow:visible;"/>
				</clipPath>
				<g id="Groupe_14" style="clip-path:url(#SVGID_00000128484162337445677910000001827803997384149390_);">
					<path id="Tracé_1" class="st1" d="M36.45,29.63c-1.48,0.04-2.95-0.32-4.26-1.03c-1.19-0.68-2.14-1.7-2.75-2.93
						c-0.67-1.39-1-2.93-0.96-4.47c-0.03-1.54,0.3-3.06,0.97-4.45c0.6-1.23,1.54-2.27,2.71-2.99c1.23-0.73,2.65-1.11,4.09-1.07
						c0.98-0.01,1.95,0.16,2.87,0.49c0.9,0.32,1.71,0.83,2.4,1.5c0.73,0.73,1.29,1.61,1.64,2.58c0.42,1.19,0.63,2.46,0.6,3.72v1.19
						H30.29v-2.61h9.74c0.01-0.69-0.16-1.37-0.48-1.98c-0.3-0.57-0.76-1.04-1.31-1.37c-0.59-0.34-1.27-0.52-1.95-0.5
						c-0.74-0.02-1.46,0.18-2.08,0.57c-0.59,0.37-1.07,0.88-1.39,1.5c-0.33,0.62-0.51,1.32-0.51,2.02v2.27
						c-0.02,0.85,0.16,1.69,0.52,2.45c0.32,0.65,0.83,1.2,1.46,1.56c0.67,0.37,1.43,0.56,2.2,0.54c0.52,0.01,1.04-0.07,1.53-0.24
						c0.44-0.15,0.84-0.39,1.19-0.71c0.34-0.32,0.6-0.72,0.76-1.16l3.61,0.41c-0.22,0.93-0.66,1.79-1.3,2.49
						c-0.67,0.73-1.51,1.29-2.44,1.64C38.76,29.45,37.6,29.65,36.45,29.63"/>
					<path id="Tracé_2" class="st1" d="M45.72,29.31V7.43h3.87v8.18h0.16c0.24-0.45,0.52-0.88,0.84-1.28
						c0.41-0.49,0.91-0.88,1.47-1.16c0.74-0.35,1.55-0.52,2.37-0.49c1.21-0.02,2.41,0.32,3.43,0.97c1.07,0.7,1.92,1.69,2.44,2.85
						c0.64,1.45,0.95,3.03,0.9,4.62c0.04,1.58-0.26,3.15-0.89,4.59c-0.52,1.17-1.35,2.17-2.41,2.88c-1.03,0.67-2.23,1.01-3.46,0.99
						c-0.81,0.03-1.61-0.13-2.34-0.47c-0.57-0.27-1.08-0.66-1.49-1.14c-0.34-0.39-0.63-0.81-0.87-1.27h-0.22v2.58L45.72,29.31z
						 M49.51,21.1c-0.02,0.95,0.13,1.89,0.45,2.79c0.26,0.73,0.71,1.38,1.31,1.86c1.27,0.9,2.97,0.89,4.24-0.02
						c0.6-0.5,1.06-1.15,1.31-1.89c0.31-0.88,0.46-1.81,0.44-2.74c0.02-0.92-0.13-1.84-0.44-2.71c-0.25-0.73-0.7-1.37-1.3-1.86
						c-1.28-0.89-2.97-0.9-4.26-0.02c-0.6,0.47-1.06,1.1-1.31,1.83C49.64,19.23,49.49,20.16,49.51,21.1"/>
					<path id="Tracé_3" class="st1" d="M70.21,29.39c-1.46,0.04-2.9-0.33-4.17-1.06c-1.17-0.7-2.12-1.73-2.73-2.96
						c-0.67-1.38-1-2.91-0.97-4.44c-0.03-1.54,0.3-3.07,0.97-4.45c0.6-1.23,1.55-2.26,2.73-2.97c2.6-1.41,5.73-1.41,8.33,0
						c1.18,0.71,2.12,1.74,2.73,2.97c0.67,1.39,1,2.91,0.97,4.45c0.04,1.54-0.3,3.06-0.97,4.44c-0.61,1.23-1.55,2.25-2.73,2.96
						C73.11,29.06,71.66,29.42,70.21,29.39 M70.23,26.29c0.79,0.03,1.56-0.23,2.18-0.72c0.61-0.51,1.06-1.18,1.31-1.94
						c0.3-0.87,0.44-1.79,0.43-2.71c0.01-0.93-0.13-1.85-0.43-2.73c-0.25-0.76-0.7-1.43-1.31-1.95c-0.62-0.5-1.39-0.75-2.18-0.73
						c-0.8-0.03-1.59,0.23-2.22,0.73c-0.61,0.52-1.06,1.19-1.31,1.95c-0.3,0.88-0.44,1.8-0.43,2.73c-0.01,0.92,0.13,1.84,0.43,2.71
						c0.25,0.76,0.7,1.43,1.31,1.94C68.64,26.07,69.43,26.32,70.23,26.29"/>
					<path id="Tracé_4" class="st1" d="M93.51,12.52v16.78h-3.06l-7.3-10.56h-0.12v10.56h-3.55V12.52h3.11l7.24,10.55h0.15V12.52
						H93.51z"/>
					<path id="Tracé_5" class="st1" d="M103.45,29.63c-1.48,0.04-2.94-0.33-4.21-1.08c-1.17-0.72-2.11-1.75-2.7-2.99
						c-0.65-1.37-0.98-2.88-0.95-4.4c-0.03-1.53,0.3-3.04,0.96-4.42c0.6-1.24,1.55-2.27,2.72-2.99c1.26-0.74,2.7-1.11,4.16-1.07
						c1.22-0.02,2.43,0.23,3.54,0.73c2.05,0.93,3.4,2.92,3.51,5.16h-3.7c-0.13-0.76-0.5-1.45-1.06-1.98
						c-0.61-0.55-1.42-0.84-2.24-0.8c-0.74-0.01-1.47,0.21-2.08,0.64c-0.63,0.46-1.11,1.09-1.39,1.82c-0.35,0.91-0.52,1.87-0.5,2.84
						c-0.02,0.98,0.14,1.96,0.49,2.88c0.28,0.73,0.76,1.37,1.38,1.85c1.07,0.73,2.45,0.85,3.63,0.32c0.45-0.22,0.84-0.54,1.14-0.95
						c0.32-0.45,0.54-0.96,0.63-1.51h3.7c-0.07,1.1-0.43,2.16-1.03,3.08c-0.6,0.9-1.44,1.63-2.41,2.09
						C105.91,29.4,104.68,29.65,103.45,29.63"/>
					<path id="Tracé_6" class="st1" d="M119.06,29.63c-1.46,0.04-2.9-0.33-4.17-1.06c-1.17-0.7-2.12-1.73-2.73-2.96
						c-0.67-1.38-1-2.91-0.97-4.44c-0.03-1.54,0.3-3.07,0.97-4.45c0.6-1.23,1.55-2.26,2.73-2.97c2.6-1.41,5.73-1.41,8.33,0
						c1.18,0.71,2.12,1.74,2.73,2.97c0.67,1.39,1,2.91,0.97,4.45c0.03,1.54-0.3,3.06-0.97,4.44c-0.61,1.23-1.55,2.25-2.73,2.96
						C121.96,29.3,120.52,29.67,119.06,29.63 M119.08,26.53c0.79,0.03,1.56-0.23,2.18-0.72c0.61-0.51,1.06-1.18,1.31-1.94
						c0.3-0.87,0.44-1.79,0.43-2.71c0.01-0.93-0.13-1.85-0.43-2.73c-0.25-0.76-0.7-1.43-1.31-1.95c-0.62-0.5-1.39-0.75-2.18-0.73
						c-0.8-0.03-1.59,0.23-2.22,0.73c-0.61,0.52-1.06,1.19-1.31,1.95c-0.3,0.88-0.44,1.8-0.43,2.73c-0.01,0.92,0.13,1.84,0.43,2.71
						c0.25,0.76,0.7,1.43,1.31,1.94C117.49,26.31,118.28,26.56,119.08,26.53"/>
					<path id="Tracé_7" class="st1" d="M127.73,35.46V12.9h3.8v2.71h0.22c0.24-0.45,0.52-0.88,0.84-1.28
						c0.41-0.49,0.91-0.88,1.47-1.16c0.74-0.35,1.55-0.52,2.37-0.49c1.21-0.01,2.41,0.32,3.43,0.97c1.07,0.7,1.91,1.69,2.43,2.85
						c0.64,1.45,0.95,3.03,0.9,4.62c0.04,1.58-0.26,3.15-0.89,4.59c-0.52,1.17-1.35,2.17-2.41,2.88c-1.03,0.67-2.23,1.01-3.46,0.99
						c-0.81,0.03-1.61-0.13-2.34-0.47c-0.57-0.27-1.08-0.66-1.49-1.14c-0.34-0.39-0.63-0.81-0.87-1.27h-0.16v8.74H127.73z
						 M131.52,21.11c-0.02,0.95,0.13,1.89,0.45,2.79c0.26,0.73,0.71,1.38,1.31,1.86c1.27,0.9,2.97,0.89,4.24-0.02
						c0.6-0.5,1.06-1.15,1.31-1.89c0.31-0.88,0.46-1.81,0.44-2.74c0.02-0.92-0.13-1.84-0.44-2.71c-0.25-0.73-0.7-1.37-1.3-1.86
						c-1.28-0.89-2.97-0.9-4.26-0.02c-0.6,0.47-1.06,1.1-1.31,1.83C131.65,19.23,131.5,20.17,131.52,21.11"/>
					<path id="Tracé_8" class="st1" d="M147.79,15.86c-0.69,0.01-1.37-0.2-1.93-0.61v14.05h3.86V15.26
						C149.16,15.67,148.48,15.88,147.79,15.86"/>
					<path id="Tracé_9" class="st1" d="M160.3,29.63c-1.48,0.04-2.95-0.32-4.26-1.03c-1.19-0.68-2.14-1.7-2.75-2.93
						c-0.67-1.39-1-2.93-0.96-4.47c-0.03-1.54,0.3-3.06,0.97-4.45c0.6-1.23,1.54-2.27,2.71-2.99c1.24-0.74,2.65-1.11,4.09-1.07
						c0.98-0.01,1.95,0.16,2.87,0.49c0.9,0.32,1.71,0.83,2.4,1.5c0.73,0.73,1.29,1.61,1.64,2.58c0.42,1.19,0.63,2.46,0.6,3.72v1.19
						h-13.45v-2.61h9.73c0.01-0.69-0.16-1.37-0.48-1.98c-0.3-0.57-0.75-1.04-1.31-1.37c-0.59-0.34-1.27-0.52-1.95-0.5
						c-0.74-0.02-1.46,0.18-2.08,0.57c-0.59,0.37-1.07,0.88-1.39,1.5c-0.33,0.62-0.51,1.32-0.51,2.02v2.27
						c-0.02,0.85,0.16,1.69,0.52,2.45c0.32,0.65,0.83,1.2,1.46,1.56c0.67,0.37,1.43,0.56,2.2,0.54c0.52,0.01,1.04-0.07,1.53-0.24
						c0.44-0.15,0.84-0.39,1.19-0.71c0.34-0.32,0.6-0.72,0.76-1.16l3.61,0.41c-0.22,0.93-0.66,1.79-1.3,2.49
						c-0.67,0.73-1.51,1.29-2.44,1.64C162.61,29.45,161.46,29.65,160.3,29.63"/>
					<path id="Tracé_10" class="st1" d="M180.66,22.41V12.9h3.87v16.41h-3.75v-2.92h-0.17c-0.37,0.92-1,1.7-1.82,2.25
						c-0.92,0.61-2.01,0.91-3.11,0.88c-1,0.02-1.98-0.23-2.85-0.72c-0.84-0.5-1.51-1.23-1.93-2.1c-0.49-1.05-0.73-2.19-0.69-3.35
						V12.9h3.87v9.85c-0.05,0.91,0.26,1.79,0.85,2.48c0.58,0.62,1.4,0.95,2.25,0.92c0.58,0,1.15-0.14,1.66-0.42
						c0.54-0.29,1-0.72,1.32-1.24C180.51,23.86,180.68,23.14,180.66,22.41"/>
					<path id="Tracé_11" class="st1" d="M187.12,29.31v-16.4h6.47c1.1-0.03,2.18,0.2,3.18,0.66c0.84,0.41,1.54,1.06,2.01,1.87
						c0.48,0.87,0.72,1.84,0.69,2.83c0.03,0.98-0.22,1.95-0.7,2.81c-0.48,0.79-1.19,1.42-2.04,1.8c-1.02,0.44-2.12,0.65-3.22,0.62
						h-4.33v-2.79h3.77c0.56,0.02,1.12-0.08,1.65-0.27c0.41-0.16,0.75-0.44,0.98-0.82c0.23-0.41,0.34-0.88,0.32-1.35
						c0.02-0.48-0.1-0.96-0.32-1.38c-0.23-0.38-0.57-0.68-0.99-0.85c-0.53-0.21-1.09-0.31-1.66-0.29h-2.34v13.57H187.12z
						 M195.98,21.84l4.08,7.47h-3.83l-3.99-7.47H195.98z"/>
					<path id="Tracé_12" class="st1" d="M147.77,14.2c-0.71,0.01-1.4-0.26-1.91-0.75c-0.99-0.89-1.07-2.41-0.19-3.4
						c0.06-0.07,0.12-0.13,0.19-0.19c1.09-0.99,2.75-0.99,3.83,0.01c0.99,0.9,1.06,2.43,0.17,3.42c-0.05,0.06-0.11,0.11-0.17,0.17
						C149.18,13.95,148.49,14.22,147.77,14.2"/>
				</g>
			</g>
		</g>
	</g>
	<g class="st0">
		<path class="st1" d="M-59.21,12.65v24.11h9.64v6.81h-17.67V12.65H-59.21z"/>
		<path class="st1" d="M-45.44,12.65h11.97c2.84,0,5,0.68,6.48,2.05c1.48,1.37,2.21,3.33,2.21,5.9c0,1.56-0.28,2.85-0.84,3.87
			c-0.56,1.03-1.41,1.89-2.56,2.6c1.15,0.22,2.12,0.55,2.93,1c0.81,0.45,1.46,1,1.97,1.66c0.51,0.66,0.87,1.39,1.09,2.21
			c0.22,0.82,0.33,1.69,0.33,2.62c0,1.45-0.25,2.73-0.76,3.85c-0.51,1.12-1.22,2.06-2.13,2.83c-0.92,0.77-2.03,1.34-3.34,1.72
			c-1.31,0.38-2.79,0.57-4.43,0.57h-12.92V12.65z M-37.4,24.79h1.48c2.51,0,3.77-1,3.77-2.99c0-1.99-1.26-2.99-3.77-2.99h-1.48
			V24.79z M-37.4,37.33h1.76c2.02,0,3.47-0.26,4.35-0.78c0.87-0.52,1.31-1.35,1.31-2.5c0-1.15-0.44-1.98-1.31-2.5
			c-0.88-0.52-2.32-0.78-4.35-0.78h-1.76V37.33z"/>
		<path class="st1" d="M5.2,22.98c-1.86-2.27-4.16-3.4-6.89-3.4c-1.2,0-2.32,0.22-3.34,0.66c-1.02,0.44-1.91,1.03-2.64,1.78
			C-8.41,22.77-9,23.67-9.42,24.7c-0.42,1.04-0.64,2.16-0.64,3.36c0,1.23,0.21,2.36,0.64,3.4c0.42,1.04,1.01,1.94,1.76,2.71
			c0.75,0.77,1.63,1.37,2.64,1.8c1.01,0.44,2.1,0.66,3.28,0.66c2.57,0,4.88-1.09,6.93-3.28v9.51l-0.82,0.29
			C3.15,43.59,2,43.91,0.93,44.12c-1.07,0.21-2.12,0.31-3.16,0.31c-2.13,0-4.18-0.4-6.13-1.21c-1.95-0.81-3.68-1.94-5.17-3.4
			c-1.49-1.46-2.69-3.2-3.59-5.21c-0.9-2.01-1.35-4.2-1.35-6.58s0.44-4.56,1.33-6.54c0.89-1.98,2.08-3.69,3.57-5.12
			c1.49-1.44,3.22-2.56,5.19-3.36c1.97-0.81,4.03-1.21,6.19-1.21c1.23,0,2.44,0.13,3.63,0.39c1.19,0.26,2.44,0.66,3.75,1.21V22.98z"
			/>
	</g>
</g>
</svg>
