<svg id="Groupe_34" data-name="Groupe 34" xmlns="http://www.w3.org/2000/svg" xmlns:xlink="http://www.w3.org/1999/xlink" width="322.478" height="12.881" viewBox="0 0 322.478 12.881">
  <defs>
    <clipPath id="clip-path">
      <rect id="Rectangle_48" data-name="Rectangle 48" width="322.478" height="12.881" fill="none"/>
    </clipPath>
  </defs>
  <g id="Groupe_31" data-name="Groupe 31" transform="translate(0 0)" clip-path="url(#clip-path)">
    <path id="Tracé_343" data-name="Tracé 343" d="M88.718,4.082c.171-.116.149-.4-.258-.358l-.386.46Z" transform="translate(186.14 1.593)" fill="#f72"/>
    <path id="Tracé_344" data-name="Tracé 344" d="M88.138,3.288c-.517.21-1.14.588-.925,1.033.554-.434.626-.24,1.239-.758.414-.039.666.179.56.348.165-.114.595.129.872-.159a1.783,1.783,0,0,0-1.84-.153c-.128-.109.044-.226.093-.311" transform="translate(184.229 1.408)" fill="#f72"/>
    <path id="Tracé_345" data-name="Tracé 345" d="M75,1.776l.243.063A.716.716,0,0,0,75,1.776" transform="translate(158.509 0.76)" fill="#f72"/>
    <path id="Tracé_346" data-name="Tracé 346" d="M67.235,1.195c.187-.009.268-.054.28-.1-.174.027-.318.054-.28.1" transform="translate(142.085 0.471)" fill="#f72"/>
    <path id="Tracé_347" data-name="Tracé 347" d="M65.916.756l.243.036a.283.283,0,0,0-.243-.036" transform="translate(139.31 0.317)" fill="#f72"/>
    <path id="Tracé_348" data-name="Tracé 348" d="M75.43,1.826,74.8,1.659c-.065.153.314.124.626.167" transform="translate(158.079 0.71)" fill="#f72"/>
    <path id="Tracé_349" data-name="Tracé 349" d="M85.683,3.966a1.206,1.206,0,0,0,.374-.11c-.115.016-.224.029-.336.037Z" transform="translate(181.087 1.651)" fill="#f72"/>
    <path id="Tracé_350" data-name="Tracé 350" d="M78.447,1.776l.2,0a1.391,1.391,0,0,0,.2-.187Z" transform="translate(165.794 0.682)" fill="#f72"/>
    <path id="Tracé_351" data-name="Tracé 351" d="M81.362,1.893c-.181-.024-.318.373-.417.544A.691.691,0,0,1,81.4,2.18a.55.55,0,0,0-.034-.287" transform="translate(171.073 0.81)" fill="#f72"/>
    <path id="Tracé_352" data-name="Tracé 352" d="M85.2,2.761l.24-.046-.24.046" transform="translate(180.066 1.163)" fill="#f72"/>
    <path id="Tracé_353" data-name="Tracé 353" d="M76.6,1.588a.3.3,0,0,0-.053-.146.2.2,0,0,0,.053.146" transform="translate(161.784 0.617)" fill="#f72"/>
    <path id="Tracé_354" data-name="Tracé 354" d="M3.363,6.346l-.028-.07c-.031.043-.034.073.028.07" transform="translate(7.002 2.688)" fill="#f72"/>
    <path id="Tracé_355" data-name="Tracé 355" d="M.089,5.587l.118-.033L.136,5.331Z" transform="translate(0.189 2.283)" fill="#f72"/>
    <path id="Tracé_356" data-name="Tracé 356" d="M63.493.306l.034.009c.2-.043.087-.037-.034-.009" transform="translate(134.189 0.121)" fill="#f72"/>
    <path id="Tracé_357" data-name="Tracé 357" d="M41.4.43c.809.348-1.255.477-.044.86C41.232,1.134,42.4.65,41.4.43" transform="translate(86.572 0.184)" fill="#f72"/>
    <path id="Tracé_358" data-name="Tracé 358" d="M85.846,3.893c-.112,0-.224,0-.336-.01a1.259,1.259,0,0,0,.336.01" transform="translate(180.721 1.663)" fill="#f72"/>
    <path id="Tracé_359" data-name="Tracé 359" d="M41.088,1.032v0l.125.036c-.05-.017-.081-.026-.125-.04" transform="translate(86.837 0.442)" fill="#f72"/>
    <path id="Tracé_360" data-name="Tracé 360" d="M57.87.318A.478.478,0,0,0,58.041.5C58.038.454,58,.4,57.87.318" transform="translate(122.305 0.136)" fill="#f72"/>
    <path id="Tracé_361" data-name="Tracé 361" d="M62.259.831,61.941.772a1.325,1.325,0,0,0,.318.059" transform="translate(130.909 0.331)" fill="#f72"/>
    <path id="Tracé_362" data-name="Tracé 362" d="M56.013.7A.867.867,0,0,0,55.54.664a.272.272,0,0,0,.072.05.443.443,0,0,1,.4-.014" transform="translate(117.381 0.275)" fill="#f72"/>
    <path id="Tracé_363" data-name="Tracé 363" d="M53.432.652a1.449,1.449,0,0,0,.128.081l.224-.02Z" transform="translate(112.926 0.279)" fill="#f72"/>
    <path id="Tracé_364" data-name="Tracé 364" d="M10.459,5.269a1.663,1.663,0,0,1-.423-.337c.19.276-.8.444.423.337" transform="translate(20.791 2.112)" fill="#f72"/>
    <path id="Tracé_365" data-name="Tracé 365" d="M85.861,3.776a.318.318,0,0,1-.243.164l.237-.013c.031-.059.05-.114.006-.151" transform="translate(180.949 1.617)" fill="#f72"/>
    <path id="Tracé_366" data-name="Tracé 366" d="M56.324,2.919l-1.108-.067a9.369,9.369,0,0,0,1.108.067" transform="translate(116.696 1.221)" fill="#f72"/>
    <path id="Tracé_367" data-name="Tracé 367" d="M26.223,3.495l-.246.056a.352.352,0,0,0,.246-.056" transform="translate(54.901 1.497)" fill="#f72"/>
    <path id="Tracé_368" data-name="Tracé 368" d="M54.665,2.962a1.763,1.763,0,0,0-.62-.281.4.4,0,0,0-.131.1Z" transform="translate(113.947 1.148)" fill="#f72"/>
    <path id="Tracé_369" data-name="Tracé 369" d="M9.9,4.93l0,0Z" transform="translate(20.923 2.111)" fill="#f72"/>
    <path id="Tracé_370" data-name="Tracé 370" d="M23.877,8.458c1.049-.057.33-.543.455-.857,1.2-.23.7.346,1.208.586.735-.189,1.186-.707,1.775-.726.068.083.193.107.093.224.7-.47,2.441-.18,3.247-.766a.474.474,0,0,1,.165.121,1.329,1.329,0,0,1-.361-.708c.467-.04.778-.384,1.055-.053-.293.007-.274.146-.38.26l.451-.177c.588.467-.626.209-.52.574a9.258,9.258,0,0,1,2.7-.591c.29.473-1.681.261-.573.633L32,6.86c1.093.708-.707-.013.33.753,1.538.053,1.6-.341,3.141-.287.262-.287-.224-.388.037-.676,2-.6,2.008,1.114,3.4.383.318-.344.311-.963,1.513-.7l-.234.566c1.463-.029.623-.83,2.242-.551-.215.23-1.1.246-.859.3,1.1.373.616-.348,1.376-.393l.28.474c1.526-.169,3.148-.59,4.848-.766-.062.147-.318.313.118.441a29.033,29.033,0,0,1,6.79.014l.7-.456c.187,0,.386.171.2.263.85.117-.016-.267.339-.45.458-.053.663.209.4.348a12.433,12.433,0,0,1,5.545-.566l-.271.136c1.217.121,1.158-.91,2.335-.566l-.2.083c2.6.077,5.364-.421,7.438.13.265-.617,2.587.164,2.6-.681a13.783,13.783,0,0,0,3.257.728c.557.021.732-.55,1.4-.66l.09.438.85-.49.579.51.623-.134c-.258-.017-.576-.18-.557-.307a3.6,3.6,0,0,1,2.547.453l2.3-.447c-.025.179-.411.251-.707.374,1.192-.488.3.456,1.392.007-.168-.094.044-.264.059-.354a6.984,6.984,0,0,0,2.88.066l-.143.309c1.765.021,3.674-.263,5.642-.321-.725-.119-.632-.648-.062-.717l.293.457c.336-.3-.626-.157.093-.531.741.03.564.513.162.676l.872-.184c.072.139-.131.216-.162.394.33-.3,1.6.431,2.067-.083l.069.137c1.968-.04,2.843-.221,4.443-.28-.016-.4.623-.327,1.065-.663a28.4,28.4,0,0,0,3.954.32c.975-.223.255-.346.679-.6.112.364,1.526.3.819.577a31.174,31.174,0,0,0,4.3-.468c-.246-.144-.517-.2-.392-.331.386-.069.906.133.866.31l-.1.04c2.376-.616,5.679.97,7.547.179l-.106.04,1.971-.424c.925.051-.532.283.165.5,2.114-.64,3.415.043,5.165-.387,1.438,1.06,4.879-.141,6.769.523l-.118-.253c.467-.256.588.137.943.191-.059-.2-.532-.221-.24-.364,4.054-.38,8.409.326,12.575.527,1.522.063.838-1.318,2.774-.717l-.539.473c3.067-.577,6.286,0,9.3-.493-.181.109-.187.251-.479.25.635.34,2.351.009,2.363-.271.47.03.109.253.4.394.638.2,1.607-.437,1.943-.093.056.056-.181.11-.3.136.417-.163,1.937.056,1.544-.343,1.127.2,2.164-.161,3.064.079.595-.437,1.93.226,2.13-.4-.093.646,1.971.534,2.693.234-.243.194.616.207.33.476.816,0,1.566-.119,1.435-.451,1.476.783,3.042-.6,3.854.394,2.435-.331,4.689-.551,6.881-.687-.112.643-2.416.047-2.354.724,2.08-.251,3.3-.8,5.346-.627.526.093-.318.277-.5.387,2.083-.243,3.988.124,5.85-.2-.009.06-.212.123-.4.169.364-.016.834.109.816-.184l-.358.073c-.554-.434,1.5-.863,1.579-1.085-.673.828,1.806.243.75,1.285.243-.051.551-.184.511-.381.352.063.455.18.081.4,1.308-.137.872-.456,2.046-.428-.016.141-.255.193-.389.357a3.719,3.719,0,0,1,2.22-.4c-.065.084.04.2-.255.19,1.709-.013,2.97-.684,4.823-.386-.607.607.62.214.673.748l1.021-.141-.38-.266a13,13,0,0,1,2.438-.163l-.676.209,1.663-.073-.915-.217c.918-.26-.031-.677,1.13-.507-.246.049.884.021,1.311.343h0a2.588,2.588,0,0,1,1.563-.189c.153.173-.2.586-.1.7.476-.437,2.08-.087,2.674-.553a.394.394,0,0,0-.181.446l.4-.354c.4.123.451.183.361.4,1.22.1-.318-.686,1.108-.353-.118.026-.069.081-.314.129,1.448.194,2.858-.149,4.184.067.333.547-1.192.1-.791.563,1.949-.041,4.094-.528,5.959-.348l-.342-.069c.355-.748,1.351.413,2.344.083-.24.05-.358.411-.286.33a24.173,24.173,0,0,0,4.636-.294l-.268.187c.735.2,1.98.157,2.787.269.271-.187.735-.143.492-.433,2.36,1.177,4.907-.456,7.005.528-.268-.006-.663.151-.451.159l1.937-.124c-.1-.334-.218-.207-.579-.474a2.529,2.529,0,0,1,1.311-.311c-.9.2-.078.526.262.727-.047-.1.1-.209.084-.313.9.626.274-.656,1.569-.207l-.1.17a6.022,6.022,0,0,1,1.572-.206c.162.388-.573.156-.66.467.775.009,1.641-.66,2.276-.253-.346.093-.816.076-1.161.169a2.115,2.115,0,0,0,1.342.46l-.053-.011,1.267.254-.311-.136c1.136-.953,1.993-.1,3.409-.7-1.373.564-.274.347-.448.774.311.133.791.287.626.4.676-.323.971.314,1.93-.159.012.14.654.04.451.383.816-.079-.143-.25-.047-.421,1.32-.424,2.78.69,4.673.11,1.575-.206,1.949-.663,3.412-.838.433.24-.492.488-.492.488a4,4,0,0,0,2.077.091c-.171.114-.04.223.15.387.588-.013.492-.488,1.217-.253a2.666,2.666,0,0,1-.694.533c.713-.1,1.445-.331,2.179-.428.14.25-.5.35-.788.5.822-.077,2.114-.136,2.444-.508l-.486-.157c.3-.007.081.334-.149.4-.747.273-.959-.171-.968-.313l.523-.069c-.352-.834-2.061.05-3.07-.039l.545-.574-1.146.448c-.19-.163-.277-.5.246-.567-.676-.323-.691.184-1.255-.167-.059-.053-.022-.08.047-.1l-.75.147c.165-.119-.037-.423.386-.318-1.217-.393-2.158.361-2.553-.107l.115-.031c-1.821.129-.258.427-1.691.884l-.694-1.108-.258.427c-.181-.023-.539-.07-.439-.24-.738.27.081.193-.367.458-.81-.431-2.472.087-2.544-.613-.377.317.8.289-.187.48-.134-.756-1.115.084-1.862-.29.318-.374,1.046-.14.3-.516-.6.631-1.547-.2-2.251-.107-.124.516-1.522.156-2.7.283.1-.171-2.1-.37-3.138-.6l.047-.086c-.293.517-1.373.368-2.192.453.081-.311.246-.433.7-.556l-.753-.021a1.648,1.648,0,0,1-.95.29l.252-.386a12.564,12.564,0,0,1-3.344.106c-.128.363.869,1.044-.529,1.25-.022-.2-.019-.538.349-.608a1.241,1.241,0,0,1-.663.061l.595-.317c-.564-.161-.349.269-.813.224.05-.281-.318-.21-.218-.431.125-.024.392.127.588.023a2.524,2.524,0,0,1-1.317-.47c.025.161-.056.378-.448.4-1.006-.009-.293-.348-.856-.51-.271.189-.884-.031-.962.388-.293-.01-.318-.209-.414-.326-.545.171-2.432-.016-1.912.448l.131.033-.087.017h0c-1.759.37-3.5-.338-5.212-.207l.022-.14a17.2,17.2,0,0,0-3.011.313c-.3-.009-.669-.277-.523-.44a3.8,3.8,0,0,1-1.971-.024c.8-.224-.243-.226.816-.159a3.6,3.6,0,0,0-2.307-.027c.408-.35-.7-.476-1.189-.381l.673.279a8.716,8.716,0,0,1-1.479-.053l.311-.467c-1.986-.631-3.8.867-5.259-.117-.579.321,1.09.253.564.633a11.076,11.076,0,0,1-2.145-.786c-1.267-.286-1.277.673-2.612.47.159.171.277.627-.747.768-.937-.079-1.093-.73-.483-.856.227-.011.33.046.314.1.311-.056.719-.121.364-.311l-.14.167c-.451-.181-1.753-.186-1.423-.458-.729.15-.33.273.19.37-1.189-.266-1.89-.04-3.123-.226.19.1.355.3.156.293-1.809-.241-.831.307-2.077.36-.682-.27.305-.611-.959-.417-.747-.187-.125-.451.19-.584A5.892,5.892,0,0,1,200.02.438l.61-.127a3.9,3.9,0,0,1-.956.061l.314.346c-.346-.066-.644-.073-.626-.213-.38.216.234.568-.508.86-.458-.181-1.441.16-1.569-.293,1.463.179-.131-.454,1.124-.506a2.327,2.327,0,0,1-.887-.023c-.05-.051.056-.093.156-.117-1.385-.426-.688.5-2.148.461.2-.25-.305-.486-.548-.436.588.014.252.427-.3.611-.922-.213-1.027.13-1.516.1l.554.1c-.205.251-.673.21-1.329.279-.044-.2.6-.126.374-.217-.753.433-1.61-.49-2.64-.207-.458-.18-.016-.477-.42-.6-1.155.307-1.211-.368-2.419-.1.327.343.389.26-.467.587L188.79.777l-1.286.484c.592.009,1.258-.206,1.61-.14-.613.269-.548.184-.283.471-.778-.523-1.616.286-2.531-.067l.072-.844c-1.389-.384-2.522.417-4.337.193l.579.15c-.258.334-1.13.04-1.725.171.065-.281-.3-.387-.545-.564.022.21-1.339-.027-1.526.534l-.8-.377c-1.47-.161-1.709.793-3.123.687.436-.3-.2-.507.753-.72-.473-.007-.9-.061-.909.134-.271-.179-1.323.371-1.753.1-.2.123-.274.417-.8.391-.056-.059,0-.14,0-.14,0,.14-.834.184-.377.5-1.438-.89-4.072.036-5.327-.728-1.034.089-2.279.17-3.216.184.062-.083.006-.14.181-.11-1.289-.271-.8.806-2.267.517-.75-.454.781-.25.314-.421-.2-.927-1.778.133-2.765-.4l.24-.056c-.76-.313-1.849.357-3.085.3,0,0,.059-.083.006-.14a11.4,11.4,0,0,1-3.627.774c.364-.364.539-.194.308-.563-.532.054.162.591-.9.7-.349-.2-1.118-.368-1.227-.761L151.45,1c-.523-.508-1.3.021-1.831-.066l.062-.223c-1.538.079-1.547.64-3.2.606l.174.167c-.89.558-.766-.31-1.656.107l-.286-.563a27.478,27.478,0,0,1-3.138.661,11.713,11.713,0,0,1,2.6-.89,5.709,5.709,0,0,0-2.307.328,1.469,1.469,0,0,1,.772-.109,5.251,5.251,0,0,1-2.836.661c.168-1.1-3.076-.257-3.97-1.087-2.064.433-4.144-.117-6.572-.02.912.838-.71.034-.507.9-.56.064-.778.053-.831,0l-1.747-.5c-.423-.249.526-.2.461-.4C125.4.534,126.094.221,125.26,0c.187.31-.4.453-1.118.344l1.024.388c-1.7.488-1.55-.713-3.263-.229l.532-.283c-.884.174-3.31.039-4.132.751-.165-.1-.4-.334-.006-.4-2.151-.086-4.7.827-6.4.436l.14-.217c-.392.07-.657.416-1.177.213.019-.089.14-.216-.044-.224a3.417,3.417,0,0,1-1.566.286l.43-.251c-2.117-.231-3.145.658-4.876.844-.062-.628-1.728-.794-2.559-.877l.019-.09C99.823.667,98.2,1.3,95.981,1.6,94.5.941,91.218,1.46,88.92,1.144c.358.1.012.491-.377.567-.545-.111-1.389.481-1.389-.1l.187.006c-.479-.551-1.541-.367-2.388-.356l-.022.757C82.55,1,79.212,2.608,77.845,1.667c-.5.2-1.161.223-1.656.428l-.044-.4a25.552,25.552,0,0,0-4.047.1l.321-.3c-1.034.016-1.087,1.215-2.03,1.277l-.4-.59c-1.79.083-3.714-.371-5.377.246.009-.089.028-.264.314-.3-.847.02-3.353-.273-2.877.54-.131-.537-1.862.023-2.777.3l.065-.4a2.884,2.884,0,0,1-1.815.876c-.28-.039-.305-.306.075-.221-.943-.163-.616.41-1.753.251l.349-.273a1.384,1.384,0,0,0-1.27.467,2.422,2.422,0,0,1-2-.364,1.033,1.033,0,0,1-1.083.464c-.1-.131.075-.224.165-.271-1.61-.193-2.192.574-3.347.237a.382.382,0,0,0-.237-.227c1.233-.05,2.226-.077,2.142-.044-.087-.364-1.1-.38-.423-.923a6.466,6.466,0,0,1-2.964.856.585.585,0,0,1-.159-.12l.09-.046a1.188,1.188,0,0,0-.6.089,4.594,4.594,0,0,0-.831-.07c-.19-.3-1.18-.106-1.681-.1.143.4-.523.366.168.664-.087-.024.081-.051.408-.084a.843.843,0,0,0,.2-.051l-.025.036,1.224-.087a1.365,1.365,0,0,1-1.308.219,6.848,6.848,0,0,1-.529.677c-.816-.524-2.2-.746-2.469-1.078-1.451.31-3.521.351-4.265,1.154-.4.121-.554-.186-.744-.294.227-.09.523-.1.629-.21-.806.241-2.522.22-2.581.754-1.146-.173.473-.516-.987-.344l.153-.171c-3.169-.673-4.356,1.614-7.905.756.243.051.364.074.439.159C22.572,5,18.967,6.171,15.088,5.7c-1.087-.076-1.08.266-1.619.564l-.377-.41-.9.57c-1.389.468-3.026-.834-4.7,0l.361.266c-.716,0-2.126.344-2.142.007-.05.057-.109.314-.439.189l-.109-.221L3.614,7.19c-1.385-.046-.159-.9-2.111-.773-.685.147-1.784.836-1.435.955.3-.016.806.069.925.289l-.6.176C.57,8.5.417,9.208,2.151,9.521l.922-.5.486.286-.912.1a.975.975,0,0,0,1.164-.253,1.111,1.111,0,0,0,.6.308l.822-.718c.234.244-.274.55.5.627.386-.334-.719-.531.044-.794.648.254.588.508,1.112.206.153.161.062.279-.153.373.473-.247,1.426-.2,1.579-.574.691.323,1.831-.246,2.011.38a2.7,2.7,0,0,1,1.289-.633c-.657.813,1.924-.1,1.968.717.448-.718,2.379-.478,3.471-.94-.05.059-.146.176-.268.15a5.638,5.638,0,0,1,1.46.287c-.1-.56.928-.764,1.392-1.147,1.021.471-.3.686.14,1.18-.19-.446,1.314-.554.906-.906.757.289.61.124,1.093.561-.112-.7.564-.157.962-.617,1.046.28.448.633,1.41.354.554.181-.28.486-.28.486M48.04,5.823l0,.009-.5.047.5-.056m2.067-.109c-.255,0-.57.01-.9.03-.106-.136-.062-.281.146-.284-.09.1.417.154.753.254M45.042,3.166c.314-.073.445,0,.511.08-.153.014-.333.037-.564.076l-.028.051a.39.39,0,0,1,.081-.207" transform="translate(0.003 0)" fill="#f72"/>
    <path id="Tracé_371" data-name="Tracé 371" d="M14.407,2.607a.781.781,0,0,1-.128.036,2.162,2.162,0,0,0,.218.08l.087-.13Z" transform="translate(30.178 1.11)" fill="#f72"/>
    <path id="Tracé_372" data-name="Tracé 372" d="M75.122,1.831l-.044-.01a.208.208,0,0,1,.084.059c-.025-.02-.025-.031-.04-.049" transform="translate(158.673 0.78)" fill="#f72"/>
    <path id="Tracé_373" data-name="Tracé 373" d="M25.452,3.715l-.019-.1-.168.094Z" transform="translate(53.396 1.547)" fill="#f72"/>
    <path id="Tracé_374" data-name="Tracé 374" d="M78.708,3.021a.232.232,0,0,0,.134.109c0-.027-.062-.066-.134-.109" transform="translate(166.345 1.294)" fill="#f72"/>
    <path id="Tracé_375" data-name="Tracé 375" d="M80.289,3.222l.672.17a4.817,4.817,0,0,0-.672-.17" transform="translate(169.687 1.38)" fill="#f72"/>
    <path id="Tracé_376" data-name="Tracé 376" d="M81.5,3.518A.621.621,0,0,0,81.6,3.35l-.009,0Z" transform="translate(172.24 1.433)" fill="#f72"/>
    <path id="Tracé_377" data-name="Tracé 377" d="M62.291,2.7a.787.787,0,0,0-.146.016c-.352.071-.115.046.146-.016" transform="translate(130.964 1.155)" fill="#f72"/>
    <path id="Tracé_378" data-name="Tracé 378" d="M68.286,2.259a5,5,0,0,1-.6.18c.318.036.564.049.6-.18" transform="translate(143.055 0.967)" fill="#f72"/>
    <path id="Tracé_379" data-name="Tracé 379" d="M55.694,2.907l0-.007h-.125Z" transform="translate(117.449 1.242)" fill="#f72"/>
    <path id="Tracé_380" data-name="Tracé 380" d="M67.419,2.378a1.746,1.746,0,0,0,.838.021,2.7,2.7,0,0,0-.838-.021" transform="translate(142.486 1.007)" fill="#f72"/>
    <path id="Tracé_381" data-name="Tracé 381" d="M86.767,4.065l.177.024a.1.1,0,0,1,.037-.064Z" transform="translate(183.377 1.724)" fill="#f72"/>
    <path id="Tracé_382" data-name="Tracé 382" d="M86.836,4.038,87.048,4c-.093,0-.174,0-.212.039" transform="translate(183.523 1.712)" fill="#f72"/>
    <path id="Tracé_383" data-name="Tracé 383" d="M87.352,3.94l-.448.084a.609.609,0,0,0,.448-.084" transform="translate(183.667 1.687)" fill="#f72"/>
    <path id="Tracé_384" data-name="Tracé 384" d="M85.225,3.784l-.087.143a.263.263,0,0,0,.087-.143" transform="translate(179.935 1.62)" fill="#f72"/>
    <path id="Tracé_385" data-name="Tracé 385" d="M84.673,3.786a4.464,4.464,0,0,0,1.379.276l.068-.114c-.28.207-1.052-.393-1.448-.161" transform="translate(178.952 1.598)" fill="#f72"/>
    <path id="Tracé_386" data-name="Tracé 386" d="M82.733,2.456l1.261.167c-.2-.163-.451-.383.14-.4-1.532-.526.268.36-1.4.23" transform="translate(174.852 0.881)" fill="#f72"/>
    <path id="Tracé_387" data-name="Tracé 387" d="M81.685,2.162c.7-.044.031-.224.084-.311-.464.124-.576.156-.084.311" transform="translate(171.961 0.793)" fill="#f72"/>
    <path id="Tracé_388" data-name="Tracé 388" d="M72.308,1.534l.115-.363c-.539.037-.022.141-.115.363" transform="translate(152.536 0.501)" fill="#f72"/>
    <path id="Tracé_389" data-name="Tracé 389" d="M70.378,2.662l.489.241.286-.327Z" transform="translate(148.741 1.103)" fill="#f72"/>
    <path id="Tracé_390" data-name="Tracé 390" d="M69.879.765l.24-.046-.906.114Z" transform="translate(146.278 0.308)" fill="#f72"/>
    <path id="Tracé_391" data-name="Tracé 391" d="M53.836.416l.153.451c.364-.079.448-.584-.153-.451" transform="translate(113.78 0.168)" fill="#f72"/>
    <path id="Tracé_392" data-name="Tracé 392" d="M47.91.823A1.117,1.117,0,0,0,46.727.679,7.909,7.909,0,0,0,47.91.823" transform="translate(98.755 0.243)" fill="#f72"/>
    <path id="Tracé_393" data-name="Tracé 393" d="M27.17,1.091l.4-.164-.775.151Z" transform="translate(56.627 0.397)" fill="#f72"/>
    <path id="Tracé_394" data-name="Tracé 394" d="M103.9,5.957c.168-.116.146-.4-.265-.357l-.38.46Z" transform="translate(218.235 2.396)" fill="#f72"/>
    <path id="Tracé_395" data-name="Tracé 395" d="M103.315,5.169c-.514.21-1.133.591-.915,1.035.551-.436.626-.243,1.233-.763.411-.04.666.177.564.348.165-.116.6.126.872-.161a1.79,1.79,0,0,0-1.846-.147c-.125-.11.044-.227.093-.313" transform="translate(216.321 2.214)" fill="#f72"/>
    <path id="Tracé_396" data-name="Tracé 396" d="M90.174,3.725l.243.063a.684.684,0,0,0-.243-.063" transform="translate(190.578 1.595)" fill="#f72"/>
    <path id="Tracé_397" data-name="Tracé 397" d="M82.406,3.186c.187-.009.268-.054.28-.1-.174.029-.318.056-.28.1" transform="translate(174.148 1.323)" fill="#f72"/>
    <path id="Tracé_398" data-name="Tracé 398" d="M81.085,2.754l.243.036a.284.284,0,0,0-.243-.036" transform="translate(171.369 1.172)" fill="#f72"/>
    <path id="Tracé_399" data-name="Tracé 399" d="M90.606,3.775l-.629-.166c-.065.153.318.123.629.166" transform="translate(190.146 1.545)" fill="#f72"/>
    <path id="Tracé_400" data-name="Tracé 400" d="M100.868,5.857a1.232,1.232,0,0,0,.374-.111c-.115.017-.224.03-.339.039Z" transform="translate(213.179 2.461)" fill="#f72"/>
    <path id="Tracé_401" data-name="Tracé 401" d="M93.621,3.706l.2,0a1.459,1.459,0,0,0,.193-.187Z" transform="translate(197.863 1.509)" fill="#f72"/>
    <path id="Tracé_402" data-name="Tracé 402" d="M96.532,3.809c-.184-.024-.311.374-.411.546a.674.674,0,0,1,.448-.259.526.526,0,0,0-.037-.287" transform="translate(203.147 1.631)" fill="#f72"/>
    <path id="Tracé_403" data-name="Tracé 403" d="M100.379,4.655l.24-.047-.24.047" transform="translate(212.146 1.973)" fill="#f72"/>
    <path id="Tracé_404" data-name="Tracé 404" d="M91.779,3.528a.274.274,0,0,0-.056-.146.186.186,0,0,0,.056.146" transform="translate(193.849 1.448)" fill="#f72"/>
    <path id="Tracé_405" data-name="Tracé 405" d="M18.562,8.686l-.028-.07c-.031.043-.034.073.028.07" transform="translate(39.124 3.69)" fill="#f72"/>
    <path id="Tracé_406" data-name="Tracé 406" d="M15.285,7.944l.118-.033-.075-.223Z" transform="translate(32.303 3.292)" fill="#f72"/>
    <path id="Tracé_407" data-name="Tracé 407" d="M78.659,2.318l.034.009c.2-.043.087-.037-.034-.009" transform="translate(166.242 0.983)" fill="#f72"/>
    <path id="Tracé_408" data-name="Tracé 408" d="M56.559,2.563c.816.346-1.248.481-.034.86-.121-.154,1.034-.643.034-.86" transform="translate(118.632 1.098)" fill="#f72"/>
    <path id="Tracé_409" data-name="Tracé 409" d="M101.032,5.784c-.112,0-.224,0-.336-.009a1.247,1.247,0,0,0,.336.009" transform="translate(212.816 2.473)" fill="#f72"/>
    <path id="Tracé_410" data-name="Tracé 410" d="M56.258,3.166v0l.125.036c-.05-.017-.081-.026-.125-.04" transform="translate(118.898 1.356)" fill="#f72"/>
    <path id="Tracé_411" data-name="Tracé 411" d="M73.036,2.361a.526.526,0,0,0,.174.177c-.006-.041-.044-.093-.174-.177" transform="translate(154.358 1.011)" fill="#f72"/>
    <path id="Tracé_412" data-name="Tracé 412" d="M77.428,2.851l-.318-.059a1.326,1.326,0,0,0,.318.059" transform="translate(162.968 1.196)" fill="#f72"/>
    <path id="Tracé_413" data-name="Tracé 413" d="M71.181,2.754a.855.855,0,0,0-.473-.034.3.3,0,0,0,.072.049.447.447,0,0,1,.4-.014" transform="translate(149.438 1.155)" fill="#f72"/>
    <path id="Tracé_414" data-name="Tracé 414" d="M68.6,2.718a1.143,1.143,0,0,0,.131.081l.221-.02Z" transform="translate(144.982 1.164)" fill="#f72"/>
    <path id="Tracé_415" data-name="Tracé 415" d="M25.652,7.572a1.627,1.627,0,0,1-.427-.336c.19.276-.791.446.427.336" transform="translate(52.9 3.099)" fill="#f72"/>
    <path id="Tracé_416" data-name="Tracé 416" d="M101.044,5.666a.313.313,0,0,1-.24.164l.237-.013c.031-.059.047-.114,0-.151" transform="translate(213.044 2.426)" fill="#f72"/>
    <path id="Tracé_417" data-name="Tracé 417" d="M71.507,4.973l-1.112-.064a9.511,9.511,0,0,0,1.112.064" transform="translate(148.776 2.102)" fill="#f72"/>
    <path id="Tracé_418" data-name="Tracé 418" d="M41.407,5.71l-.246.057a.352.352,0,0,0,.246-.057" transform="translate(86.992 2.445)" fill="#f72"/>
    <path id="Tracé_419" data-name="Tracé 419" d="M69.847,5.025a1.773,1.773,0,0,0-.623-.28.446.446,0,0,0-.131.1Z" transform="translate(146.027 2.032)" fill="#f72"/>
    <path id="Tracé_420" data-name="Tracé 420" d="M25.091,7.233l0,0Z" transform="translate(53.029 3.097)" fill="#f72"/>
    <path id="Tracé_422" data-name="Tracé 422" d="M29.586,4.888a.6.6,0,0,1-.128.036c.078.031.149.059.221.08l.081-.131Z" transform="translate(62.258 2.086)" fill="#f72"/>
    <path id="Tracé_423" data-name="Tracé 423" d="M90.3,3.779l-.044-.01a.244.244,0,0,1,.087.059c-.028-.02-.028-.031-.044-.049" transform="translate(190.743 1.614)" fill="#f72"/>
    <path id="Tracé_424" data-name="Tracé 424" d="M40.637,5.934l-.022-.1-.165.1Z" transform="translate(85.489 2.498)" fill="#f72"/>
    <path id="Tracé_425" data-name="Tracé 425" d="M93.889,4.95a.232.232,0,0,0,.134.109c0-.027-.062-.066-.134-.109" transform="translate(198.429 2.12)" fill="#f72"/>
    <path id="Tracé_426" data-name="Tracé 426" d="M95.471,5.142l.676.169a4.905,4.905,0,0,0-.676-.169" transform="translate(201.773 2.202)" fill="#f72"/>
    <path id="Tracé_427" data-name="Tracé 427" d="M96.68,5.431a.616.616,0,0,0,.1-.169l-.006,0Z" transform="translate(204.328 2.252)" fill="#f72"/>
    <path id="Tracé_428" data-name="Tracé 428" d="M77.469,4.716a.787.787,0,0,0-.146.016c-.349.073-.115.046.146-.016" transform="translate(163.045 2.02)" fill="#f72"/>
    <path id="Tracé_429" data-name="Tracé 429" d="M83.46,4.247a4.643,4.643,0,0,1-.595.181c.318.034.567.047.595-.181" transform="translate(175.131 1.819)" fill="#f72"/>
    <path id="Tracé_430" data-name="Tracé 430" d="M70.874,4.961l0-.007h-.125Z" transform="translate(149.531 2.122)" fill="#f72"/>
    <path id="Tracé_431" data-name="Tracé 431" d="M82.6,4.368a1.763,1.763,0,0,0,.838.02,2.652,2.652,0,0,0-.838-.02" transform="translate(174.562 1.859)" fill="#f72"/>
    <path id="Tracé_432" data-name="Tracé 432" d="M101.953,5.95l.181.024a.085.085,0,0,1,.034-.064Z" transform="translate(215.472 2.531)" fill="#f72"/>
    <path id="Tracé_433" data-name="Tracé 433" d="M102.021,5.922l.212-.04c-.093,0-.174,0-.212.04" transform="translate(215.616 2.519)" fill="#f72"/>
    <path id="Tracé_434" data-name="Tracé 434" d="M102.537,5.823l-.448.084a.6.6,0,0,0,.448-.084" transform="translate(215.76 2.494)" fill="#f72"/>
    <path id="Tracé_435" data-name="Tracé 435" d="M100.407,5.677l-.084.143a.261.261,0,0,0,.084-.143" transform="translate(212.027 2.431)" fill="#f72"/>
    <path id="Tracé_436" data-name="Tracé 436" d="M99.857,5.683a4.41,4.41,0,0,0,1.382.271l.068-.113c-.28.206-1.059-.39-1.451-.159" transform="translate(211.042 2.41)" fill="#f72"/>
    <path id="Tracé_437" data-name="Tracé 437" d="M97.91,4.364l1.264.164c-.2-.163-.458-.383.134-.4-1.538-.523.274.358-1.4.233" transform="translate(206.928 1.697)" fill="#f72"/>
    <path id="Tracé_438" data-name="Tracé 438" d="M96.86,4.075c.7-.046.028-.224.081-.311-.461.126-.573.157-.081.311" transform="translate(204.032 1.612)" fill="#f72"/>
    <path id="Tracé_439" data-name="Tracé 439" d="M87.483,3.5l.112-.363c-.542.039-.022.141-.112.363" transform="translate(184.598 1.342)" fill="#f72"/>
    <path id="Tracé_440" data-name="Tracé 440" d="M85.557,4.637l.492.24.283-.328Z" transform="translate(180.82 1.948)" fill="#f72"/>
    <path id="Tracé_441" data-name="Tracé 441" d="M85.047,2.745l.237-.046-.9.116Z" transform="translate(178.335 1.156)" fill="#f72"/>
    <path id="Tracé_442" data-name="Tracé 442" d="M69,2.48l.159.45c.361-.079.439-.584-.159-.45" transform="translate(145.832 1.052)" fill="#f72"/>
    <path id="Tracé_443" data-name="Tracé 443" d="M63.081,2.923a1.126,1.126,0,0,0-1.186-.141,7.762,7.762,0,0,0,1.186.141" transform="translate(130.812 1.143)" fill="#f72"/>
    <path id="Tracé_444" data-name="Tracé 444" d="M42.341,3.3l.4-.164-.772.151Z" transform="translate(88.689 1.343)" fill="#f72"/>
  </g>
</svg>
