<svg id="Groupe_106" data-name="Groupe 106" xmlns="http://www.w3.org/2000/svg" xmlns:xlink="http://www.w3.org/1999/xlink" width="356.397" height="15.979" viewBox="0 0 356.397 15.979">
  <defs>
    <clipPath id="clip-path">
      <rect id="Rectangle_48" data-name="Rectangle 48" width="356.397" height="15.978" fill="none"/>
    </clipPath>
  </defs>
  <g id="Groupe_31" data-name="Groupe 31" transform="translate(0 0)" clip-path="url(#clip-path)">
    <path id="Tracé_343" data-name="Tracé 343" d="M88.786,4.169c.189-.144.165-.493-.286-.445l-.427.57Z" transform="translate(214.982 2.87)" fill="#f72"/>
    <path id="Tracé_344" data-name="Tracé 344" d="M88.24,3.288c-.571.26-1.259.73-1.022,1.281.613-.539.692-.3,1.369-.941.458-.048.736.221.619.432.182-.142.657.159.963-.2a1.8,1.8,0,0,0-2.034-.19c-.141-.135.048-.28.1-.386" transform="translate(212.776 2.537)" fill="#f72"/>
    <path id="Tracé_345" data-name="Tracé 345" d="M75,1.776l.268.078A.724.724,0,0,0,75,1.776" transform="translate(183.069 1.37)" fill="#f72"/>
    <path id="Tracé_346" data-name="Tracé 346" d="M67.236,1.218c.206-.011.3-.067.31-.119-.193.034-.351.067-.31.119" transform="translate(164.101 0.848)" fill="#f72"/>
    <path id="Tracé_347" data-name="Tracé 347" d="M65.916.76,66.184.8c-.1-.055-.2-.087-.268-.044" transform="translate(160.896 0.571)" fill="#f72"/>
    <path id="Tracé_348" data-name="Tracé 348" d="M75.5,1.866,74.8,1.659c-.072.19.348.154.692.207" transform="translate(182.573 1.28)" fill="#f72"/>
    <path id="Tracé_349" data-name="Tracé 349" d="M85.683,3.992a1.226,1.226,0,0,0,.413-.136c-.127.019-.248.035-.372.046Z" transform="translate(209.146 2.975)" fill="#f72"/>
    <path id="Tracé_350" data-name="Tracé 350" d="M78.447,1.82l.217.005a1.629,1.629,0,0,0,.217-.232Z" transform="translate(191.483 1.229)" fill="#f72"/>
    <path id="Tracé_351" data-name="Tracé 351" d="M81.406,1.894c-.2-.03-.351.462-.461.675a.747.747,0,0,1,.5-.319.76.76,0,0,0-.038-.356" transform="translate(197.581 1.46)" fill="#f72"/>
    <path id="Tracé_352" data-name="Tracé 352" d="M85.2,2.772l.265-.057-.265.057" transform="translate(207.967 2.095)" fill="#f72"/>
    <path id="Tracé_353" data-name="Tracé 353" d="M76.609,1.623a.4.4,0,0,0-.058-.181.262.262,0,0,0,.058.181" transform="translate(186.852 1.113)" fill="#f72"/>
    <path id="Tracé_354" data-name="Tracé 354" d="M3.368,6.363l-.031-.087c-.034.053-.038.09.031.087" transform="translate(8.087 4.843)" fill="#f72"/>
    <path id="Tracé_355" data-name="Tracé 355" d="M.089,5.648.22,5.607.141,5.331Z" transform="translate(0.218 4.114)" fill="#f72"/>
    <path id="Tracé_356" data-name="Tracé 356" d="M63.493.311l.038.011c.224-.053.1-.046-.038-.011" transform="translate(154.982 0.218)" fill="#f72"/>
    <path id="Tracé_357" data-name="Tracé 357" d="M41.443.43c.895.432-1.387.592-.048,1.067C41.26,1.3,42.547.7,41.443.43" transform="translate(99.986 0.332)" fill="#f72"/>
    <path id="Tracé_358" data-name="Tracé 358" d="M85.882,3.9c-.124,0-.248,0-.372-.012a1.241,1.241,0,0,0,.372.012" transform="translate(208.724 2.996)" fill="#f72"/>
    <path id="Tracé_359" data-name="Tracé 359" d="M41.088,1.032v.005l.138.044c-.055-.021-.089-.032-.138-.05" transform="translate(100.293 0.796)" fill="#f72"/>
    <path id="Tracé_360" data-name="Tracé 360" d="M57.87.318a.569.569,0,0,0,.189.22c0-.051-.048-.113-.189-.22" transform="translate(141.256 0.245)" fill="#f72"/>
    <path id="Tracé_361" data-name="Tracé 361" d="M62.292.845,61.941.772a1.322,1.322,0,0,0,.351.073" transform="translate(151.193 0.596)" fill="#f72"/>
    <path id="Tracé_362" data-name="Tracé 362" d="M56.063.714A.86.86,0,0,0,55.54.669a.3.3,0,0,0,.079.062.443.443,0,0,1,.444-.018" transform="translate(135.569 0.496)" fill="#f72"/>
    <path id="Tracé_363" data-name="Tracé 363" d="M53.432.652a1.588,1.588,0,0,0,.141.1l.248-.025Z" transform="translate(130.424 0.503)" fill="#f72"/>
    <path id="Tracé_364" data-name="Tracé 364" d="M10.524,5.35a1.894,1.894,0,0,1-.468-.418c.21.342-.881.551.468.418" transform="translate(24.012 3.806)" fill="#f72"/>
    <path id="Tracé_365" data-name="Tracé 365" d="M85.886,3.776a.354.354,0,0,1-.268.2l.262-.016c.034-.073.055-.142.007-.188" transform="translate(208.987 2.914)" fill="#f72"/>
    <path id="Tracé_366" data-name="Tracé 366" d="M56.441,2.935l-1.225-.083a9.242,9.242,0,0,0,1.225.083" transform="translate(134.778 2.201)" fill="#f72"/>
    <path id="Tracé_367" data-name="Tracé 367" d="M26.249,3.495l-.272.069a.356.356,0,0,0,.272-.069" transform="translate(63.408 2.697)" fill="#f72"/>
    <path id="Tracé_368" data-name="Tracé 368" d="M54.744,3.03a1.854,1.854,0,0,0-.685-.349.458.458,0,0,0-.145.128Z" transform="translate(131.603 2.069)" fill="#f72"/>
    <path id="Tracé_369" data-name="Tracé 369" d="M9.9,4.93l0,.005Z" transform="translate(24.165 3.804)" fill="#f72"/>
    <path id="Tracé_370" data-name="Tracé 370" d="M26.388,10.492c1.16-.071.365-.673.5-1.063,1.332-.285.774.429,1.335.726.812-.234,1.311-.877,1.961-.9.076.1.213.133.1.278.771-.583,2.7-.223,3.589-.95a.535.535,0,0,1,.182.151,1.734,1.734,0,0,1-.4-.879c.516-.05.86-.477,1.166-.066-.323.009-.3.181-.42.322l.5-.22c.65.579-.692.259-.575.712,1.012-.269,2.126-.852,2.987-.733.32.586-1.858.324-.633.785l-1.321-.147c1.208.879-.781-.016.365.934,1.7.066,1.772-.423,3.472-.356.289-.356-.248-.482.041-.838C41.452,7.5,41.463,9.631,43,8.724c.351-.427.344-1.194,1.672-.873l-.258.7c1.617-.035.688-1.029,2.477-.684-.237.285-1.211.3-.95.37,1.211.462.681-.432,1.521-.487l.31.588c1.686-.209,3.479-.732,5.358-.95-.069.182-.351.388.131.547a28.613,28.613,0,0,1,7.5.018l.778-.565c.206-.005.427.213.224.326.939.145-.017-.331.375-.558.506-.066.733.259.44.432,1.5-.535,4.346-1.185,6.128-.7l-.3.168c1.345.151,1.28-1.129,2.581-.7l-.217.1c2.873.1,5.929-.523,8.22.161.292-.765,2.859.2,2.877-.845,1.7.446,1.263.636,3.6.9.616.027.809-.682,1.545-.819l.1.544.939-.608.64.632.688-.167c-.286-.021-.637-.223-.616-.381a3.629,3.629,0,0,1,2.815.562l2.546-.555c-.028.221-.454.312-.781.464,1.318-.606.33.565,1.538.009-.186-.117.048-.328.065-.439A6.9,6.9,0,0,0,98.131,6l-.158.383c1.951.027,4.06-.326,6.235-.4-.8-.147-.7-.8-.069-.889l.323.567c.372-.37-.692-.195.1-.659.819.037.623.636.179.838l.963-.229c.079.172-.145.268-.179.489.365-.369,1.772.535,2.285-.1l.076.17c2.175-.05,3.142-.275,4.91-.347-.017-.5.688-.406,1.177-.822a28.047,28.047,0,0,0,4.37.4c1.077-.276.282-.429.75-.739.124.452,1.686.369.9.716a30.841,30.841,0,0,0,4.748-.581c-.272-.179-.571-.253-.434-.411.427-.085,1,.165.957.384l-.11.05c2.625-.764,6.276,1.2,8.341.221l-.117.05,2.178-.526c1.022.064-.588.351.182.62,2.336-.794,3.775.053,5.708-.48,1.59,1.315,5.392-.175,7.481.648l-.131-.314c.516-.317.65.17,1.043.237-.065-.244-.588-.275-.265-.452,4.48-.471,9.294.4,13.9.654,1.683.078.926-1.635,3.066-.889l-.6.586c3.389-.716,6.947,0,10.278-.611-.2.135-.206.312-.53.31.7.422,2.6.011,2.612-.337.52.037.12.314.437.489.705.243,1.775-.542,2.147-.115.062.069-.2.136-.33.168.461-.2,2.14.069,1.707-.425,1.246.244,2.391-.2,3.386.1.657-.542,2.133.28,2.354-.493-.1.8,2.178.663,2.976.291-.268.241.681.257.365.59.9-.005,1.731-.147,1.586-.56,1.631.971,3.362-.746,4.26.489,2.691-.411,5.182-.684,7.6-.852-.124.8-2.67.058-2.6.9,2.3-.312,3.651-.987,5.908-.778.582.115-.351.344-.554.48,2.3-.3,4.408.154,6.466-.246-.01.074-.234.152-.444.209.4-.019.922.135.9-.229l-.4.09c-.612-.539,1.655-1.07,1.745-1.346-.743,1.028,2,.3.829,1.594.268-.064.609-.229.564-.473.389.078.5.223.089.491,1.445-.17.963-.565,2.261-.531-.017.175-.282.239-.43.443a3.732,3.732,0,0,1,2.453-.491c-.072.1.045.246-.282.236,1.889-.016,3.283-.849,5.33-.478-.671.753.685.266.743.928l1.129-.175-.42-.33c.974.03,1.875-.434,2.694-.2l-.747.259,1.837-.09L230.868,4.2c1.015-.322-.034-.84,1.249-.629-.272.06.977.027,1.449.425l0,0a2.579,2.579,0,0,1,1.727-.234c.169.214-.217.726-.107.87.526-.542,2.3-.108,2.956-.686a.52.52,0,0,0-.2.553l.444-.439c.437.152.5.227.4.5,1.349.126-.351-.85,1.225-.438-.131.032-.076.1-.348.159,1.6.241,3.159-.184,4.625.083.368.679-1.318.122-.874.7,2.154-.051,4.525-.656,6.586-.432l-.378-.085c.392-.928,1.493.512,2.591.1-.265.062-.4.51-.317.409a23.849,23.849,0,0,0,5.124-.365l-.3.232a28.462,28.462,0,0,0,3.08.333c.3-.232.812-.177.544-.537,2.608,1.46,5.423-.565,7.742.656-.3-.007-.733.188-.5.2l2.14-.154c-.11-.415-.241-.257-.64-.588a2.556,2.556,0,0,1,1.449-.386c-.991.243-.086.652.289.9-.052-.128.11-.259.093-.388.994.776.3-.813,1.734-.257l-.11.211a5.975,5.975,0,0,1,1.738-.255c.179.482-.633.193-.729.579.857.011,1.813-.819,2.515-.314-.382.115-.9.094-1.283.209a2.174,2.174,0,0,0,1.483.57l-.058-.014,1.4.315-.344-.168c1.256-1.182,2.2-.128,3.768-.868-1.517.7-.3.431-.5.96.344.165.874.356.692.5.747-.4,1.074.39,2.133-.2.014.174.723.05.5.475.9-.1-.158-.31-.052-.523,1.459-.526,3.073.856,5.165.136,1.741-.255,2.154-.822,3.771-1.04.478.3-.544.606-.544.606a3.958,3.958,0,0,0,2.3.113c-.189.142-.045.276.165.48.65-.016.544-.606,1.345-.314a3.018,3.018,0,0,1-.767.661c.788-.124,1.6-.411,2.409-.531.155.31-.557.434-.871.617.908-.1,2.336-.168,2.7-.631l-.537-.195c.327-.009.089.415-.165.491-.826.338-1.06-.213-1.07-.388l.578-.085c-.389-1.035-2.278.062-3.393-.048l.6-.712-1.266.556c-.21-.2-.306-.618.272-.7-.747-.4-.764.229-1.387-.207-.065-.066-.024-.1.052-.126l-.829.182c.182-.147-.041-.524.427-.4-1.345-.487-2.385.448-2.822-.133l.127-.039c-2.013.159-.286.53-1.868,1.1l-.767-1.375-.286.53c-.2-.028-.6-.087-.485-.3-.815.335.089.239-.406.569-.895-.535-2.732.108-2.811-.76-.416.393.884.358-.206.6-.148-.937-1.232.1-2.058-.36.351-.464,1.156-.174.33-.64-.668.783-1.71-.253-2.488-.133-.138.64-1.683.193-2.98.351.114-.213-2.326-.459-3.468-.744l.052-.106c-.323.641-1.517.457-2.422.562.089-.386.272-.537.774-.689l-.833-.027a1.692,1.692,0,0,1-1.049.36l.279-.478c-1.115-.009-2.312.5-3.7.131-.141.45.96,1.3-.585,1.55-.024-.246-.021-.668.385-.755-.134.027-.489.188-.733.076l.657-.393c-.623-.2-.385.333-.9.278.055-.349-.351-.26-.241-.535.138-.03.434.158.65.028a2.613,2.613,0,0,1-1.456-.583c.028.2-.062.469-.5.5-1.111-.011-.323-.432-.946-.632-.3.234-.977-.039-1.063.482-.323-.012-.351-.259-.458-.4-.6.213-2.687-.019-2.113.556l.145.041-.1.021h0c-1.944.459-3.868-.42-5.76-.257l.024-.174a17.022,17.022,0,0,0-3.327.388c-.33-.011-.74-.344-.578-.546a3.76,3.76,0,0,1-2.178-.03c.888-.278-.268-.28.9-.2-1.091-.186-1.311-.473-2.55-.034.451-.434-.774-.59-1.314-.473l.743.345a8.591,8.591,0,0,1-1.634-.066l.344-.579c-2.2-.783-4.2,1.075-5.812-.145-.64.4,1.2.314.623.785-1.036-.1-2.044-.966-2.371-.974-1.4-.354-1.411.834-2.887.583.175.213.306.778-.826.953-1.036-.1-1.208-.905-.533-1.061.251-.014.365.057.348.126.344-.069.795-.151.4-.386l-.155.207c-.5-.225-1.937-.23-1.573-.569-.805.186-.365.338.21.459-1.314-.33-2.089-.05-3.451-.28.21.119.392.37.172.363-2-.3-.919.381-2.3.446-.754-.335.337-.758-1.06-.517-.826-.232-.138-.56.21-.725-1.287.379-2.329-.312-3.045-.4l.674-.158a3.849,3.849,0,0,1-1.056.076l.348.429c-.382-.081-.712-.09-.692-.264-.42.268.258.705-.561,1.067-.506-.225-1.593.2-1.734-.363,1.617.221-.145-.563,1.242-.627A2.3,2.3,0,0,1,218.3.675c-.055-.064.062-.115.172-.145-1.531-.528-.76.617-2.374.572.224-.31-.337-.6-.606-.54.65.018.279.53-.334.758-1.018-.264-1.135.161-1.676.122l.612.126c-.227.312-.743.26-1.469.345-.048-.246.664-.156.413-.269-.833.537-1.779-.608-2.918-.257-.506-.223-.017-.592-.465-.744-1.277.381-1.339-.457-2.674-.129.361.425.43.322-.516.728l2.182-.278-1.421.6c.654.011,1.39-.255,1.779-.174-.678.333-.606.229-.313.585-.86-.648-1.786.354-2.8-.083l.079-1.047c-1.535-.477-2.787.517-4.793.239l.64.186c-.286.415-1.249.05-1.906.213.072-.349-.33-.48-.6-.7.024.26-1.48-.034-1.686.663l-.884-.468c-1.624-.2-1.889.983-3.451.852.482-.377-.224-.629.833-.893-.523-.009-.991-.076-1,.167-.3-.221-1.462.461-1.937.124-.224.152-.3.517-.888.485-.062-.073,0-.174,0-.174,0,.174-.922.229-.416.62-1.59-1.1-4.5.044-5.887-.9-1.142.11-2.519.211-3.554.229.069-.1.007-.174.2-.136-1.425-.337-.884,1-2.505.641-.829-.563.864-.31.348-.523-.22-1.15-1.965.165-3.056-.5L175.69.9c-.84-.388-2.044.443-3.41.367,0,0,.065-.1.007-.174a11.435,11.435,0,0,1-4.009.96c.4-.452.6-.241.341-.7-.588.067.179.733-.994.866-.385-.244-1.235-.457-1.356-.944l1.111-.03c-.578-.631-1.438.027-2.023-.081l.069-.276c-1.7.1-1.71.794-3.537.751l.193.207c-.984.693-.846-.384-1.831.133l-.317-.7a27.52,27.52,0,0,1-3.468.82A12.019,12.019,0,0,1,159.342,1a5.683,5.683,0,0,0-2.55.407c.262-.069.588-.241.853-.135a5.305,5.305,0,0,1-3.135.82c.186-1.366-3.4-.319-4.387-1.348-2.281.537-4.58-.145-7.264-.025,1.008,1.04-.785.043-.561,1.121-.619.08-.86.066-.919,0l-1.93-.618c-.468-.308.581-.248.509-.491-1.373-.062-.6-.45-1.524-.725.206.384-.444.562-1.235.427l1.132.482c-1.879.606-1.714-.884-3.606-.283l.588-.351c-.977.216-3.658.048-4.566.932-.182-.122-.437-.415-.007-.5-2.378-.106-5.192,1.026-7.071.54l.155-.269c-.434.087-.726.516-1.3.264.021-.11.155-.268-.048-.278a3.423,3.423,0,0,1-1.731.354l.475-.312c-2.34-.287-3.475.817-5.388,1.047-.069-.78-1.91-.985-2.828-1.088l.021-.112c-2.7-.027-4.5.762-6.947,1.132-1.641-.819-5.265-.175-7.8-.567.4.128.014.609-.416.7-.6-.138-1.535.6-1.535-.12l.206.007c-.53-.684-1.7-.455-2.639-.441l-.024.939c-2.632-1.27-6.321.728-7.832-.439-.554.253-1.283.276-1.831.531l-.048-.5a25.176,25.176,0,0,0-4.473.126l.354-.376c-1.142.019-1.2,1.508-2.243,1.584L77.355,2.7c-1.979.1-4.105-.461-5.942.3a.361.361,0,0,1,.348-.374c-.936.025-3.706-.338-3.179.67-.145-.666-2.058.028-3.069.37l.072-.5a3.071,3.071,0,0,1-2.006,1.086c-.31-.048-.337-.379.083-.275-1.043-.2-.681.508-1.937.312l.385-.338c-1.029.019-.915.182-1.4.579A2.445,2.445,0,0,1,58.5,4.084a1.1,1.1,0,0,1-1.2.576c-.114-.163.083-.278.182-.337-1.779-.239-2.422.712-3.7.294a.446.446,0,0,0-.262-.282,21.346,21.346,0,0,1,2.367-.055c-.1-.452-1.211-.471-.468-1.144-.812.39-2.161,1.215-3.276,1.061a.659.659,0,0,1-.175-.149l.1-.057a1.185,1.185,0,0,0-.661.11,4.538,4.538,0,0,0-.919-.087c-.21-.367-1.3-.131-1.858-.12.158.493-.578.454.186.824-.1-.03.089-.064.451-.1a.851.851,0,0,0,.22-.064l-.028.044,1.352-.108a1.382,1.382,0,0,1-1.445.271,8.43,8.43,0,0,1-.585.84c-.9-.65-2.429-.925-2.729-1.338-1.6.384-3.892.436-4.714,1.431-.447.151-.612-.23-.822-.365.251-.112.578-.119.7-.26-.891.3-2.787.273-2.853.935-1.266-.214.523-.64-1.091-.427l.169-.213c-3.5-.834-4.814,2-8.737.937.268.064.4.092.485.2-4.243-.289-8.227,1.16-12.515.576-1.2-.094-1.194.33-1.789.7l-.416-.508-.994.707c-1.535.581-3.345-1.035-5.2,0l.4.33c-.791,0-2.35.427-2.367.009-.055.071-.12.39-.485.234L5.7,8.263l-1.707.656C2.463,8.862,3.819,7.8,1.662,7.96.9,8.142-.31,9,.075,9.145.4,9.126.966,9.23,1.1,9.5l-.661.218c.193.822.024,1.7,1.941,2.089L3.4,11.2l.537.354-1.008.124c.719.314.96-.05,1.287-.314a1.188,1.188,0,0,0,.668.383l.908-.891c.258.3-.3.682.557.778.427-.415-.795-.659.048-.985.716.315.65.631,1.228.255.169.2.069.345-.169.462.523-.306,1.576-.252,1.745-.712.764.4,2.023-.3,2.223.471a2.877,2.877,0,0,1,1.425-.785c-.726,1.008,2.126-.126,2.175.889.5-.891,2.629-.594,3.837-1.166-.055.073-.162.218-.3.186a5.642,5.642,0,0,1,1.614.356c-.11-.694,1.025-.948,1.538-1.423,1.129.585-.327.85.155,1.463-.21-.553,1.452-.687,1-1.123.836.358.674.154,1.208.7-.124-.868.623-.195,1.063-.765,1.156.347.5.785,1.559.439.612.225-.31.6-.31.6M53.093,7.223l0,.011-.557.058.554-.069m2.285-.135c-.282,0-.63.012-.994.037-.117-.168-.069-.349.162-.353-.1.122.461.191.833.315m-5.6-3.161c.348-.09.492,0,.564.1-.169.018-.368.046-.623.094l-.031.064a.519.519,0,0,1,.089-.257" transform="translate(0.004 0)" fill="#f72"/>
    <path id="Tracé_371" data-name="Tracé 371" d="M14.42,2.611a.792.792,0,0,1-.141.044,2.227,2.227,0,0,0,.241.1l.1-.161Z" transform="translate(34.854 2.001)" fill="#f72"/>
    <path id="Tracé_372" data-name="Tracé 372" d="M75.126,1.833l-.048-.012a.231.231,0,0,1,.093.073c-.028-.025-.028-.039-.045-.06" transform="translate(183.26 1.405)" fill="#f72"/>
    <path id="Tracé_373" data-name="Tracé 373" d="M25.471,3.739l-.021-.126-.186.117Z" transform="translate(61.67 2.788)" fill="#f72"/>
    <path id="Tracé_374" data-name="Tracé 374" d="M78.708,3.021a.267.267,0,0,0,.148.135c0-.034-.069-.081-.148-.135" transform="translate(192.12 2.331)" fill="#f72"/>
    <path id="Tracé_375" data-name="Tracé 375" d="M80.289,3.222l.743.211a4.853,4.853,0,0,0-.743-.211" transform="translate(195.98 2.486)" fill="#f72"/>
    <path id="Tracé_376" data-name="Tracé 376" d="M81.5,3.56a.791.791,0,0,0,.117-.209l-.01,0Z" transform="translate(198.928 2.583)" fill="#f72"/>
    <path id="Tracé_377" data-name="Tracé 377" d="M62.325,2.7a.779.779,0,0,0-.162.019c-.389.089-.127.057.162-.019" transform="translate(151.257 2.081)" fill="#f72"/>
    <path id="Tracé_378" data-name="Tracé 378" d="M68.349,2.259a5.088,5.088,0,0,1-.661.223c.351.044.623.06.661-.223" transform="translate(165.221 1.743)" fill="#f72"/>
    <path id="Tracé_379" data-name="Tracé 379" d="M55.706,2.908l0-.009h-.138Z" transform="translate(135.648 2.237)" fill="#f72"/>
    <path id="Tracé_380" data-name="Tracé 380" d="M67.419,2.384a1.726,1.726,0,0,0,.926.027,2.659,2.659,0,0,0-.926-.027" transform="translate(164.565 1.815)" fill="#f72"/>
    <path id="Tracé_381" data-name="Tracé 381" d="M86.767,4.075l.2.03A.132.132,0,0,1,87,4.025Z" transform="translate(211.792 3.106)" fill="#f72"/>
    <path id="Tracé_382" data-name="Tracé 382" d="M86.836,4.048,87.07,4c-.1-.005-.193-.005-.234.048" transform="translate(211.96 3.085)" fill="#f72"/>
    <path id="Tracé_383" data-name="Tracé 383" d="M87.4,3.94l-.5.1a.612.612,0,0,0,.5-.1" transform="translate(212.126 3.04)" fill="#f72"/>
    <path id="Tracé_384" data-name="Tracé 384" d="M85.234,3.784l-.1.177a.334.334,0,0,0,.1-.177" transform="translate(207.816 2.92)" fill="#f72"/>
    <path id="Tracé_385" data-name="Tracé 385" d="M84.673,3.8c.4.058.943.429,1.524.342L86.273,4c-.31.257-1.163-.487-1.6-.2" transform="translate(206.68 2.88)" fill="#f72"/>
    <path id="Tracé_386" data-name="Tracé 386" d="M82.733,2.552l1.394.207c-.217-.2-.5-.475.155-.493-1.693-.652.3.446-1.548.285" transform="translate(201.945 1.588)" fill="#f72"/>
    <path id="Tracé_387" data-name="Tracé 387" d="M81.719,2.237c.778-.055.034-.278.093-.386-.513.154-.637.193-.093.386" transform="translate(198.606 1.428)" fill="#f72"/>
    <path id="Tracé_388" data-name="Tracé 388" d="M72.322,1.621l.127-.45c-.6.046-.024.175-.127.45" transform="translate(176.171 0.904)" fill="#f72"/>
    <path id="Tracé_389" data-name="Tracé 389" d="M70.378,2.682l.54.3.317-.406Z" transform="translate(171.788 1.988)" fill="#f72"/>
    <path id="Tracé_390" data-name="Tracé 390" d="M69.949.776,70.214.72l-1,.142Z" transform="translate(168.943 0.555)" fill="#f72"/>
    <path id="Tracé_391" data-name="Tracé 391" d="M53.836.421,54,.981c.4-.1.5-.725-.169-.56" transform="translate(131.41 0.304)" fill="#f72"/>
    <path id="Tracé_392" data-name="Tracé 392" d="M48.035.884A1.128,1.128,0,0,0,46.727.705a7.833,7.833,0,0,0,1.308.179" transform="translate(114.057 0.437)" fill="#f72"/>
    <path id="Tracé_393" data-name="Tracé 393" d="M27.21,1.13l.44-.2-.857.188Z" transform="translate(65.401 0.715)" fill="#f72"/>
    <path id="Tracé_394" data-name="Tracé 394" d="M103.972,6.044c.186-.144.162-.494-.292-.443l-.42.57Z" transform="translate(252.05 4.318)" fill="#f72"/>
    <path id="Tracé_395" data-name="Tracé 395" d="M103.416,5.169c-.568.26-1.252.733-1.012,1.284.609-.54.692-.3,1.363-.946.454-.05.736.22.623.432.182-.144.661.156.963-.2a1.8,1.8,0,0,0-2.04-.182c-.138-.136.048-.282.1-.388" transform="translate(249.84 3.989)" fill="#f72"/>
    <path id="Tracé_396" data-name="Tracé 396" d="M90.174,3.725l.268.078a.692.692,0,0,0-.268-.078" transform="translate(220.108 2.874)" fill="#f72"/>
    <path id="Tracé_397" data-name="Tracé 397" d="M82.407,3.209c.206-.011.3-.067.31-.12-.193.035-.351.069-.31.12" transform="translate(201.132 2.384)" fill="#f72"/>
    <path id="Tracé_398" data-name="Tracé 398" d="M81.085,2.758l.268.044c-.1-.055-.2-.087-.268-.044" transform="translate(197.922 2.113)" fill="#f72"/>
    <path id="Tracé_399" data-name="Tracé 399" d="M90.673,3.815l-.7-.206c-.072.19.351.152.7.206" transform="translate(219.609 2.785)" fill="#f72"/>
    <path id="Tracé_400" data-name="Tracé 400" d="M100.868,5.884a1.254,1.254,0,0,0,.413-.138c-.127.021-.248.037-.375.048Z" transform="translate(246.211 4.434)" fill="#f72"/>
    <path id="Tracé_401" data-name="Tracé 401" d="M93.621,3.75l.217.005a1.713,1.713,0,0,0,.213-.232Z" transform="translate(228.522 2.718)" fill="#f72"/>
    <path id="Tracé_402" data-name="Tracé 402" d="M96.575,3.81c-.2-.03-.344.464-.454.677a.73.73,0,0,1,.5-.321.726.726,0,0,0-.041-.356" transform="translate(234.624 2.939)" fill="#f72"/>
    <path id="Tracé_403" data-name="Tracé 403" d="M100.379,4.666l.265-.058-.265.058" transform="translate(245.018 3.556)" fill="#f72"/>
    <path id="Tracé_404" data-name="Tracé 404" d="M91.785,3.563a.364.364,0,0,0-.062-.181.247.247,0,0,0,.062.181" transform="translate(223.886 2.61)" fill="#f72"/>
    <path id="Tracé_405" data-name="Tracé 405" d="M18.567,8.7l-.031-.087c-.034.053-.038.09.031.087" transform="translate(45.187 6.648)" fill="#f72"/>
    <path id="Tracé_406" data-name="Tracé 406" d="M15.285,8.005l.131-.041-.083-.276Z" transform="translate(37.309 5.932)" fill="#f72"/>
    <path id="Tracé_407" data-name="Tracé 407" d="M78.659,2.323l.038.011c.224-.053.1-.046-.038-.011" transform="translate(192.001 1.771)" fill="#f72"/>
    <path id="Tracé_408" data-name="Tracé 408" d="M56.6,2.563c.9.429-1.38.6-.038,1.067-.134-.191,1.142-.8.038-1.067" transform="translate(137.014 1.978)" fill="#f72"/>
    <path id="Tracé_409" data-name="Tracé 409" d="M101.068,5.786c-.124,0-.248,0-.372-.011a1.229,1.229,0,0,0,.372.011" transform="translate(245.791 4.456)" fill="#f72"/>
    <path id="Tracé_410" data-name="Tracé 410" d="M56.258,3.166v.005l.138.044c-.055-.021-.089-.032-.138-.05" transform="translate(137.322 2.443)" fill="#f72"/>
    <path id="Tracé_411" data-name="Tracé 411" d="M73.036,2.361a.624.624,0,0,0,.193.22c-.007-.051-.048-.115-.193-.22" transform="translate(178.275 1.822)" fill="#f72"/>
    <path id="Tracé_412" data-name="Tracé 412" d="M77.461,2.865l-.351-.073a1.323,1.323,0,0,0,.351.073" transform="translate(188.22 2.154)" fill="#f72"/>
    <path id="Tracé_413" data-name="Tracé 413" d="M71.231,2.767a.848.848,0,0,0-.523-.043.338.338,0,0,0,.079.06.447.447,0,0,1,.444-.018" transform="translate(172.593 2.082)" fill="#f72"/>
    <path id="Tracé_414" data-name="Tracé 414" d="M68.6,2.718a1.252,1.252,0,0,0,.145.1l.244-.025Z" transform="translate(167.448 2.097)" fill="#f72"/>
    <path id="Tracé_415" data-name="Tracé 415" d="M25.717,7.652a1.849,1.849,0,0,1-.471-.416c.21.342-.874.553.471.416" transform="translate(61.097 5.584)" fill="#f72"/>
    <path id="Tracé_416" data-name="Tracé 416" d="M101.069,5.666a.349.349,0,0,1-.265.2l.262-.016c.034-.073.052-.142,0-.188" transform="translate(246.055 4.372)" fill="#f72"/>
    <path id="Tracé_417" data-name="Tracé 417" d="M71.623,4.989l-1.228-.08a9.38,9.38,0,0,0,1.228.08" transform="translate(171.829 3.788)" fill="#f72"/>
    <path id="Tracé_418" data-name="Tracé 418" d="M41.433,5.71l-.272.071a.357.357,0,0,0,.272-.071" transform="translate(100.471 4.406)" fill="#f72"/>
    <path id="Tracé_419" data-name="Tracé 419" d="M69.927,5.092a1.863,1.863,0,0,0-.688-.347.507.507,0,0,0-.145.128Z" transform="translate(168.653 3.661)" fill="#f72"/>
    <path id="Tracé_420" data-name="Tracé 420" d="M25.091,7.233l0,.005Z" transform="translate(61.245 5.581)" fill="#f72"/>
    <path id="Tracé_421" data-name="Tracé 421" d="M41.6,12.943c1.156-.074.354-.675.489-1.065,1.328-.289.778.427,1.345.723.809-.236,1.3-.881,1.951-.905.076.1.213.133.1.278.767-.585,2.694-.232,3.579-.96a.474.474,0,0,1,.182.151,1.786,1.786,0,0,1-.406-.877c.516-.051.857-.48,1.166-.069-.323.009-.3.181-.416.324l.5-.221c.657.578-.688.26-.564.712,1.008-.271,2.116-.857,2.976-.741.327.585-1.851.33-.626.787l-1.321-.144c1.218.875-.781-.014.375.932,1.7.062,1.769-.429,3.468-.365.286-.356-.251-.482.034-.84,2.2-.753,2.233,1.377,3.757.466.348-.429.334-1.2,1.662-.879l-.251.7c1.621-.041.678-1.033,2.471-.691-.234.285-1.208.308-.946.372,1.218.461.678-.434,1.517-.491l.317.586c1.683-.214,3.472-.741,5.344-.966-.065.184-.344.392.141.547a28.581,28.581,0,0,1,7.5,0l.774-.569c.206-.005.427.213.227.326.939.144-.021-.331.368-.56.5-.066.736.259.444.432,1.493-.539,4.336-1.2,6.121-.719l-.3.17c1.345.147,1.266-1.132,2.57-.709l-.213.1c2.873.087,5.922-.54,8.224.138.279-.767,2.859.195,2.863-.854a13.979,13.979,0,0,0,3.61.895c.616.023.8-.686,1.538-.824l.107.544.932-.611.647.631.685-.167c-.286-.021-.637-.221-.619-.381a3.651,3.651,0,0,1,2.822.555l2.539-.562c-.024.221-.451.314-.778.466,1.314-.609.337.563,1.542.005-.189-.117.045-.328.058-.439a6.891,6.891,0,0,0,3.183.071l-.151.383c1.948.021,4.053-.337,6.228-.415-.8-.145-.709-.8-.076-.889l.327.565c.368-.372-.7-.191.1-.659.822.035.63.634.186.838l.963-.23c.079.17-.141.268-.172.489.361-.37,1.775.528,2.285-.108l.076.168c2.175-.057,3.138-.282,4.907-.361-.024-.5.681-.407,1.166-.826a27.979,27.979,0,0,0,4.373.384c1.077-.278.279-.429.743-.739.127.45,1.693.363.912.712a30.743,30.743,0,0,0,4.745-.6c-.275-.179-.575-.25-.44-.409.427-.087,1,.163.963.381l-.11.051c2.615-.772,6.29,1.185,8.341.2l-.117.048,2.175-.531c1.022.06-.585.353.189.618,2.329-.8,3.771.044,5.7-.494,1.6,1.309,5.388-.191,7.487.627l-.134-.314c.513-.319.65.168,1.046.234-.069-.243-.592-.273-.272-.45,4.473-.484,9.3.377,13.9.615,1.686.073.912-1.637,3.056-.9l-.588.588c3.386-.725,6.951-.021,10.271-.64-.2.136-.2.312-.526.312.709.42,2.6,0,2.608-.344.52.035.124.312.444.487.705.241,1.769-.546,2.144-.12.065.069-.2.136-.327.168.461-.2,2.14.064,1.7-.431,1.253.241,2.391-.206,3.389.089.654-.546,2.137.275,2.35-.5-.1.8,2.182.656,2.98.283-.268.241.685.253.368.588.9-.007,1.731-.152,1.579-.565,1.645.967,3.355-.755,4.267.478,2.687-.418,5.175-.7,7.594-.875-.114.8-2.667.067-2.591.907,2.3-.319,3.64-1,5.9-.794.585.113-.348.344-.551.48,2.3-.306,4.411.142,6.465-.264-.01.074-.234.152-.444.211.4-.019.926.131.9-.232l-.4.092c-.616-.537,1.645-1.074,1.734-1.352-.736,1.029,2,.3.846,1.593.265-.064.606-.23.557-.475.389.078.506.221.093.491,1.445-.174.957-.569,2.257-.539-.014.175-.282.239-.427.445a3.722,3.722,0,0,1,2.45-.5c-.072.1.048.244-.282.237,1.889-.021,3.276-.859,5.327-.494-.661.755.688.264.754.927l1.125-.179-.423-.328c.974.027,1.872-.439,2.694-.209l-.747.26,1.837-.1-1.015-.268c1.012-.324-.045-.838,1.242-.632-.268.062.977.025,1.455.422l0,0a2.573,2.573,0,0,1,1.724-.239c.169.214-.21.728-.1.872.523-.546,2.3-.115,2.949-.694a.511.511,0,0,0-.189.553l.437-.441c.44.152.5.227.4.5,1.352.122-.361-.85,1.222-.443-.131.034-.076.1-.344.163,1.6.236,3.155-.195,4.621.071.379.677-1.314.124-.864.7,2.154-.058,4.518-.668,6.579-.452l-.379-.083c.382-.93,1.5.507,2.594.1-.265.062-.392.512-.313.409a23.832,23.832,0,0,0,5.12-.379l-.3.234a29.078,29.078,0,0,0,3.087.324c.3-.234.809-.179.537-.539,2.622,1.453,5.416-.581,7.749.634-.3-.007-.733.19-.5.2l2.14-.159c-.114-.415-.244-.255-.647-.586a2.525,2.525,0,0,1,1.442-.39c-.984.244-.076.652.3.9-.055-.129.107-.26.086-.39,1,.772.3-.813,1.734-.262l-.11.213a5.9,5.9,0,0,1,1.734-.262c.186.484-.63.195-.723.583.857.009,1.807-.824,2.512-.321-.379.115-.9.1-1.28.213a2.206,2.206,0,0,0,1.49.567l-.062-.016,1.407.312-.348-.167c1.246-1.185,2.2-.133,3.757-.879-1.511.7-.3.432-.482.962.344.163.874.354.7.5.74-.4,1.077.386,2.13-.2.017.174.723.048.506.473.9-.1-.165-.308-.055-.521,1.449-.531,3.08.847,5.161.122,1.741-.262,2.147-.829,3.761-1.052.485.3-.537.609-.537.609a3.959,3.959,0,0,0,2.3.1c-.186.144-.041.278.172.482.65-.018.537-.609,1.342-.319a3.049,3.049,0,0,1-.76.664c.785-.128,1.59-.416,2.405-.539.155.308-.554.434-.864.618.9-.1,2.333-.175,2.691-.638l-.537-.193c.323-.011.093.415-.162.491-.819.34-1.06-.211-1.074-.384l.578-.087c-.4-1.035-2.278.067-3.393-.039l.6-.714-1.263.56c-.213-.2-.313-.618.265-.705-.75-.4-.76.232-1.39-.2-.065-.066-.024-.1.052-.126l-.826.184c.179-.147-.048-.523.42-.4-1.349-.484-2.378.455-2.822-.124L305.2,6.2c-2.01.167-.275.531-1.855,1.1l-.781-1.371-.279.531c-.2-.028-.6-.085-.489-.3-.815.337.093.239-.4.569-.9-.531-2.729.117-2.818-.751-.413.4.888.356-.2.6-.158-.937-1.232.108-2.061-.354.348-.466,1.156-.177.323-.641-.657.785-1.714-.248-2.491-.126-.127.64-1.679.2-2.973.36.11-.213-2.333-.452-3.479-.733l.052-.106c-.317.641-1.514.459-2.419.569.089-.388.268-.54.771-.694l-.833-.023a1.69,1.69,0,0,1-1.049.363l.275-.48c-1.115-.005-2.309.507-3.692.142-.138.45.974,1.293-.571,1.552-.024-.246-.028-.666.378-.755-.134.027-.485.19-.733.078l.654-.4c-.626-.2-.382.335-.895.28.052-.347-.354-.259-.244-.535.134-.028.434.158.65.027a2.625,2.625,0,0,1-1.462-.578c.028.2-.058.469-.492.5-1.111-.007-.327-.432-.953-.631-.3.236-.977-.037-1.056.485-.323-.012-.354-.257-.465-.4-.6.213-2.687-.012-2.106.562l.145.041-.1.019h0c-1.937.466-3.871-.409-5.76-.239l.021-.175a16.89,16.89,0,0,0-3.324.4c-.327-.011-.743-.342-.582-.546a3.75,3.75,0,0,1-2.182-.025c.884-.28-.268-.278.9-.2-1.091-.182-1.314-.469-2.546-.027.447-.436-.781-.588-1.321-.469l.747.344a8.561,8.561,0,0,1-1.631-.06l.337-.581c-2.206-.776-4.191,1.088-5.815-.129-.637.4,1.208.31.63.783-1.036-.1-2.054-.96-2.381-.967-1.4-.351-1.4.838-2.877.59.175.213.31.778-.819.957-1.036-.1-1.218-.9-.547-1.061.255-.012.368.057.354.128.341-.071.791-.154.4-.388L247,3.642c-.5-.223-1.941-.225-1.579-.563-.8.186-.361.338.213.457-1.314-.326-2.089-.044-3.455-.271.213.119.4.37.179.363-2-.294-.915.384-2.292.454-.757-.333.33-.76-1.067-.514-.829-.232-.145-.562.2-.726-1.283.384-2.333-.306-3.049-.392l.674-.159a3.933,3.933,0,0,1-1.056.08l.351.427c-.382-.08-.712-.089-.7-.262-.416.269.265.7-.551,1.068-.506-.223-1.59.2-1.738-.358,1.621.216-.148-.563,1.235-.631a2.323,2.323,0,0,1-.981-.027c-.055-.064.062-.115.172-.145-1.535-.524-.754.62-2.367.579.22-.31-.344-.6-.612-.54.65.018.286.53-.323.762-1.025-.262-1.135.163-1.676.126l.612.124c-.224.312-.74.262-1.466.349-.052-.246.661-.158.409-.269-.826.539-1.786-.6-2.918-.25-.509-.221-.028-.59-.475-.742-1.27.384-1.342-.454-2.674-.122.365.425.434.322-.509.73l2.178-.285-1.414.606c.654.009,1.39-.26,1.779-.179-.678.335-.606.23-.306.586-.867-.647-1.786.358-2.8-.076l.069-1.047c-1.542-.473-2.784.524-4.793.252l.643.186c-.282.413-1.246.051-1.9.216.069-.349-.337-.478-.609-.7.028.259-1.48-.032-1.679.666l-.891-.464c-1.624-.2-1.879.987-3.441.861.478-.377-.231-.629.826-.9-.523-.005-.994-.073-1,.17-.3-.22-1.459.464-1.934.129-.224.154-.3.519-.888.487-.062-.071.007-.172.007-.172-.007.172-.922.23-.413.62-1.6-1.1-4.5.057-5.9-.886-1.139.112-2.515.218-3.551.237.065-.1,0-.174.2-.136-1.431-.333-.874,1-2.5.647-.833-.56.864-.31.344-.521-.234-1.15-1.961.17-3.062-.494l.265-.071c-.843-.384-2.037.45-3.4.377,0,0,.062-.1,0-.174a11.337,11.337,0,0,1-4,.971c.4-.454.592-.243.33-.7-.585.069.189.733-.981.87-.389-.244-1.242-.454-1.366-.941l1.108-.034c-.585-.629-1.438.03-2.023-.076l.065-.276c-1.7.1-1.7.8-3.53.76l.2.207c-.974.7-.85-.381-1.827.138l-.327-.7a26.647,26.647,0,0,1-3.458.831,11.837,11.837,0,0,1,2.866-1.111c-.654,0-2.219.067-2.546.415.262-.069.585-.243.85-.138a5.257,5.257,0,0,1-3.124.829c.172-1.366-3.4-.308-4.4-1.336-2.278.544-4.583-.131-7.264,0,1.018,1.036-.785.044-.551,1.123-.619.08-.857.067-.919,0l-1.937-.613c-.468-.308.578-.25.506-.491-1.376-.06-.606-.45-1.535-.721.213.384-.437.563-1.228.429l1.136.48c-1.872.609-1.72-.879-3.61-.275l.585-.351c-.974.218-3.654.058-4.552.944-.186-.122-.444-.413-.014-.5-2.381-.1-5.182,1.04-7.068.56l.155-.269c-.434.089-.719.517-1.3.268.017-.11.151-.269-.055-.278a3.364,3.364,0,0,1-1.724.358l.468-.312c-2.34-.28-3.465.826-5.375,1.063-.079-.78-1.92-.981-2.842-1.081l.021-.112c-2.7-.019-4.49.774-6.933,1.152-1.652-.815-5.268-.161-7.811-.544.4.126.021.608-.406.7-.606-.136-1.531.6-1.542-.115l.21.005c-.537-.684-1.707-.45-2.643-.434l-.017.939c-2.643-1.261-6.311.746-7.835-.418-.551.257-1.28.282-1.824.537l-.052-.5a25.278,25.278,0,0,0-4.473.14l.351-.377c-1.146.023-1.187,1.511-2.226,1.591l-.447-.73c-1.979.106-4.108-.45-5.939.321a.358.358,0,0,1,.344-.374c-.936.025-3.709-.33-3.173.677-.151-.664-2.058.034-3.066.379l.069-.5a3.056,3.056,0,0,1-2,1.09c-.31-.046-.341-.377.083-.275-1.046-.2-.678.51-1.937.319l.382-.34c-1.029.021-.912.184-1.4.583a2.453,2.453,0,0,1-2.209-.446,1.1,1.1,0,0,1-1.191.579c-.12-.163.079-.278.175-.337-1.782-.234-2.412.719-3.7.3a.442.442,0,0,0-.265-.282,21.056,21.056,0,0,1,2.367-.062c-.1-.452-1.215-.468-.482-1.143-.805.393-2.147,1.221-3.262,1.07a.693.693,0,0,1-.179-.149l.1-.057a1.191,1.191,0,0,0-.661.113,4.408,4.408,0,0,0-.919-.085c-.213-.367-1.3-.129-1.858-.115.162.493-.571.454.2.824-.1-.03.089-.066.447-.106a.847.847,0,0,0,.22-.066l-.028.046,1.352-.113a1.379,1.379,0,0,1-1.445.275,8.553,8.553,0,0,1-.575.843C63.03,7.338,61.5,7.068,61.2,6.654c-1.6.39-3.888.448-4.7,1.446-.444.152-.612-.229-.826-.361.251-.112.578-.12.7-.264-.888.3-2.787.282-2.842.944-1.27-.211.513-.641-1.1-.423l.169-.214c-3.513-.824-4.793,2.016-8.726.964.268.062.4.09.485.195-4.246-.278-8.213,1.182-12.508.609-1.2-.089-1.191.333-1.782.705l-.42-.507-.988.709c-1.528.586-3.358-1.026-5.2.011l.4.33c-.788,0-2.343.434-2.364.016-.055.071-.117.39-.482.234l-.124-.273-1.7.659c-1.531-.051-.186-1.113-2.34-.951-.754.184-1.961,1.042-1.572,1.191.327-.021.888.081,1.025.354l-.661.22c.2.822.045,1.7,1.961,2.083l1.012-.618.544.353-1.008.128c.723.312.96-.051,1.283-.317a1.194,1.194,0,0,0,.674.381l.9-.895c.262.3-.3.684.564.778.423-.416-.8-.657.038-.987.719.314.657.631,1.228.252.172.2.076.347-.162.464.52-.306,1.576-.257,1.738-.718.771.4,2.02-.31,2.226.464a2.835,2.835,0,0,1,1.418-.787c-.716,1.01,2.123-.133,2.182.882.489-.893,2.625-.6,3.826-1.176-.055.073-.162.22-.292.186a5.707,5.707,0,0,1,1.617.353c-.12-.694,1.015-.951,1.524-1.428,1.132.583-.32.852.169,1.463-.217-.553,1.445-.691.991-1.127.836.356.674.152,1.215.693-.134-.866.619-.195,1.053-.767,1.16.344.506.783,1.562.436.616.221-.3.6-.3.6M68.264,9.6l0,.009-.554.062c.114-.016.272-.035.551-.071m2.285-.14c-.282,0-.63.012-.994.037-.12-.167-.072-.347.158-.351-.1.12.461.188.836.314M64.916,6.314c.348-.09.492,0,.568.1-.172.018-.368.046-.623.1l-.031.064a.516.516,0,0,1,.086-.257" transform="translate(37.09 1.65)" fill="#f72"/>
    <path id="Tracé_422" data-name="Tracé 422" d="M29.6,4.891a.611.611,0,0,1-.141.044,2.6,2.6,0,0,0,.244.1l.089-.163Z" transform="translate(71.905 3.759)" fill="#f72"/>
    <path id="Tracé_423" data-name="Tracé 423" d="M90.3,3.781l-.048-.012a.27.27,0,0,1,.1.073c-.031-.025-.031-.039-.048-.06" transform="translate(220.298 2.908)" fill="#f72"/>
    <path id="Tracé_424" data-name="Tracé 424" d="M40.656,5.959l-.024-.126-.182.119Z" transform="translate(98.735 4.501)" fill="#f72"/>
    <path id="Tracé_425" data-name="Tracé 425" d="M93.889,4.95a.267.267,0,0,0,.148.135c0-.034-.069-.081-.148-.135" transform="translate(229.176 3.82)" fill="#f72"/>
    <path id="Tracé_426" data-name="Tracé 426" d="M95.471,5.142l.747.209a4.94,4.94,0,0,0-.747-.209" transform="translate(233.038 3.968)" fill="#f72"/>
    <path id="Tracé_427" data-name="Tracé 427" d="M96.68,5.473a.788.788,0,0,0,.114-.209l-.007,0Z" transform="translate(235.989 4.059)" fill="#f72"/>
    <path id="Tracé_428" data-name="Tracé 428" d="M77.5,4.716a.779.779,0,0,0-.162.019c-.385.09-.127.057.162-.019" transform="translate(188.309 3.639)" fill="#f72"/>
    <path id="Tracé_429" data-name="Tracé 429" d="M83.522,4.247a4.727,4.727,0,0,1-.657.225c.351.043.626.058.657-.225" transform="translate(202.267 3.277)" fill="#f72"/>
    <path id="Tracé_430" data-name="Tracé 430" d="M70.887,4.963l0-.009h-.138Z" transform="translate(172.701 3.823)" fill="#f72"/>
    <path id="Tracé_431" data-name="Tracé 431" d="M82.6,4.375a1.742,1.742,0,0,0,.926.025,2.617,2.617,0,0,0-.926-.025" transform="translate(201.611 3.35)" fill="#f72"/>
    <path id="Tracé_432" data-name="Tracé 432" d="M101.953,5.96l.2.03a.109.109,0,0,1,.038-.08Z" transform="translate(248.86 4.56)" fill="#f72"/>
    <path id="Tracé_433" data-name="Tracé 433" d="M102.021,5.932l.234-.05c-.1,0-.193,0-.234.05" transform="translate(249.026 4.538)" fill="#f72"/>
    <path id="Tracé_434" data-name="Tracé 434" d="M102.585,5.823l-.5.1a.6.6,0,0,0,.5-.1" transform="translate(249.192 4.493)" fill="#f72"/>
    <path id="Tracé_435" data-name="Tracé 435" d="M100.416,5.677l-.093.177a.332.332,0,0,0,.093-.177" transform="translate(244.881 4.381)" fill="#f72"/>
    <path id="Tracé_436" data-name="Tracé 436" d="M99.857,5.7c.4.058.946.427,1.528.337l.076-.14c-.31.255-1.17-.484-1.6-.2" transform="translate(243.744 4.343)" fill="#f72"/>
    <path id="Tracé_437" data-name="Tracé 437" d="M97.91,4.46l1.4.2c-.217-.2-.506-.475.148-.493-1.7-.648.3.445-1.545.289" transform="translate(238.991 3.059)" fill="#f72"/>
    <path id="Tracé_438" data-name="Tracé 438" d="M96.894,4.15c.774-.057.031-.278.089-.386-.509.156-.633.195-.089.386" transform="translate(235.647 2.904)" fill="#f72"/>
    <path id="Tracé_439" data-name="Tracé 439" d="M87.5,3.585l.124-.45c-.6.048-.024.175-.124.45" transform="translate(213.202 2.419)" fill="#f72"/>
    <path id="Tracé_440" data-name="Tracé 440" d="M85.557,4.658l.544.3.313-.407Z" transform="translate(208.838 3.51)" fill="#f72"/>
    <path id="Tracé_441" data-name="Tracé 441" d="M85.117,2.756l.262-.057-1,.144Z" transform="translate(205.968 2.083)" fill="#f72"/>
    <path id="Tracé_442" data-name="Tracé 442" d="M69,2.485l.175.558c.4-.1.485-.725-.175-.558" transform="translate(168.429 1.896)" fill="#f72"/>
    <path id="Tracé_443" data-name="Tracé 443" d="M63.206,2.984a1.137,1.137,0,0,0-1.311-.175,7.685,7.685,0,0,0,1.311.175" transform="translate(151.081 2.06)" fill="#f72"/>
    <path id="Tracé_444" data-name="Tracé 444" d="M42.38,3.341l.437-.2-.853.188Z" transform="translate(102.431 2.421)" fill="#f72"/>
  </g>
</svg>
