<svg xmlns="http://www.w3.org/2000/svg" xmlns:xlink="http://www.w3.org/1999/xlink" width="260" height="63" viewBox="0 0 260 63">
  <defs>
    <clipPath id="clip-path">
      <rect id="Rectangle_4" data-name="Rectangle 4" width="260" height="63" transform="translate(846 907)" fill="#fff"/>
    </clipPath>
  </defs>
  <g id="Groupe_de_masques_1" data-name="Groupe de masques 1" transform="translate(-846 -907)" clip-path="url(#clip-path)">
    <g id="logo_sharp" transform="translate(845.762 919.713)">
      <path id="Tracé_13" data-name="Tracé 13" d="M89.106,14.692H66.234V1.35H54.4V36.214H66.234V22.237H89.106V36.214h11.833V1.35H89.106V14.692" fill="#e6000d"/>
      <path id="Tracé_14" data-name="Tracé 14" d="M124.367,1.35l-21.2,34.864h9.053l4.368-7.148h24.46l4.209,7.148h14.374L138.423,1.35Zm-3.653,20.887,8.259-13.5,8.021,13.5h-16.28" fill="#e6000d"/>
      <path id="Tracé_15" data-name="Tracé 15" d="M206.642,16.439c2.859-3.733,2.462-9.133-2.938-12.23C198.621,1.35,189.012.238,182.976.238a124.438,124.438,0,0,0-21.125,1.509V36.135h11.833V7.068a45.419,45.419,0,0,1,10.245-.794c4.686.238,7.306.953,9.451,2.462a4.559,4.559,0,0,1-.079,7.386c-2.144,1.747-6.433,3.177-16.042,1.747l-1.35,2.224,18.186,16.122h16.122l-16.2-13.977c3.891-.556,9.768-2.065,12.627-5.8" fill="#e6000d"/>
      <path id="Tracé_16" data-name="Tracé 16" d="M28.431,13.421C21.6,12.071,15.8,11.277,15.8,9.054c0-2.462,4.686-3.1,11.357-2.383A60.617,60.617,0,0,1,44.95,11.357l4.209-6.909A78.005,78.005,0,0,0,27.081.318C17.869,0,2.383.874,1.747,10.086c-.635,8.5,11.436,10.562,19.378,12.389,7.7,1.827,15.01,2.462,15.01,5.162,0,1.906-2.541,3.336-9.292,2.859a58.7,58.7,0,0,1-22-6.274L.238,31.767A81.143,81.143,0,0,0,27,37.326c10.721.159,22.872-1.588,23.19-10.8.238-7.7-7.7-10.4-21.76-13.1" fill="#e6000d"/>
      <path id="Tracé_17" data-name="Tracé 17" d="M255.166,4.289C250.321,1.43,241.347.318,234.438.318a125.509,125.509,0,0,0-21.2,1.509V36.214h11.833V23.587a76.326,76.326,0,0,0,12.23.953c9.689-.079,16.916-2.383,20.172-5.956C262.155,13.58,260.566,7.465,255.166,4.289ZM244.842,16.2c-2.065,1.668-5,2.3-9.768,2.224a43.519,43.519,0,0,1-10.007-1.35V7.068a45.684,45.684,0,0,1,10.245-.794c4.765.159,7.465,1.032,9.53,2.462a4.591,4.591,0,0,1,0,7.465" fill="#e6000d"/>
    </g>
  </g>
</svg>
