<svg xmlns="http://www.w3.org/2000/svg" xmlns:xlink="http://www.w3.org/1999/xlink" width="152.597" height="16.453" viewBox="0 0 152.597 16.453">
  <defs>
    <clipPath id="clip-path">
      <rect id="Rectangle_48" data-name="Rectangle 48" width="152.597" height="16.453" fill="none"/>
    </clipPath>
  </defs>
  <g id="Groupe_36" data-name="Groupe 36" transform="translate(0 0)">
    <g id="Groupe_31" data-name="Groupe 31" transform="translate(0 0)" clip-path="url(#clip-path)">
      <path id="Tracé_343" data-name="Tracé 343" d="M88.379,4.182c.081-.148.071-.507-.122-.458l-.183.587Z" transform="translate(41.684 3.066)" fill="#f72"/>
      <path id="Tracé_344" data-name="Tracé 344" d="M87.628,3.288a1.589,1.589,0,0,0-.438,1.319c.262-.555.3-.306.586-.969.2-.049.315.228.265.445.078-.146.281.164.413-.2-.208-.491-.517-.544-.871-.2-.06-.139.021-.288.044-.4" transform="translate(41.256 2.71)" fill="#f72"/>
      <path id="Tracé_345" data-name="Tracé 345" d="M75,1.776l.115.08A.212.212,0,0,0,75,1.776" transform="translate(35.496 1.464)" fill="#f72"/>
      <path id="Tracé_346" data-name="Tracé 346" d="M67.232,1.221a.139.139,0,0,0,.133-.122c-.082.035-.15.069-.133.122" transform="translate(31.819 0.906)" fill="#f72"/>
      <path id="Tracé_347" data-name="Tracé 347" d="M65.916.76l.115.046c-.043-.057-.085-.089-.115-.046" transform="translate(31.197 0.61)" fill="#f72"/>
      <path id="Tracé_348" data-name="Tracé 348" d="M75.1,1.872l-.3-.213c-.031.2.149.159.3.213" transform="translate(35.4 1.367)" fill="#f72"/>
      <path id="Tracé_349" data-name="Tracé 349" d="M85.683,4a.394.394,0,0,0,.177-.14A1.106,1.106,0,0,1,85.7,3.9Z" transform="translate(40.553 3.178)" fill="#f72"/>
      <path id="Tracé_350" data-name="Tracé 350" d="M78.447,1.826l.093.005a1.934,1.934,0,0,0,.093-.239Z" transform="translate(37.128 1.313)" fill="#f72"/>
      <path id="Tracé_351" data-name="Tracé 351" d="M81.142,1.894c-.085-.031-.15.476-.2.7.063-.2.134-.3.214-.328a1.84,1.84,0,0,0-.016-.367" transform="translate(38.31 1.56)" fill="#f72"/>
      <path id="Tracé_352" data-name="Tracé 352" d="M85.2,2.773l.113-.058-.113.058" transform="translate(40.324 2.238)" fill="#f72"/>
      <path id="Tracé_353" data-name="Tracé 353" d="M76.575,1.628a.865.865,0,0,0-.025-.186.559.559,0,0,0,.025.186" transform="translate(36.23 1.188)" fill="#f72"/>
      <path id="Tracé_354" data-name="Tracé 354" d="M3.337,6.365l-.013-.089c-.015.055-.016.093.013.089" transform="translate(1.568 5.173)" fill="#f72"/>
      <path id="Tracé_355" data-name="Tracé 355" d="M.089,5.657l.056-.042L.111,5.331Z" transform="translate(0.042 4.394)" fill="#f72"/>
      <path id="Tracé_356" data-name="Tracé 356" d="M63.493.312l.016.011c.1-.055.041-.047-.016-.011" transform="translate(30.05 0.233)" fill="#f72"/>
      <path id="Tracé_357" data-name="Tracé 357" d="M41.168.43c.383.445-.594.609-.021,1.1-.057-.2.494-.817.021-1.1" transform="translate(19.387 0.354)" fill="#f72"/>
      <path id="Tracé_358" data-name="Tracé 358" d="M85.669,3.9a.78.78,0,0,1-.159-.013.228.228,0,0,0,.159.013" transform="translate(40.471 3.2)" fill="#f72"/>
      <path id="Tracé_359" data-name="Tracé 359" d="M41.088,1.032v.005l.059.046c-.024-.022-.038-.033-.059-.051" transform="translate(19.446 0.851)" fill="#f72"/>
      <path id="Tracé_360" data-name="Tracé 360" d="M57.87.318a.725.725,0,0,0,.081.226A.509.509,0,0,0,57.87.318" transform="translate(27.389 0.262)" fill="#f72"/>
      <path id="Tracé_361" data-name="Tracé 361" d="M62.091.847l-.15-.075a.309.309,0,0,0,.15.075" transform="translate(29.316 0.636)" fill="#f72"/>
      <path id="Tracé_362" data-name="Tracé 362" d="M55.764.716C55.681.676,55.653.6,55.54.67a.253.253,0,0,0,.034.064c.041-.069.1-.1.19-.018" transform="translate(26.286 0.53)" fill="#f72"/>
      <path id="Tracé_363" data-name="Tracé 363" d="M53.432.652a1.2,1.2,0,0,0,.06.1L53.6.73Z" transform="translate(25.289 0.537)" fill="#f72"/>
      <path id="Tracé_364" data-name="Tracé 364" d="M10.131,5.363a1.862,1.862,0,0,1-.2-.431c.09.352-.377.567.2.431" transform="translate(4.656 4.065)" fill="#f72"/>
      <path id="Tracé_365" data-name="Tracé 365" d="M85.733,3.776c-.029.126-.062.188-.115.21l.112-.016a.359.359,0,0,0,0-.193" transform="translate(40.522 3.112)" fill="#f72"/>
      <path id="Tracé_366" data-name="Tracé 366" d="M55.74,2.938l-.524-.086a1.71,1.71,0,0,0,.524.086" transform="translate(26.133 2.351)" fill="#f72"/>
      <path id="Tracé_367" data-name="Tracé 367" d="M26.093,3.495l-.116.071a.1.1,0,0,0,.116-.071" transform="translate(12.295 2.881)" fill="#f72"/>
      <path id="Tracé_368" data-name="Tracé 368" d="M54.27,3.04a.914.914,0,0,0-.293-.359.439.439,0,0,0-.062.131Z" transform="translate(25.517 2.21)" fill="#f72"/>
      <path id="Tracé_369" data-name="Tracé 369" d="M9.9,4.93v0Z" transform="translate(4.686 4.063)" fill="#f72"/>
      <path id="Tracé_370" data-name="Tracé 370" d="M11.3,10.8c.5-.073.156-.693.215-1.095.57-.294.331.441.572.748.348-.241.561-.9.84-.927.032.106.091.137.044.286.33-.6,1.155-.23,1.537-.978a.487.487,0,0,1,.078.155,3.4,3.4,0,0,1-.171-.9c.221-.051.368-.491.5-.067-.138.009-.13.186-.18.332l.214-.226c.278.6-.3.266-.246.733.433-.277.91-.877,1.279-.755.137.6-.8.334-.271.808l-.566-.151c.517.9-.334-.016.156.961.728.067.759-.436,1.487-.367.124-.367-.106-.5.018-.863.946-.77.95,1.423,1.607.489.15-.44.147-1.23.716-.9l-.11.722c.692-.036.295-1.06,1.061-.7-.1.294-.519.314-.407.381.519.476.292-.445.651-.5l.133.606c.722-.215,1.489-.753,2.294-.978-.029.188-.15.4.056.564a5.2,5.2,0,0,1,3.213.018l.333-.582c.088-.005.183.219.1.336.4.15-.007-.341.161-.575.217-.067.314.266.189.445.641-.551,1.861-1.22,2.624-.722l-.128.173c.576.155.548-1.162,1.1-.722l-.093.106c1.23.1,2.538-.538,3.52.166.125-.788,1.224.21,1.232-.87.728.46.541.655,1.541.93.264.027.346-.7.662-.843l.043.56.4-.626.274.651.295-.171a.431.431,0,0,1-.264-.392c.458-.294,1.177.292,1.205.578l1.09-.571c-.012.228-.194.321-.334.478.564-.624.141.582.659.009-.08-.12.021-.337.028-.452a1.316,1.316,0,0,0,1.363.084l-.068.394c.835.027,1.738-.336,2.67-.41-.343-.151-.3-.828-.029-.916l.138.584c.159-.381-.3-.2.044-.679.351.038.267.655.077.863l.413-.235c.034.177-.062.275-.077.5.156-.379.759.551.978-.106l.032.175c.931-.051,1.345-.283,2.1-.358-.007-.514.295-.418.5-.846a5.33,5.33,0,0,0,1.871.409c.461-.285.121-.441.321-.761.053.465.722.379.387.737a6.1,6.1,0,0,0,2.033-.6c-.116-.184-.245-.261-.186-.423.183-.088.429.17.41.4l-.047.051c1.124-.786,2.687,1.239,3.571.228l-.05.051.933-.542c.438.066-.252.361.078.638,1-.817,1.616.055,2.444-.494.681,1.354,2.309-.181,3.2.668l-.056-.323c.221-.327.278.175.446.244-.028-.252-.252-.283-.113-.465,1.918-.485,3.979.416,5.951.673.72.08.4-1.684,1.313-.916l-.255.6c1.451-.737,2.975,0,4.4-.629-.085.139-.088.321-.227.319.3.434,1.112.011,1.118-.347.222.038.052.323.187.5.3.25.76-.558.919-.119.027.071-.085.14-.141.173.2-.208.916.071.731-.438.533.252,1.024-.206,1.45.1.281-.558.913.288,1.008-.507-.044.825.933.682,1.274.3-.115.248.292.265.156.607.386-.005.741-.151.679-.576.7,1,1.439-.768,1.824.5a17.942,17.942,0,0,1,3.256-.877c-.053.821-1.143.06-1.114.925.984-.321,1.563-1.016,2.53-.8.249.119-.15.354-.237.494.986-.31,1.887.159,2.768-.254,0,.077-.1.157-.19.215.172-.02.395.139.386-.235l-.169.093c-.262-.555.709-1.1.747-1.386-.318,1.058.855.31.355,1.642a.515.515,0,0,0,.242-.487c.166.08.215.23.038.505.619-.175.413-.582.968-.547-.007.181-.121.246-.184.456.292-.341.585-.68,1.05-.505-.031.108.019.254-.121.243.809-.016,1.406-.874,2.282-.493-.287.775.293.274.318.956l.483-.181-.18-.339c.417.031.8-.447,1.154-.208L98.5,4.7l.787-.093-.433-.277c.435-.332-.015-.865.535-.648-.116.062.418.027.62.438v0c.215-.206.438-.425.74-.241.072.221-.093.748-.046.9.225-.558.984-.111,1.266-.706a1.056,1.056,0,0,0-.085.569l.19-.452c.187.157.214.233.171.514.578.13-.15-.876.524-.451-.056.033-.032.1-.149.164.685.248,1.352-.19,1.98.086.158.7-.564.126-.374.719.922-.053,1.937-.675,2.82-.445l-.162-.088c.168-.956.639.527,1.109.106-.113.064-.169.525-.136.421.6.2,1.255-.142,2.194-.376l-.127.239c.348.25.937.2,1.319.343.128-.239.348-.182.233-.553,1.117,1.5,2.322-.582,3.315.675-.127-.007-.314.193-.214.2l.916-.159c-.047-.427-.1-.265-.274-.606a.725.725,0,0,1,.62-.4c-.424.25-.037.671.124.929-.022-.131.047-.266.04-.4.426.8.13-.837.743-.265l-.047.217c.248-.086.488-.354.744-.263.077.5-.271.2-.312.6.367.011.776-.843,1.077-.323-.164.119-.386.1-.55.215.323.609.374.469.635.587l-.025-.015.6.325-.147-.173c.538-1.217.943-.131,1.613-.894-.65.721-.13.443-.212.989.147.17.374.367.3.514.32-.412.46.4.913-.2.006.179.309.051.214.489.386-.1-.068-.319-.022-.538.625-.542,1.316.881,2.211.14.745-.263.922-.846,1.615-1.071.2.306-.233.624-.233.624a.788.788,0,0,0,.983.117c-.081.146-.019.285.071.494.278-.016.233-.624.576-.323a2.857,2.857,0,0,1-.329.68c.337-.128.684-.423,1.031-.547.066.319-.239.447-.373.635.389-.1,1-.173,1.157-.649l-.23-.2c.14-.009.038.427-.071.505-.354.348-.454-.219-.458-.4l.248-.088c-.166-1.065-.975.064-1.453-.049l.258-.733-.542.573c-.09-.208-.131-.637.116-.724-.32-.412-.327.235-.594-.213a.1.1,0,0,1,.022-.13l-.355.188c.078-.151-.018-.54.183-.407-.576-.5-1.021.462-1.208-.137l.055-.04c-.862.164-.122.545-.8,1.129l-.329-1.416-.122.545c-.085-.029-.255-.089-.208-.306-.349.345.038.246-.174.586-.383-.551-1.17.111-1.2-.783-.178.4.379.368-.088.613-.063-.965-.527.108-.881-.37.15-.478.5-.179.141-.659-.286.806-.732-.261-1.065-.137-.059.659-.72.2-1.276.361.049-.219-1-.472-1.485-.766l.022-.109c-.138.66-.65.471-1.037.578a.816.816,0,0,1,.331-.71l-.357-.027a.6.6,0,0,1-.449.37l.119-.493c-.477-.009-.99.514-1.582.135-.06.463.411,1.334-.25,1.6-.01-.254-.009-.688.165-.777-.057.027-.209.193-.314.078l.281-.4c-.267-.206-.165.343-.385.286.024-.359-.15-.268-.1-.551.059-.031.186.162.278.029a1.037,1.037,0,0,1-.623-.6c.012.206-.027.483-.212.516-.476-.011-.138-.445-.405-.651-.128.241-.418-.04-.455.5-.138-.013-.15-.266-.2-.416-.258.219-1.151-.02-.9.573l.062.042-.041.022h0c-.832.472-1.656-.432-2.466-.265l.01-.179c-.486.168-1.067.04-1.425.4-.141-.011-.317-.354-.248-.562-.37.106-.42.3-.933-.031.38-.286-.115-.288.386-.2-.467-.192-.561-.487-1.092-.035.193-.447-.331-.607-.563-.487l.318.356a1.565,1.565,0,0,1-.7-.067l.147-.6c-.94-.806-1.8,1.107-2.488-.15-.274.41.516.323.267.808-.443-.1-.875-.994-1.015-1-.6-.365-.6.859-1.236.6.075.219.131.8-.354.981-.443-.1-.517-.932-.228-1.093a.118.118,0,0,1,.149.13c.147-.071.34-.155.172-.4l-.066.213c-.214-.232-.829-.237-.673-.586-.345.192-.156.348.09.472-.563-.339-.894-.051-1.478-.288.09.122.168.381.074.374-.856-.308-.393.392-.983.46-.323-.345.144-.781-.454-.533-.354-.239-.059-.576.09-.746-.551.39-1-.321-1.3-.412L94.939.4a.724.724,0,0,1-.452.078l.149.441c-.164-.084-.3-.093-.3-.272-.18.275.111.726-.24,1.1-.217-.232-.682.2-.743-.374.692.228-.062-.58.532-.646A.433.433,0,0,1,93.469.7a.132.132,0,0,1,.074-.15c-.656-.544-.326.635-1.017.589.1-.319-.144-.62-.259-.556.278.018.119.545-.143.781-.436-.272-.486.166-.717.126l.262.13c-.1.321-.318.268-.629.356-.021-.254.284-.161.177-.277-.357.553-.762-.626-1.249-.265-.217-.23-.007-.609-.2-.766-.547.392-.573-.471-1.145-.133.155.438.184.332-.221.75l.934-.286-.608.618c.28.011.6-.263.762-.179-.29.343-.259.235-.134.6-.368-.668-.765.365-1.2-.086L88.192.87C87.534.379,87,1.4,86.139,1.116l.274.192c-.122.427-.535.051-.816.219.031-.359-.141-.494-.258-.721.01.268-.634-.035-.722.682l-.379-.482c-.7-.206-.809,1.012-1.478.877.206-.389-.1-.648.357-.919-.224-.009-.424-.078-.43.171-.128-.228-.626.474-.829.128-.1.157-.13.533-.38.5a.36.36,0,0,1,0-.179c0,.179-.395.235-.178.638-.681-1.136-1.927.046-2.521-.93a9.119,9.119,0,0,1-1.522.235c.029-.106,0-.179.085-.14-.61-.347-.379,1.029-1.073.66-.355-.58.37-.319.149-.538-.094-1.184-.841.17-1.308-.516l.113-.071c-.359-.4-.875.456-1.46.378a.374.374,0,0,0,0-.179,2.945,2.945,0,0,1-1.716.989c.172-.465.255-.248.146-.719-.252.069.077.755-.426.892-.165-.252-.529-.471-.58-.972l.476-.031c-.248-.649-.616.027-.866-.084L70.83.912c-.728.1-.732.817-1.515.773L69.4,1.9c-.421.713-.362-.4-.784.137l-.136-.719a6.929,6.929,0,0,1-1.485.845c.28-.536.869-.815,1.232-1.136-.28,0-.95.064-1.092.42.112-.071.252-.248.365-.139a1.5,1.5,0,0,1-1.342.845C66.237.744,64.7,1.822,64.279.763c-.977.553-1.961-.15-3.11-.026.432,1.071-.336.044-.24,1.155-.265.082-.368.067-.393,0l-.827-.637c-.2-.317.249-.255.218-.505C59.339.682,59.669.283,59.274,0c.088.4-.19.578-.529.44l.485.5c-.8.624-.734-.91-1.544-.292l.252-.361c-.418.223-1.566.049-1.955.96-.078-.126-.187-.427,0-.514-1.018-.109-2.223,1.056-3.028.556l.066-.277c-.186.089-.311.531-.557.272.009-.113.066-.275-.021-.286-.1.1-.485.507-.741.365l.2-.321c-1-.3-1.488.841-2.307,1.078-.029-.8-.818-1.014-1.211-1.12l.009-.115c-1.157-.027-1.926.784-2.975,1.166-.7-.843-2.254-.181-3.341-.584.169.131.006.628-.178.724-.258-.142-.657.615-.657-.124l.088.007c-.227-.7-.729-.469-1.13-.454l-.01.967c-1.127-1.308-2.706.75-3.353-.452-.237.261-.55.285-.784.547l-.021-.516a4.547,4.547,0,0,0-1.915.13l.152-.387c-.489.02-.514,1.552-.961,1.631l-.187-.753c-.847.106-1.758-.474-2.544.314,0-.113.013-.337.149-.385-.4.026-1.587-.348-1.361.69-.062-.686-.881.029-1.314.381l.031-.514c-.336.69-.334.867-.859,1.118-.133-.049-.144-.39.035-.283-.446-.208-.292.524-.829.321l.165-.348c-.441.02-.392.188-.6.6-.258.241-.841-.016-.944-.465-.035.286-.243.691-.513.593a.384.384,0,0,1,.078-.347c-.762-.246-1.037.733-1.584.3a.5.5,0,0,0-.112-.29,3.821,3.821,0,0,1,1.014-.057c-.041-.465-.519-.485-.2-1.178-.348.4-.925,1.251-1.4,1.093a.6.6,0,0,1-.075-.153L22.3,4.11a.272.272,0,0,0-.283.113.868.868,0,0,0-.393-.089c-.09-.378-.558-.135-.8-.124.068.507-.248.467.08.848-.041-.031.038-.066.193-.108a.247.247,0,0,0,.094-.066l-.012.046.579-.111c-.161.283-.334.527-.619.279-.09.343-.19.7-.25.865-.386-.669-1.04-.952-1.168-1.377-.687.4-1.666.449-2.018,1.474-.192.155-.262-.237-.352-.376.108-.115.248-.122.3-.268-.382.308-1.193.281-1.221.963-.542-.221.224-.659-.467-.44l.072-.219c-1.5-.859-2.061,2.061-3.741.965.115.066.172.095.208.2-1.817-.3-3.523,1.195-5.358.593-.514-.1-.511.339-.766.721L6.2,7.477l-.426.728c-.657.6-1.432-1.065-2.226,0l.171.339c-.339,0-1.006.44-1.014.009-.024.073-.052.4-.208.241l-.052-.283-.731.675c-.656-.058-.075-1.147-1-.987-.324.188-.844,1.067-.679,1.22a.429.429,0,0,1,.438.368l-.283.224c.083.846.01,1.751.831,2.151l.436-.633.23.365-.432.128c.308.323.411-.051.551-.323a.673.673,0,0,0,.286.394l.389-.918c.11.312-.13.7.239.8.183-.427-.34-.679.021-1.014.306.325.278.649.526.263a.45.45,0,0,1-.072.476c.224-.316.675-.259.747-.733.327.412.866-.314.952.485a1.615,1.615,0,0,1,.61-.808c-.311,1.038.91-.13.931.916.212-.918,1.126-.611,1.643-1.2-.024.075-.069.224-.127.192.334.007.463.246.691.367-.047-.715.439-.976.659-1.465.483.6-.14.876.066,1.507-.09-.569.622-.708.429-1.157.358.368.289.159.517.717-.053-.894.267-.2.455-.788.5.358.212.808.667.452.262.232-.133.62-.133.62M22.734,7.437v.011l-.239.06.237-.071m.978-.139a2.347,2.347,0,0,0-.426.038c-.05-.173-.029-.359.069-.363-.043.126.2.2.357.325m-2.4-3.254c.149-.093.211,0,.242.1a1.6,1.6,0,0,0-.267.1l-.013.066a1.1,1.1,0,0,1,.038-.265" transform="translate(0.001 0)" fill="#f72"/>
      <path id="Tracé_371" data-name="Tracé 371" d="M14.339,2.611c-.022.015-.032.036-.06.046a.873.873,0,0,0,.1.1l.041-.166Z" transform="translate(6.758 2.137)" fill="#f72"/>
      <path id="Tracé_372" data-name="Tracé 372" d="M75.1,1.834l-.021-.013a.193.193,0,0,1,.04.075.446.446,0,0,1-.019-.062" transform="translate(35.533 1.501)" fill="#f72"/>
      <path id="Tracé_373" data-name="Tracé 373" d="M25.353,3.743l-.009-.13-.08.12Z" transform="translate(11.958 2.978)" fill="#f72"/>
      <path id="Tracé_374" data-name="Tracé 374" d="M78.708,3.021a.273.273,0,0,0,.063.139.361.361,0,0,0-.063-.139" transform="translate(37.251 2.49)" fill="#f72"/>
      <path id="Tracé_375" data-name="Tracé 375" d="M80.289,3.222l.318.217a1.354,1.354,0,0,0-.318-.217" transform="translate(38 2.656)" fill="#f72"/>
      <path id="Tracé_376" data-name="Tracé 376" d="M81.5,3.566a1.413,1.413,0,0,0,.05-.215l0,0Z" transform="translate(38.571 2.759)" fill="#f72"/>
      <path id="Tracé_377" data-name="Tracé 377" d="M62.12,2.7a.155.155,0,0,0-.069.02c-.166.091-.055.058.069-.02" transform="translate(29.328 2.223)" fill="#f72"/>
      <path id="Tracé_378" data-name="Tracé 378" d="M67.971,2.259a1.648,1.648,0,0,1-.283.23c.15.046.267.062.283-.23" transform="translate(32.036 1.862)" fill="#f72"/>
      <path id="Tracé_379" data-name="Tracé 379" d="M55.63,2.909V2.9h-.059Z" transform="translate(26.301 2.39)" fill="#f72"/>
      <path id="Tracé_380" data-name="Tracé 380" d="M67.419,2.385a.335.335,0,0,0,.4.027.493.493,0,0,0-.4-.027" transform="translate(31.908 1.938)" fill="#f72"/>
      <path id="Tracé_381" data-name="Tracé 381" d="M86.767,4.076l.084.031a.237.237,0,0,1,.018-.082Z" transform="translate(41.066 3.317)" fill="#f72"/>
      <path id="Tracé_382" data-name="Tracé 382" d="M86.836,4.049l.1-.049c-.044-.005-.083-.005-.1.049" transform="translate(41.098 3.295)" fill="#f72"/>
      <path id="Tracé_383" data-name="Tracé 383" d="M87.116,3.94l-.212.108c.069.007.155.033.212-.108" transform="translate(41.13 3.247)" fill="#f72"/>
      <path id="Tracé_384" data-name="Tracé 384" d="M85.179,3.784l-.041.182a.582.582,0,0,0,.041-.182" transform="translate(40.295 3.119)" fill="#f72"/>
      <path id="Tracé_385" data-name="Tracé 385" d="M84.673,3.8c.169.06.4.441.653.352l.032-.146c-.133.265-.5-.5-.685-.206" transform="translate(40.074 3.076)" fill="#f72"/>
      <path id="Tracé_386" data-name="Tracé 386" d="M82.733,2.567l.6.213c-.093-.208-.214-.489.066-.507-.725-.671.127.46-.663.294" transform="translate(39.156 1.696)" fill="#f72"/>
      <path id="Tracé_387" data-name="Tracé 387" d="M81.517,2.249c.333-.057.015-.286.04-.4-.22.159-.273.2-.04.4" transform="translate(38.509 1.526)" fill="#f72"/>
      <path id="Tracé_388" data-name="Tracé 388" d="M72.237,1.634l.054-.463c-.255.047-.01.181-.054.463" transform="translate(34.159 0.965)" fill="#f72"/>
      <path id="Tracé_389" data-name="Tracé 389" d="M70.378,2.685l.231.308.136-.418Z" transform="translate(33.309 2.123)" fill="#f72"/>
      <path id="Tracé_390" data-name="Tracé 390" d="M69.528.778,69.642.72l-.429.146Z" transform="translate(32.757 0.593)" fill="#f72"/>
      <path id="Tracé_391" data-name="Tracé 391" d="M53.836.422,53.908,1c.172-.1.212-.746-.072-.576" transform="translate(25.48 0.324)" fill="#f72"/>
      <path id="Tracé_392" data-name="Tracé 392" d="M47.287.894c-.11-.286-.392-.469-.56-.184.222.036.446.259.56.184" transform="translate(22.115 0.467)" fill="#f72"/>
      <path id="Tracé_393" data-name="Tracé 393" d="M26.972,1.136l.189-.21-.367.193Z" transform="translate(12.681 0.763)" fill="#f72"/>
      <path id="Tracé_394" data-name="Tracé 394" d="M103.565,6.057c.08-.148.069-.509-.125-.456l-.18.587Z" transform="translate(48.871 4.612)" fill="#f72"/>
      <path id="Tracé_395" data-name="Tracé 395" d="M102.809,5.169a1.6,1.6,0,0,0-.433,1.323c.261-.556.3-.31.583-.974.194-.051.315.226.267.445.078-.148.283.161.413-.206-.209-.491-.52-.54-.874-.188-.059-.14.021-.29.044-.4" transform="translate(48.443 4.26)" fill="#f72"/>
      <path id="Tracé_396" data-name="Tracé 396" d="M90.174,3.725l.115.08a.2.2,0,0,0-.115-.08" transform="translate(42.678 3.07)" fill="#f72"/>
      <path id="Tracé_397" data-name="Tracé 397" d="M82.4,3.213a.139.139,0,0,0,.133-.124c-.083.036-.15.071-.133.124" transform="translate(38.999 2.546)" fill="#f72"/>
      <path id="Tracé_398" data-name="Tracé 398" d="M81.085,2.758,81.2,2.8c-.043-.057-.087-.089-.115-.046" transform="translate(38.376 2.257)" fill="#f72"/>
      <path id="Tracé_399" data-name="Tracé 399" d="M90.271,3.821l-.3-.212c-.031.2.15.157.3.212" transform="translate(42.581 2.975)" fill="#f72"/>
      <path id="Tracé_400" data-name="Tracé 400" d="M100.868,5.888a.406.406,0,0,0,.177-.142.9.9,0,0,1-.161.049Z" transform="translate(47.739 4.736)" fill="#f72"/>
      <path id="Tracé_401" data-name="Tracé 401" d="M93.621,3.756l.093.005a2.068,2.068,0,0,0,.091-.239Z" transform="translate(44.309 2.904)" fill="#f72"/>
      <path id="Tracé_402" data-name="Tracé 402" d="M96.315,3.81c-.087-.031-.147.478-.194.7.062-.206.133-.3.212-.33a1.75,1.75,0,0,0-.018-.367" transform="translate(45.493 3.139)" fill="#f72"/>
      <path id="Tracé_403" data-name="Tracé 403" d="M100.379,4.668l.113-.06-.113.06" transform="translate(47.508 3.798)" fill="#f72"/>
      <path id="Tracé_404" data-name="Tracé 404" d="M91.749,3.568a.769.769,0,0,0-.027-.186.518.518,0,0,0,.027.186" transform="translate(43.411 2.787)" fill="#f72"/>
      <path id="Tracé_405" data-name="Tracé 405" d="M18.536,8.705l-.013-.089c-.015.055-.016.093.013.089" transform="translate(8.761 7.101)" fill="#f72"/>
      <path id="Tracé_406" data-name="Tracé 406" d="M15.285,8.014l.056-.042-.035-.285Z" transform="translate(7.234 6.336)" fill="#f72"/>
      <path id="Tracé_407" data-name="Tracé 407" d="M78.659,2.324l.016.011c.1-.055.041-.047-.016-.011" transform="translate(37.228 1.892)" fill="#f72"/>
      <path id="Tracé_408" data-name="Tracé 408" d="M56.334,2.563c.386.441-.591.615-.016,1.1-.057-.2.489-.821.016-1.1" transform="translate(26.566 2.112)" fill="#f72"/>
      <path id="Tracé_409" data-name="Tracé 409" d="M100.855,5.786a.779.779,0,0,1-.159-.011.226.226,0,0,0,.159.011" transform="translate(47.658 4.76)" fill="#f72"/>
      <path id="Tracé_410" data-name="Tracé 410" d="M56.258,3.166v.005l.059.046c-.024-.022-.038-.033-.059-.051" transform="translate(26.626 2.609)" fill="#f72"/>
      <path id="Tracé_411" data-name="Tracé 411" d="M73.036,2.361a.784.784,0,0,0,.082.226.509.509,0,0,0-.082-.226" transform="translate(34.567 1.946)" fill="#f72"/>
      <path id="Tracé_412" data-name="Tracé 412" d="M77.26,2.867l-.15-.075a.309.309,0,0,0,.15.075" transform="translate(36.495 2.301)" fill="#f72"/>
      <path id="Tracé_413" data-name="Tracé 413" d="M70.932,2.769c-.083-.04-.11-.111-.224-.044a.274.274,0,0,0,.034.062c.041-.069.1-.1.19-.018" transform="translate(33.465 2.223)" fill="#f72"/>
      <path id="Tracé_414" data-name="Tracé 414" d="M68.6,2.718a.919.919,0,0,0,.062.1l.1-.026Z" transform="translate(32.467 2.24)" fill="#f72"/>
      <path id="Tracé_415" data-name="Tracé 415" d="M25.324,7.665a1.8,1.8,0,0,1-.2-.429c.09.352-.374.569.2.429" transform="translate(11.847 5.964)" fill="#f72"/>
      <path id="Tracé_416" data-name="Tracé 416" d="M100.917,5.666c-.028.126-.062.188-.113.21l.112-.016a.357.357,0,0,0,0-.193" transform="translate(47.709 4.67)" fill="#f72"/>
      <path id="Tracé_417" data-name="Tracé 417" d="M70.921,4.991l-.526-.082a1.731,1.731,0,0,0,.526.082" transform="translate(33.317 4.046)" fill="#f72"/>
      <path id="Tracé_418" data-name="Tracé 418" d="M41.277,5.71l-.116.073a.1.1,0,0,0,.116-.073" transform="translate(19.481 4.706)" fill="#f72"/>
      <path id="Tracé_419" data-name="Tracé 419" d="M69.451,5.1a.908.908,0,0,0-.295-.358.487.487,0,0,0-.062.131Z" transform="translate(32.701 3.911)" fill="#f72"/>
      <path id="Tracé_420" data-name="Tracé 420" d="M25.091,7.233v0Z" transform="translate(11.875 5.961)" fill="#f72"/>
      <path id="Tracé_421" data-name="Tracé 421" d="M26.5,13.264c.5-.077.152-.7.209-1.1.569-.3.333.44.576.744.346-.243.557-.907.835-.932.032.106.091.137.044.286.329-.6,1.154-.239,1.532-.989a.432.432,0,0,1,.078.155,3.475,3.475,0,0,1-.174-.9c.221-.053.367-.494.5-.071-.138.009-.13.186-.178.334l.212-.228c.281.595-.295.268-.242.733.432-.279.906-.883,1.274-.763.14.6-.793.339-.268.81l-.566-.148c.522.9-.334-.015.161.96.728.064.757-.441,1.485-.376.122-.367-.108-.5.015-.865.941-.775.956,1.417,1.609.48.149-.441.143-1.231.712-.9l-.108.724c.694-.042.29-1.064,1.058-.711-.1.294-.517.317-.405.383.522.474.29-.447.65-.505l.136.6c.72-.221,1.487-.763,2.288-.994-.028.19-.147.4.06.564a5.194,5.194,0,0,1,3.212,0l.331-.586c.088-.005.183.219.1.336.4.148-.009-.341.158-.576.215-.067.315.266.19.445.639-.555,1.856-1.233,2.621-.741l-.127.175c.576.151.542-1.166,1.1-.73l-.091.106c1.23.089,2.536-.556,3.521.142.119-.79,1.224.2,1.226-.879.731.456.545.651,1.545.921.264.024.343-.706.659-.848l.046.56.4-.629.277.649.293-.171a.433.433,0,0,1-.265-.392c.457-.3,1.177.285,1.208.571l1.087-.578c-.01.228-.193.323-.333.48.563-.628.144.58.66.005-.081-.12.019-.337.025-.452a1.313,1.313,0,0,0,1.363.073l-.065.394c.834.022,1.736-.347,2.667-.427-.343-.15-.3-.826-.032-.916l.14.582c.158-.383-.3-.2.041-.679.352.036.27.653.08.863l.413-.237c.034.175-.06.275-.074.5.155-.381.76.544.978-.111l.032.173c.931-.058,1.344-.29,2.1-.372-.01-.514.292-.42.5-.85a5.3,5.3,0,0,0,1.873.4c.461-.286.119-.441.318-.761.055.463.725.374.39.733a6.107,6.107,0,0,0,2.032-.613c-.118-.184-.246-.257-.189-.421.183-.089.43.168.413.392l-.047.053c1.12-.8,2.693,1.22,3.571.2l-.05.049.931-.547c.438.062-.25.363.081.637,1-.821,1.615.046,2.441-.509.687,1.348,2.307-.2,3.206.646l-.057-.323c.22-.328.278.173.448.241-.029-.25-.253-.281-.116-.463,1.915-.5,3.981.389,5.954.633.722.075.39-1.686,1.308-.925l-.252.606c1.45-.746,2.976-.022,4.4-.659-.084.14-.085.321-.225.321.3.432,1.114,0,1.117-.354.222.036.053.321.19.5.3.248.757-.562.918-.124.028.071-.084.14-.14.173.2-.21.916.066.728-.443.536.248,1.024-.212,1.451.091.28-.562.915.283,1.006-.514-.041.825.934.675,1.276.292-.115.248.293.261.158.606.386-.007.741-.157.676-.582.7,1,1.436-.777,1.827.493a18.222,18.222,0,0,1,3.252-.9c-.049.823-1.142.069-1.109.934.983-.328,1.559-1.027,2.527-.817.25.117-.149.354-.236.494.984-.316,1.889.146,2.768-.272,0,.077-.1.157-.19.217.172-.02.4.135.385-.239l-.169.095c-.264-.553.7-1.105.743-1.392-.315,1.06.855.3.362,1.64a.517.517,0,0,0,.239-.489c.166.08.217.228.04.505.619-.179.41-.586.966-.555-.006.181-.121.246-.183.458.29-.343.582-.684,1.049-.513-.031.108.021.252-.121.244.809-.022,1.4-.885,2.281-.509-.283.777.295.272.323.954l.482-.184-.181-.337c.417.027.8-.452,1.154-.215l-.32.268.787-.1L114.02,6.2c.433-.334-.019-.863.532-.651-.115.064.418.026.623.434v0c.214-.208.435-.427.738-.246.072.221-.09.75-.043.9.224-.562.984-.119,1.263-.715a1.048,1.048,0,0,0-.081.569l.187-.454c.189.157.214.233.172.514.579.126-.155-.876.523-.456-.056.035-.032.106-.147.168.687.243,1.351-.2,1.979.073.162.7-.563.128-.37.721.922-.06,1.934-.688,2.817-.465l-.162-.086c.164-.958.641.522,1.111.1-.113.064-.168.527-.134.421.6.2,1.255-.151,2.192-.39l-.127.241c.349.246.938.193,1.322.334.127-.241.346-.184.23-.555,1.123,1.5,2.319-.6,3.318.653-.127-.007-.314.2-.214.2l.916-.164c-.049-.427-.1-.263-.277-.6a.723.723,0,0,1,.617-.4c-.421.252-.032.671.13.929-.024-.133.046-.268.037-.4.43.8.127-.837.743-.27l-.047.219c.248-.089.486-.359.743-.27.08.5-.27.2-.309.6.367.009.773-.848,1.076-.33-.162.119-.386.1-.548.219.326.606.376.465.638.584l-.027-.016.6.321-.149-.171c.533-1.22.943-.137,1.609-.9-.647.724-.127.445-.206.991.147.168.374.365.3.513.317-.416.461.4.912-.21.007.179.309.049.217.487.386-.1-.071-.317-.024-.536.62-.547,1.319.872,2.21.126.745-.27.919-.854,1.61-1.084.208.306-.23.628-.23.628a.787.787,0,0,0,.983.108c-.08.148-.018.286.074.5.278-.018.23-.628.575-.328a2.934,2.934,0,0,1-.326.684c.336-.131.681-.429,1.03-.555.066.317-.237.447-.37.637.387-.1,1-.181,1.152-.657l-.23-.2c.138-.011.04.427-.069.505-.351.35-.454-.217-.46-.4l.248-.089c-.171-1.065-.975.069-1.453-.04l.255-.735-.541.576c-.091-.208-.134-.637.113-.726-.321-.409-.326.239-.6-.208-.028-.067-.01-.1.022-.13l-.354.19c.077-.151-.021-.538.18-.409-.578-.5-1.018.469-1.208-.128l.053-.042c-.86.171-.118.547-.794,1.135l-.334-1.412-.119.547c-.085-.029-.255-.088-.209-.306-.349.347.04.246-.172.586-.386-.547-1.168.12-1.207-.773-.177.407.38.367-.085.615-.068-.965-.527.111-.883-.365.149-.48.5-.182.138-.66-.281.808-.734-.255-1.067-.13-.055.659-.719.2-1.273.37.047-.219-1-.465-1.49-.755l.022-.109c-.136.66-.648.472-1.036.586a.827.827,0,0,1,.33-.715l-.357-.024a.6.6,0,0,1-.449.374l.118-.494c-.477-.005-.989.522-1.581.146-.059.463.417,1.332-.245,1.6-.01-.254-.012-.686.162-.777-.057.027-.208.2-.314.08l.28-.407c-.268-.206-.164.345-.383.288.022-.358-.152-.266-.1-.551.057-.029.186.162.278.027a1.028,1.028,0,0,1-.626-.595c.012.206-.025.483-.211.518-.476-.007-.14-.445-.408-.649-.128.243-.418-.038-.452.5-.138-.013-.152-.265-.2-.414-.256.219-1.151-.013-.9.578l.062.042-.041.02h0c-.829.48-1.657-.421-2.466-.246l.009-.181c-.486.173-1.067.047-1.423.412-.14-.011-.318-.352-.249-.562-.371.109-.42.308-.934-.026.379-.288-.115-.286.385-.2-.467-.188-.563-.483-1.09-.027.192-.449-.334-.606-.566-.483l.32.354a1.556,1.556,0,0,1-.7-.062l.144-.6c-.944-.8-1.794,1.12-2.49-.133-.273.414.517.319.27.806-.443-.1-.88-.989-1.02-1-.6-.361-.6.863-1.232.607.075.219.133.8-.351.985-.443-.1-.522-.93-.234-1.093a.121.121,0,0,1,.152.131c.146-.073.339-.159.169-.4l-.065.213c-.215-.23-.831-.232-.676-.58-.343.192-.155.348.091.471-.563-.336-.894-.046-1.479-.279.091.122.169.381.077.374-.857-.3-.392.4-.981.467-.324-.343.141-.783-.457-.529-.355-.239-.062-.578.087-.748-.55.4-1-.316-1.305-.4l.289-.164a.742.742,0,0,1-.452.082l.15.44c-.164-.082-.3-.091-.3-.27-.178.277.113.724-.236,1.1-.217-.23-.681.208-.744-.368.694.223-.063-.58.529-.649a.437.437,0,0,1-.42-.027.132.132,0,0,1,.074-.15c-.657-.54-.323.638-1.014.6.094-.319-.147-.62-.262-.556.278.018.122.545-.138.784-.439-.27-.486.168-.717.13l.262.128c-.1.321-.317.27-.628.359-.022-.254.283-.162.175-.277-.354.555-.765-.62-1.249-.257-.218-.228-.012-.607-.2-.764-.544.4-.575-.467-1.145-.126.156.438.186.332-.218.752l.933-.294-.606.624c.28.009.6-.268.762-.184-.29.345-.259.237-.131.6-.371-.666-.765.368-1.2-.078l.029-1.078c-.66-.487-1.192.54-2.052.259l.275.192c-.121.425-.533.053-.815.223.029-.359-.144-.493-.261-.717.012.266-.634-.033-.719.686l-.382-.478c-.7-.2-.8,1.016-1.473.887.2-.389-.1-.648.354-.923-.224-.005-.426-.075-.43.175-.13-.226-.625.478-.828.133-.1.159-.128.534-.38.5a.347.347,0,0,1,0-.177c0,.177-.395.237-.177.638-.685-1.131-1.926.058-2.525-.912a9.132,9.132,0,0,1-1.52.244c.028-.106,0-.179.085-.14-.613-.343-.374,1.031-1.071.666-.357-.576.37-.319.147-.536-.1-1.184-.84.175-1.311-.509l.113-.073c-.361-.4-.872.463-1.457.389a.383.383,0,0,0,0-.179,2.943,2.943,0,0,1-1.712,1c.171-.467.253-.25.141-.719-.25.071.081.755-.42.9-.166-.252-.532-.467-.585-.969l.474-.035c-.25-.648-.616.031-.866-.078l.028-.285c-.728.1-.728.821-1.512.783l.084.213c-.417.717-.364-.392-.782.142l-.14-.719a6.774,6.774,0,0,1-1.481.856c.277-.538.865-.821,1.227-1.144-.28,0-.95.069-1.09.427.112-.071.25-.25.364-.142a1.5,1.5,0,0,1-1.338.854c.074-1.406-1.457-.317-1.884-1.375-.975.56-1.962-.135-3.11,0,.436,1.067-.336.046-.236,1.157-.265.082-.367.069-.393,0l-.829-.631c-.2-.317.248-.257.217-.505-.589-.062-.259-.463-.657-.742.091.4-.187.58-.526.441l.486.494c-.8.628-.737-.9-1.545-.283l.25-.361c-.417.224-1.565.06-1.949.972-.08-.126-.19-.425-.006-.514-1.02-.1-2.219,1.071-3.026.576l.066-.277c-.186.091-.308.533-.555.275.007-.113.065-.277-.024-.286-.1.1-.482.511-.738.368l.2-.321c-1-.288-1.484.85-2.3,1.095-.034-.8-.822-1.011-1.217-1.113l.009-.115c-1.155-.02-1.923.8-2.969,1.186-.707-.839-2.256-.166-3.344-.56.171.13.009.626-.174.724-.259-.14-.656.618-.66-.119l.09.005c-.23-.7-.731-.463-1.131-.447l-.007.967c-1.131-1.3-2.7.768-3.355-.431-.236.265-.548.29-.781.553l-.022-.516a4.571,4.571,0,0,0-1.915.144l.15-.389c-.491.024-.508,1.556-.953,1.638L48.285,5.1c-.847.109-1.759-.463-2.543.33,0-.113.012-.337.147-.385-.4.026-1.588-.339-1.358.7-.065-.684-.881.035-1.313.39l.029-.513c-.333.69-.331.867-.855,1.122-.133-.047-.146-.389.035-.283-.448-.206-.29.525-.829.328l.164-.35c-.441.022-.39.19-.6.6-.258.241-.841-.011-.946-.46-.035.286-.24.693-.51.6a.38.38,0,0,1,.075-.347c-.763-.241-1.033.741-1.582.314a.484.484,0,0,0-.113-.29A3.772,3.772,0,0,1,39.1,6.782c-.043-.465-.52-.482-.206-1.177-.345.4-.919,1.257-1.4,1.1a.619.619,0,0,1-.077-.153l.043-.058a.275.275,0,0,0-.283.117.842.842,0,0,0-.393-.088c-.091-.378-.558-.133-.8-.119.069.507-.245.467.084.848-.041-.031.038-.067.192-.109a.251.251,0,0,0,.094-.067l-.012.047.579-.117c-.161.285-.331.529-.619.283-.088.345-.187.7-.246.868-.389-.668-1.043-.945-1.174-1.372-.685.4-1.665.462-2.013,1.489-.19.157-.262-.235-.354-.372.108-.115.248-.124.3-.272-.38.312-1.193.29-1.217.972-.544-.217.22-.66-.47-.436l.072-.221c-1.5-.848-2.052,2.076-3.736.992.115.064.172.093.208.2-1.818-.286-3.517,1.217-5.355.628-.514-.091-.51.343-.763.726l-.18-.522-.423.73c-.654.6-1.438-1.056-2.226.011l.171.339c-.337,0-1,.447-1.012.016-.024.073-.05.4-.206.241l-.053-.281-.729.679c-.656-.053-.08-1.146-1-.98-.323.19-.84,1.073-.673,1.226a.426.426,0,0,1,.439.365l-.283.226c.087.846.019,1.751.84,2.145l.433-.637.233.363-.432.131c.309.321.411-.053.55-.327a.664.664,0,0,0,.289.392l.385-.921c.112.312-.128.7.242.8.181-.429-.343-.677.016-1.016.308.323.281.649.526.259a.45.45,0,0,1-.069.478c.222-.316.675-.265.744-.739.33.41.865-.319.953.478a1.605,1.605,0,0,1,.607-.81c-.306,1.04.909-.137.934.908.209-.919,1.124-.618,1.638-1.211-.024.075-.069.226-.125.192.334.005.463.244.692.363-.052-.715.435-.98.653-1.47.485.6-.137.877.072,1.507-.093-.569.619-.711.424-1.16.358.367.289.157.52.713-.057-.892.265-.2.451-.79.5.354.217.806.669.449.264.228-.128.62-.128.62M37.917,9.822v.009l-.237.064c.049-.016.116-.036.236-.073m.978-.144a2.347,2.347,0,0,0-.426.038c-.052-.171-.031-.358.068-.361-.043.124.2.193.358.323m-2.412-3.24c.149-.093.211,0,.243.1a1.436,1.436,0,0,0-.267.1l-.013.066a1.1,1.1,0,0,1,.037-.265" transform="translate(7.192 1.762)" fill="#f72"/>
      <path id="Tracé_422" data-name="Tracé 422" d="M29.518,4.892c-.022.015-.031.038-.06.046a1,1,0,0,0,.1.1l.038-.168Z" transform="translate(13.942 4.015)" fill="#f72"/>
      <path id="Tracé_423" data-name="Tracé 423" d="M90.273,3.782l-.021-.013a.216.216,0,0,1,.041.075.321.321,0,0,1-.021-.062" transform="translate(42.715 3.106)" fill="#f72"/>
      <path id="Tracé_424" data-name="Tracé 424" d="M40.538,5.962l-.01-.13-.078.122Z" transform="translate(19.144 4.808)" fill="#f72"/>
      <path id="Tracé_425" data-name="Tracé 425" d="M93.889,4.95a.273.273,0,0,0,.063.139.362.362,0,0,0-.063-.139" transform="translate(44.436 4.08)" fill="#f72"/>
      <path id="Tracé_426" data-name="Tracé 426" d="M95.471,5.142l.32.215a1.365,1.365,0,0,0-.32-.215" transform="translate(45.185 4.238)" fill="#f72"/>
      <path id="Tracé_427" data-name="Tracé 427" d="M96.68,5.479a1.432,1.432,0,0,0,.049-.215l0,0Z" transform="translate(45.757 4.335)" fill="#f72"/>
      <path id="Tracé_428" data-name="Tracé 428" d="M77.3,4.716a.155.155,0,0,0-.069.02c-.165.093-.055.058.069-.02" transform="translate(36.512 3.887)" fill="#f72"/>
      <path id="Tracé_429" data-name="Tracé 429" d="M83.146,4.247a1.55,1.55,0,0,1-.281.232c.15.044.268.06.281-.232" transform="translate(39.219 3.5)" fill="#f72"/>
      <path id="Tracé_430" data-name="Tracé 430" d="M70.81,4.963V4.954h-.059Z" transform="translate(33.486 4.083)" fill="#f72"/>
      <path id="Tracé_431" data-name="Tracé 431" d="M82.6,4.376a.338.338,0,0,0,.4.026.486.486,0,0,0-.4-.026" transform="translate(39.091 3.578)" fill="#f72"/>
      <path id="Tracé_432" data-name="Tracé 432" d="M101.953,5.961l.085.031a.2.2,0,0,1,.016-.082Z" transform="translate(48.253 4.871)" fill="#f72"/>
      <path id="Tracé_433" data-name="Tracé 433" d="M102.021,5.934l.1-.051c-.044,0-.083,0-.1.051" transform="translate(48.285 4.847)" fill="#f72"/>
      <path id="Tracé_434" data-name="Tracé 434" d="M102.3,5.823l-.212.108c.071.009.156.033.212-.108" transform="translate(48.317 4.799)" fill="#f72"/>
      <path id="Tracé_435" data-name="Tracé 435" d="M100.363,5.677l-.04.182a.59.59,0,0,0,.04-.182" transform="translate(47.481 4.679)" fill="#f72"/>
      <path id="Tracé_436" data-name="Tracé 436" d="M99.857,5.7c.169.06.405.44.654.347l.032-.144c-.133.263-.5-.5-.687-.2" transform="translate(47.261 4.639)" fill="#f72"/>
      <path id="Tracé_437" data-name="Tracé 437" d="M97.91,4.475l.6.21c-.093-.208-.217-.489.063-.507-.728-.668.13.458-.661.3" transform="translate(46.339 3.267)" fill="#f72"/>
      <path id="Tracé_438" data-name="Tracé 438" d="M96.692,4.162c.331-.058.013-.286.038-.4-.218.161-.271.2-.038.4" transform="translate(45.691 3.102)" fill="#f72"/>
      <path id="Tracé_439" data-name="Tracé 439" d="M87.41,3.6l.053-.463c-.256.049-.01.181-.053.463" transform="translate(41.339 2.584)" fill="#f72"/>
      <path id="Tracé_440" data-name="Tracé 440" d="M85.557,4.661l.233.306.134-.42Z" transform="translate(40.493 3.749)" fill="#f72"/>
      <path id="Tracé_441" data-name="Tracé 441" d="M84.7,2.757l.112-.058-.427.148Z" transform="translate(39.936 2.225)" fill="#f72"/>
      <path id="Tracé_442" data-name="Tracé 442" d="M69,2.486l.075.575c.171-.1.208-.746-.075-.575" transform="translate(32.658 2.025)" fill="#f72"/>
      <path id="Tracé_443" data-name="Tracé 443" d="M62.456,2.993c-.112-.285-.393-.465-.561-.181.224.036.449.257.561.181" transform="translate(29.294 2.2)" fill="#f72"/>
      <path id="Tracé_444" data-name="Tracé 444" d="M42.142,3.347l.187-.21-.365.193Z" transform="translate(19.861 2.586)" fill="#f72"/>
    </g>
  </g>
</svg>
